%TF.GenerationSoftware,KiCad,Pcbnew,4.0.6*%
%TF.CreationDate,2017-06-22T12:26:56+02:00*%
%TF.ProjectId,esp8266_irrigation_system,657370383236365F6972726967617469,rev?*%
%TF.FileFunction,Legend,Top*%
%FSLAX46Y46*%
G04 Gerber Fmt 4.6, Leading zero omitted, Abs format (unit mm)*
G04 Created by KiCad (PCBNEW 4.0.6) date Thu Jun 22 12:26:56 2017*
%MOMM*%
%LPD*%
G01*
G04 APERTURE LIST*
%ADD10C,0.100000*%
%ADD11C,0.150000*%
%ADD12C,0.200000*%
%ADD13C,0.120000*%
%ADD14C,0.125000*%
G04 APERTURE END LIST*
D10*
D11*
X122780572Y-101604800D02*
X122723429Y-101576229D01*
X122637715Y-101576229D01*
X122552000Y-101604800D01*
X122494858Y-101661943D01*
X122466286Y-101719086D01*
X122437715Y-101833371D01*
X122437715Y-101919086D01*
X122466286Y-102033371D01*
X122494858Y-102090514D01*
X122552000Y-102147657D01*
X122637715Y-102176229D01*
X122694858Y-102176229D01*
X122780572Y-102147657D01*
X122809143Y-102119086D01*
X122809143Y-101919086D01*
X122694858Y-101919086D01*
X123066286Y-102176229D02*
X123066286Y-101576229D01*
X123294858Y-101576229D01*
X123352000Y-101604800D01*
X123380572Y-101633371D01*
X123409143Y-101690514D01*
X123409143Y-101776229D01*
X123380572Y-101833371D01*
X123352000Y-101861943D01*
X123294858Y-101890514D01*
X123066286Y-101890514D01*
X123666286Y-102176229D02*
X123666286Y-101576229D01*
X124066286Y-101576229D02*
X124180572Y-101576229D01*
X124237714Y-101604800D01*
X124294857Y-101661943D01*
X124323429Y-101776229D01*
X124323429Y-101976229D01*
X124294857Y-102090514D01*
X124237714Y-102147657D01*
X124180572Y-102176229D01*
X124066286Y-102176229D01*
X124009143Y-102147657D01*
X123952000Y-102090514D01*
X123923429Y-101976229D01*
X123923429Y-101776229D01*
X123952000Y-101661943D01*
X124009143Y-101604800D01*
X124066286Y-101576229D01*
X124894857Y-102176229D02*
X124552000Y-102176229D01*
X124723428Y-102176229D02*
X124723428Y-101576229D01*
X124666285Y-101661943D01*
X124609143Y-101719086D01*
X124552000Y-101747657D01*
X125094857Y-101576229D02*
X125466286Y-101576229D01*
X125266286Y-101804800D01*
X125352000Y-101804800D01*
X125409143Y-101833371D01*
X125437714Y-101861943D01*
X125466286Y-101919086D01*
X125466286Y-102061943D01*
X125437714Y-102119086D01*
X125409143Y-102147657D01*
X125352000Y-102176229D01*
X125180572Y-102176229D01*
X125123429Y-102147657D01*
X125094857Y-102119086D01*
X120745343Y-97483600D02*
X121031057Y-97483600D01*
X120688200Y-97655029D02*
X120888200Y-97055029D01*
X121088200Y-97655029D01*
X121288200Y-97655029D02*
X121288200Y-97055029D01*
X121431057Y-97055029D01*
X121516772Y-97083600D01*
X121573914Y-97140743D01*
X121602486Y-97197886D01*
X121631057Y-97312171D01*
X121631057Y-97397886D01*
X121602486Y-97512171D01*
X121573914Y-97569314D01*
X121516772Y-97626457D01*
X121431057Y-97655029D01*
X121288200Y-97655029D01*
X122231057Y-97597886D02*
X122202486Y-97626457D01*
X122116772Y-97655029D01*
X122059629Y-97655029D01*
X121973914Y-97626457D01*
X121916772Y-97569314D01*
X121888200Y-97512171D01*
X121859629Y-97397886D01*
X121859629Y-97312171D01*
X121888200Y-97197886D01*
X121916772Y-97140743D01*
X121973914Y-97083600D01*
X122059629Y-97055029D01*
X122116772Y-97055029D01*
X122202486Y-97083600D01*
X122231057Y-97112171D01*
X129441686Y-97032800D02*
X129384543Y-97004229D01*
X129298829Y-97004229D01*
X129213114Y-97032800D01*
X129155972Y-97089943D01*
X129127400Y-97147086D01*
X129098829Y-97261371D01*
X129098829Y-97347086D01*
X129127400Y-97461371D01*
X129155972Y-97518514D01*
X129213114Y-97575657D01*
X129298829Y-97604229D01*
X129355972Y-97604229D01*
X129441686Y-97575657D01*
X129470257Y-97547086D01*
X129470257Y-97347086D01*
X129355972Y-97347086D01*
X129727400Y-97604229D02*
X129727400Y-97004229D01*
X129955972Y-97004229D01*
X130013114Y-97032800D01*
X130041686Y-97061371D01*
X130070257Y-97118514D01*
X130070257Y-97204229D01*
X130041686Y-97261371D01*
X130013114Y-97289943D01*
X129955972Y-97318514D01*
X129727400Y-97318514D01*
X130327400Y-97604229D02*
X130327400Y-97004229D01*
X130727400Y-97004229D02*
X130841686Y-97004229D01*
X130898828Y-97032800D01*
X130955971Y-97089943D01*
X130984543Y-97204229D01*
X130984543Y-97404229D01*
X130955971Y-97518514D01*
X130898828Y-97575657D01*
X130841686Y-97604229D01*
X130727400Y-97604229D01*
X130670257Y-97575657D01*
X130613114Y-97518514D01*
X130584543Y-97404229D01*
X130584543Y-97204229D01*
X130613114Y-97089943D01*
X130670257Y-97032800D01*
X130727400Y-97004229D01*
X131527399Y-97004229D02*
X131241685Y-97004229D01*
X131213114Y-97289943D01*
X131241685Y-97261371D01*
X131298828Y-97232800D01*
X131441685Y-97232800D01*
X131498828Y-97261371D01*
X131527399Y-97289943D01*
X131555971Y-97347086D01*
X131555971Y-97489943D01*
X131527399Y-97547086D01*
X131498828Y-97575657D01*
X131441685Y-97604229D01*
X131298828Y-97604229D01*
X131241685Y-97575657D01*
X131213114Y-97547086D01*
X129232172Y-94416600D02*
X129175029Y-94388029D01*
X129089315Y-94388029D01*
X129003600Y-94416600D01*
X128946458Y-94473743D01*
X128917886Y-94530886D01*
X128889315Y-94645171D01*
X128889315Y-94730886D01*
X128917886Y-94845171D01*
X128946458Y-94902314D01*
X129003600Y-94959457D01*
X129089315Y-94988029D01*
X129146458Y-94988029D01*
X129232172Y-94959457D01*
X129260743Y-94930886D01*
X129260743Y-94730886D01*
X129146458Y-94730886D01*
X129517886Y-94988029D02*
X129517886Y-94388029D01*
X129746458Y-94388029D01*
X129803600Y-94416600D01*
X129832172Y-94445171D01*
X129860743Y-94502314D01*
X129860743Y-94588029D01*
X129832172Y-94645171D01*
X129803600Y-94673743D01*
X129746458Y-94702314D01*
X129517886Y-94702314D01*
X130117886Y-94988029D02*
X130117886Y-94388029D01*
X130517886Y-94388029D02*
X130632172Y-94388029D01*
X130689314Y-94416600D01*
X130746457Y-94473743D01*
X130775029Y-94588029D01*
X130775029Y-94788029D01*
X130746457Y-94902314D01*
X130689314Y-94959457D01*
X130632172Y-94988029D01*
X130517886Y-94988029D01*
X130460743Y-94959457D01*
X130403600Y-94902314D01*
X130375029Y-94788029D01*
X130375029Y-94588029D01*
X130403600Y-94473743D01*
X130460743Y-94416600D01*
X130517886Y-94388029D01*
X131346457Y-94988029D02*
X131003600Y-94988029D01*
X131175028Y-94988029D02*
X131175028Y-94388029D01*
X131117885Y-94473743D01*
X131060743Y-94530886D01*
X131003600Y-94559457D01*
X131860743Y-94388029D02*
X131746457Y-94388029D01*
X131689314Y-94416600D01*
X131660743Y-94445171D01*
X131603600Y-94530886D01*
X131575029Y-94645171D01*
X131575029Y-94873743D01*
X131603600Y-94930886D01*
X131632172Y-94959457D01*
X131689314Y-94988029D01*
X131803600Y-94988029D01*
X131860743Y-94959457D01*
X131889314Y-94930886D01*
X131917886Y-94873743D01*
X131917886Y-94730886D01*
X131889314Y-94673743D01*
X131860743Y-94645171D01*
X131803600Y-94616600D01*
X131689314Y-94616600D01*
X131632172Y-94645171D01*
X131603600Y-94673743D01*
X131575029Y-94730886D01*
X129121000Y-99569629D02*
X129321000Y-100169629D01*
X129521000Y-99569629D01*
X130063857Y-100112486D02*
X130035286Y-100141057D01*
X129949572Y-100169629D01*
X129892429Y-100169629D01*
X129806714Y-100141057D01*
X129749572Y-100083914D01*
X129721000Y-100026771D01*
X129692429Y-99912486D01*
X129692429Y-99826771D01*
X129721000Y-99712486D01*
X129749572Y-99655343D01*
X129806714Y-99598200D01*
X129892429Y-99569629D01*
X129949572Y-99569629D01*
X130035286Y-99598200D01*
X130063857Y-99626771D01*
X130663857Y-100112486D02*
X130635286Y-100141057D01*
X130549572Y-100169629D01*
X130492429Y-100169629D01*
X130406714Y-100141057D01*
X130349572Y-100083914D01*
X130321000Y-100026771D01*
X130292429Y-99912486D01*
X130292429Y-99826771D01*
X130321000Y-99712486D01*
X130349572Y-99655343D01*
X130406714Y-99598200D01*
X130492429Y-99569629D01*
X130549572Y-99569629D01*
X130635286Y-99598200D01*
X130663857Y-99626771D01*
X124079058Y-92613200D02*
X124021915Y-92584629D01*
X123936201Y-92584629D01*
X123850486Y-92613200D01*
X123793344Y-92670343D01*
X123764772Y-92727486D01*
X123736201Y-92841771D01*
X123736201Y-92927486D01*
X123764772Y-93041771D01*
X123793344Y-93098914D01*
X123850486Y-93156057D01*
X123936201Y-93184629D01*
X123993344Y-93184629D01*
X124079058Y-93156057D01*
X124107629Y-93127486D01*
X124107629Y-92927486D01*
X123993344Y-92927486D01*
X124364772Y-93184629D02*
X124364772Y-92584629D01*
X124707629Y-93184629D01*
X124707629Y-92584629D01*
X124993343Y-93184629D02*
X124993343Y-92584629D01*
X125136200Y-92584629D01*
X125221915Y-92613200D01*
X125279057Y-92670343D01*
X125307629Y-92727486D01*
X125336200Y-92841771D01*
X125336200Y-92927486D01*
X125307629Y-93041771D01*
X125279057Y-93098914D01*
X125221915Y-93156057D01*
X125136200Y-93184629D01*
X124993343Y-93184629D01*
X157188000Y-66651229D02*
X157388000Y-67251229D01*
X157588000Y-66651229D01*
X158130857Y-67194086D02*
X158102286Y-67222657D01*
X158016572Y-67251229D01*
X157959429Y-67251229D01*
X157873714Y-67222657D01*
X157816572Y-67165514D01*
X157788000Y-67108371D01*
X157759429Y-66994086D01*
X157759429Y-66908371D01*
X157788000Y-66794086D01*
X157816572Y-66736943D01*
X157873714Y-66679800D01*
X157959429Y-66651229D01*
X158016572Y-66651229D01*
X158102286Y-66679800D01*
X158130857Y-66708371D01*
X158730857Y-67194086D02*
X158702286Y-67222657D01*
X158616572Y-67251229D01*
X158559429Y-67251229D01*
X158473714Y-67222657D01*
X158416572Y-67165514D01*
X158388000Y-67108371D01*
X158359429Y-66994086D01*
X158359429Y-66908371D01*
X158388000Y-66794086D01*
X158416572Y-66736943D01*
X158473714Y-66679800D01*
X158559429Y-66651229D01*
X158616572Y-66651229D01*
X158702286Y-66679800D01*
X158730857Y-66708371D01*
X155551200Y-74388629D02*
X155351200Y-74102914D01*
X155208343Y-74388629D02*
X155208343Y-73788629D01*
X155436915Y-73788629D01*
X155494057Y-73817200D01*
X155522629Y-73845771D01*
X155551200Y-73902914D01*
X155551200Y-73988629D01*
X155522629Y-74045771D01*
X155494057Y-74074343D01*
X155436915Y-74102914D01*
X155208343Y-74102914D01*
X155751200Y-73788629D02*
X156151200Y-74388629D01*
X156151200Y-73788629D02*
X155751200Y-74388629D01*
X157657857Y-73788629D02*
X158000714Y-73788629D01*
X157829285Y-74388629D02*
X157829285Y-73788629D01*
X158143571Y-73788629D02*
X158543571Y-74388629D01*
X158543571Y-73788629D02*
X158143571Y-74388629D01*
X160147086Y-74439429D02*
X160147086Y-73839429D01*
X160289943Y-73839429D01*
X160375658Y-73868000D01*
X160432800Y-73925143D01*
X160461372Y-73982286D01*
X160489943Y-74096571D01*
X160489943Y-74182286D01*
X160461372Y-74296571D01*
X160432800Y-74353714D01*
X160375658Y-74410857D01*
X160289943Y-74439429D01*
X160147086Y-74439429D01*
X160661372Y-73839429D02*
X161004229Y-73839429D01*
X160832800Y-74439429D02*
X160832800Y-73839429D01*
X161547086Y-74439429D02*
X161347086Y-74153714D01*
X161204229Y-74439429D02*
X161204229Y-73839429D01*
X161432801Y-73839429D01*
X161489943Y-73868000D01*
X161518515Y-73896571D01*
X161547086Y-73953714D01*
X161547086Y-74039429D01*
X161518515Y-74096571D01*
X161489943Y-74125143D01*
X161432801Y-74153714D01*
X161204229Y-74153714D01*
X162440971Y-69038828D02*
X162726686Y-68838828D01*
X162440971Y-68695971D02*
X163040971Y-68695971D01*
X163040971Y-68924543D01*
X163012400Y-68981685D01*
X162983829Y-69010257D01*
X162926686Y-69038828D01*
X162840971Y-69038828D01*
X162783829Y-69010257D01*
X162755257Y-68981685D01*
X162726686Y-68924543D01*
X162726686Y-68695971D01*
X162469543Y-69267400D02*
X162440971Y-69353114D01*
X162440971Y-69495971D01*
X162469543Y-69553114D01*
X162498114Y-69581685D01*
X162555257Y-69610257D01*
X162612400Y-69610257D01*
X162669543Y-69581685D01*
X162698114Y-69553114D01*
X162726686Y-69495971D01*
X162755257Y-69381685D01*
X162783829Y-69324543D01*
X162812400Y-69295971D01*
X162869543Y-69267400D01*
X162926686Y-69267400D01*
X162983829Y-69295971D01*
X163012400Y-69324543D01*
X163040971Y-69381685D01*
X163040971Y-69524543D01*
X163012400Y-69610257D01*
X163040971Y-69781686D02*
X163040971Y-70124543D01*
X162440971Y-69953114D02*
X163040971Y-69953114D01*
X155016258Y-66679800D02*
X154959115Y-66651229D01*
X154873401Y-66651229D01*
X154787686Y-66679800D01*
X154730544Y-66736943D01*
X154701972Y-66794086D01*
X154673401Y-66908371D01*
X154673401Y-66994086D01*
X154701972Y-67108371D01*
X154730544Y-67165514D01*
X154787686Y-67222657D01*
X154873401Y-67251229D01*
X154930544Y-67251229D01*
X155016258Y-67222657D01*
X155044829Y-67194086D01*
X155044829Y-66994086D01*
X154930544Y-66994086D01*
X155301972Y-67251229D02*
X155301972Y-66651229D01*
X155644829Y-67251229D01*
X155644829Y-66651229D01*
X155930543Y-67251229D02*
X155930543Y-66651229D01*
X156073400Y-66651229D01*
X156159115Y-66679800D01*
X156216257Y-66736943D01*
X156244829Y-66794086D01*
X156273400Y-66908371D01*
X156273400Y-66994086D01*
X156244829Y-67108371D01*
X156216257Y-67165514D01*
X156159115Y-67222657D01*
X156073400Y-67251229D01*
X155930543Y-67251229D01*
D12*
X155899000Y-76257105D02*
X155899000Y-75457105D01*
X156089476Y-75457105D01*
X156203762Y-75495200D01*
X156279953Y-75571390D01*
X156318048Y-75647581D01*
X156356143Y-75799962D01*
X156356143Y-75914248D01*
X156318048Y-76066629D01*
X156279953Y-76142819D01*
X156203762Y-76219010D01*
X156089476Y-76257105D01*
X155899000Y-76257105D01*
X156660905Y-76028533D02*
X157041857Y-76028533D01*
X156584714Y-76257105D02*
X156851381Y-75457105D01*
X157118048Y-76257105D01*
X157270428Y-75457105D02*
X157727571Y-75457105D01*
X157499000Y-76257105D02*
X157499000Y-75457105D01*
X157956143Y-76028533D02*
X158337095Y-76028533D01*
X157879952Y-76257105D02*
X158146619Y-75457105D01*
X158413286Y-76257105D01*
X161271000Y-78816123D02*
X161232905Y-78892314D01*
X161232905Y-79006599D01*
X161271000Y-79120885D01*
X161347190Y-79197076D01*
X161423381Y-79235171D01*
X161575762Y-79273266D01*
X161690048Y-79273266D01*
X161842429Y-79235171D01*
X161918619Y-79197076D01*
X161994810Y-79120885D01*
X162032905Y-79006599D01*
X162032905Y-78930409D01*
X161994810Y-78816123D01*
X161956714Y-78778028D01*
X161690048Y-78778028D01*
X161690048Y-78930409D01*
X162032905Y-78435171D02*
X161232905Y-78435171D01*
X162032905Y-77978028D01*
X161232905Y-77978028D01*
X162032905Y-77597076D02*
X161232905Y-77597076D01*
X161232905Y-77406600D01*
X161271000Y-77292314D01*
X161347190Y-77216123D01*
X161423381Y-77178028D01*
X161575762Y-77139933D01*
X161690048Y-77139933D01*
X161842429Y-77178028D01*
X161918619Y-77216123D01*
X161994810Y-77292314D01*
X162032905Y-77406600D01*
X162032905Y-77597076D01*
X151860305Y-79146267D02*
X152660305Y-78879600D01*
X151860305Y-78612933D01*
X152584114Y-77889124D02*
X152622210Y-77927219D01*
X152660305Y-78041505D01*
X152660305Y-78117695D01*
X152622210Y-78231981D01*
X152546019Y-78308172D01*
X152469829Y-78346267D01*
X152317448Y-78384362D01*
X152203162Y-78384362D01*
X152050781Y-78346267D01*
X151974590Y-78308172D01*
X151898400Y-78231981D01*
X151860305Y-78117695D01*
X151860305Y-78041505D01*
X151898400Y-77927219D01*
X151936495Y-77889124D01*
X152584114Y-77089124D02*
X152622210Y-77127219D01*
X152660305Y-77241505D01*
X152660305Y-77317695D01*
X152622210Y-77431981D01*
X152546019Y-77508172D01*
X152469829Y-77546267D01*
X152317448Y-77584362D01*
X152203162Y-77584362D01*
X152050781Y-77546267D01*
X151974590Y-77508172D01*
X151898400Y-77431981D01*
X151860305Y-77317695D01*
X151860305Y-77241505D01*
X151898400Y-77127219D01*
X151936495Y-77089124D01*
D13*
X141995600Y-104408600D02*
X141995600Y-101788600D01*
X141995600Y-101788600D02*
X135575600Y-101788600D01*
X135575600Y-101788600D02*
X135575600Y-104408600D01*
X135575600Y-104408600D02*
X141995600Y-104408600D01*
X142885600Y-103098600D02*
X141995600Y-103098600D01*
X134685600Y-103098600D02*
X135575600Y-103098600D01*
X125697600Y-70980600D02*
X125697600Y-68160600D01*
X125697600Y-68160600D02*
X120377600Y-68160600D01*
X120377600Y-68160600D02*
X120377600Y-70980600D01*
X120377600Y-70980600D02*
X125697600Y-70980600D01*
X127037600Y-69570600D02*
X125697600Y-69570600D01*
X119037600Y-69570600D02*
X120377600Y-69570600D01*
X124857600Y-70980600D02*
X124857600Y-68160600D01*
X117729000Y-60045600D02*
X127889000Y-60045600D01*
X117729000Y-58775600D02*
X117729000Y-66395600D01*
X117729000Y-66395600D02*
X127889000Y-66395600D01*
X127889000Y-66395600D02*
X127889000Y-58775600D01*
X127889000Y-58775600D02*
X117729000Y-58775600D01*
X129413000Y-60096400D02*
X139573000Y-60096400D01*
X129413000Y-58826400D02*
X129413000Y-66446400D01*
X129413000Y-66446400D02*
X139573000Y-66446400D01*
X139573000Y-66446400D02*
X139573000Y-58826400D01*
X139573000Y-58826400D02*
X129413000Y-58826400D01*
X159385000Y-67961200D02*
X154245000Y-67961200D01*
X154245000Y-67961200D02*
X154245000Y-73161200D01*
X154245000Y-73161200D02*
X161985000Y-73161200D01*
X161985000Y-73161200D02*
X161985000Y-70561200D01*
X161985000Y-70561200D02*
X159385000Y-70561200D01*
X159385000Y-70561200D02*
X159385000Y-67961200D01*
X160655000Y-67961200D02*
X161985000Y-67961200D01*
X161985000Y-67961200D02*
X161985000Y-69291200D01*
X155702000Y-79536600D02*
X160842000Y-79536600D01*
X160842000Y-79536600D02*
X160842000Y-76876600D01*
X160842000Y-76876600D02*
X155702000Y-76876600D01*
X155702000Y-76876600D02*
X155702000Y-79536600D01*
X154432000Y-79536600D02*
X153102000Y-79536600D01*
X153102000Y-79536600D02*
X153102000Y-78206600D01*
X132438800Y-69288400D02*
X132438800Y-71288400D01*
X130298800Y-71288400D02*
X130298800Y-69288400D01*
X148072600Y-70989800D02*
X150072600Y-70989800D01*
X150072600Y-73129800D02*
X148072600Y-73129800D01*
X141208000Y-73129800D02*
X139208000Y-73129800D01*
X139208000Y-70989800D02*
X141208000Y-70989800D01*
X155400400Y-100523800D02*
X155400400Y-102523800D01*
X153260400Y-102523800D02*
X153260400Y-100523800D01*
X158473800Y-93538800D02*
X158473800Y-95538800D01*
X156333800Y-95538800D02*
X156333800Y-93538800D01*
X125857000Y-88992400D02*
X123257000Y-88992400D01*
X123257000Y-88992400D02*
X123257000Y-91652400D01*
X123257000Y-91652400D02*
X125857000Y-91652400D01*
X125857000Y-91652400D02*
X125857000Y-88992400D01*
X127127000Y-88992400D02*
X128457000Y-88992400D01*
X128457000Y-88992400D02*
X128457000Y-90322400D01*
D11*
X134988300Y-74510900D02*
X151117300Y-74510900D01*
X151117300Y-74510900D02*
X151117300Y-98577400D01*
X151117300Y-98577400D02*
X134988300Y-98513900D01*
X134988300Y-98513900D02*
X134988300Y-74510900D01*
D13*
X148666200Y-101743200D02*
X146066200Y-101743200D01*
X146066200Y-101743200D02*
X146066200Y-104403200D01*
X146066200Y-104403200D02*
X148666200Y-104403200D01*
X148666200Y-104403200D02*
X148666200Y-101743200D01*
X149936200Y-101743200D02*
X151266200Y-101743200D01*
X151266200Y-101743200D02*
X151266200Y-103073200D01*
X133417000Y-70104000D02*
X133417000Y-72704000D01*
X133417000Y-72704000D02*
X136077000Y-72704000D01*
X136077000Y-72704000D02*
X136077000Y-70104000D01*
X136077000Y-70104000D02*
X133417000Y-70104000D01*
X133417000Y-68834000D02*
X133417000Y-67504000D01*
X133417000Y-67504000D02*
X134747000Y-67504000D01*
X127524000Y-104550400D02*
X129524000Y-104550400D01*
X129524000Y-102510400D02*
X127524000Y-102510400D01*
X141097000Y-60096400D02*
X151257000Y-60096400D01*
X141097000Y-58826400D02*
X141097000Y-66446400D01*
X141097000Y-66446400D02*
X151257000Y-66446400D01*
X151257000Y-66446400D02*
X151257000Y-58826400D01*
X151257000Y-58826400D02*
X141097000Y-58826400D01*
X128457000Y-98602800D02*
X128457000Y-93462800D01*
X128457000Y-93462800D02*
X123257000Y-93462800D01*
X123257000Y-93462800D02*
X123257000Y-101202800D01*
X123257000Y-101202800D02*
X125857000Y-101202800D01*
X125857000Y-101202800D02*
X125857000Y-98602800D01*
X125857000Y-98602800D02*
X128457000Y-98602800D01*
X128457000Y-99872800D02*
X128457000Y-101202800D01*
X128457000Y-101202800D02*
X127127000Y-101202800D01*
X123729800Y-74417000D02*
X122469800Y-74417000D01*
X116909800Y-74417000D02*
X118169800Y-74417000D01*
X123729800Y-78177000D02*
X123729800Y-74417000D01*
X116909800Y-80427000D02*
X116909800Y-74417000D01*
X119599000Y-81494000D02*
X119599000Y-84114000D01*
X119599000Y-84114000D02*
X126019000Y-84114000D01*
X126019000Y-84114000D02*
X126019000Y-81494000D01*
X126019000Y-81494000D02*
X119599000Y-81494000D01*
X118709000Y-82804000D02*
X119599000Y-82804000D01*
X126909000Y-82804000D02*
X126019000Y-82804000D01*
X120793000Y-87404600D02*
X118793000Y-87404600D01*
X118793000Y-85264600D02*
X120793000Y-85264600D01*
X155400400Y-93538800D02*
X155400400Y-95538800D01*
X153260400Y-95538800D02*
X153260400Y-93538800D01*
D11*
X136967934Y-103652581D02*
X136634600Y-103176390D01*
X136396505Y-103652581D02*
X136396505Y-102652581D01*
X136777458Y-102652581D01*
X136872696Y-102700200D01*
X136920315Y-102747819D01*
X136967934Y-102843057D01*
X136967934Y-102985914D01*
X136920315Y-103081152D01*
X136872696Y-103128771D01*
X136777458Y-103176390D01*
X136396505Y-103176390D01*
X137920315Y-103652581D02*
X137348886Y-103652581D01*
X137634600Y-103652581D02*
X137634600Y-102652581D01*
X137539362Y-102795438D01*
X137444124Y-102890676D01*
X137348886Y-102938295D01*
X138665105Y-102722419D02*
X138712724Y-102674800D01*
X138807962Y-102627181D01*
X139046058Y-102627181D01*
X139141296Y-102674800D01*
X139188915Y-102722419D01*
X139236534Y-102817657D01*
X139236534Y-102912895D01*
X139188915Y-103055752D01*
X138617486Y-103627181D01*
X139236534Y-103627181D01*
X139617486Y-102722419D02*
X139665105Y-102674800D01*
X139760343Y-102627181D01*
X139998439Y-102627181D01*
X140093677Y-102674800D01*
X140141296Y-102722419D01*
X140188915Y-102817657D01*
X140188915Y-102912895D01*
X140141296Y-103055752D01*
X139569867Y-103627181D01*
X140188915Y-103627181D01*
X140807962Y-102627181D02*
X140903201Y-102627181D01*
X140998439Y-102674800D01*
X141046058Y-102722419D01*
X141093677Y-102817657D01*
X141141296Y-103008133D01*
X141141296Y-103246229D01*
X141093677Y-103436705D01*
X141046058Y-103531943D01*
X140998439Y-103579562D01*
X140903201Y-103627181D01*
X140807962Y-103627181D01*
X140712724Y-103579562D01*
X140665105Y-103531943D01*
X140617486Y-103436705D01*
X140569867Y-103246229D01*
X140569867Y-103008133D01*
X140617486Y-102817657D01*
X140665105Y-102722419D01*
X140712724Y-102674800D01*
X140807962Y-102627181D01*
X122147105Y-70048381D02*
X122147105Y-69048381D01*
X122385200Y-69048381D01*
X122528058Y-69096000D01*
X122623296Y-69191238D01*
X122670915Y-69286476D01*
X122718534Y-69476952D01*
X122718534Y-69619810D01*
X122670915Y-69810286D01*
X122623296Y-69905524D01*
X122528058Y-70000762D01*
X122385200Y-70048381D01*
X122147105Y-70048381D01*
X123051867Y-69048381D02*
X123670915Y-69048381D01*
X123337581Y-69429333D01*
X123480439Y-69429333D01*
X123575677Y-69476952D01*
X123623296Y-69524571D01*
X123670915Y-69619810D01*
X123670915Y-69857905D01*
X123623296Y-69953143D01*
X123575677Y-70000762D01*
X123480439Y-70048381D01*
X123194724Y-70048381D01*
X123099486Y-70000762D01*
X123051867Y-69953143D01*
X120761381Y-56957981D02*
X121094714Y-57957981D01*
X121428048Y-56957981D01*
X121713762Y-57672267D02*
X122189953Y-57672267D01*
X121618524Y-57957981D02*
X121951857Y-56957981D01*
X122285191Y-57957981D01*
X123094715Y-57957981D02*
X122618524Y-57957981D01*
X122618524Y-56957981D01*
X123285191Y-56957981D02*
X123618524Y-57957981D01*
X123951858Y-56957981D01*
X124285191Y-57434171D02*
X124618525Y-57434171D01*
X124761382Y-57957981D02*
X124285191Y-57957981D01*
X124285191Y-56957981D01*
X124761382Y-56957981D01*
X130945381Y-58008781D02*
X130373952Y-58008781D01*
X130659666Y-58008781D02*
X130659666Y-57008781D01*
X130564428Y-57151638D01*
X130469190Y-57246876D01*
X130373952Y-57294495D01*
X131326333Y-57104019D02*
X131373952Y-57056400D01*
X131469190Y-57008781D01*
X131707286Y-57008781D01*
X131802524Y-57056400D01*
X131850143Y-57104019D01*
X131897762Y-57199257D01*
X131897762Y-57294495D01*
X131850143Y-57437352D01*
X131278714Y-58008781D01*
X131897762Y-58008781D01*
X132183476Y-57008781D02*
X132516809Y-58008781D01*
X132850143Y-57008781D01*
X132945381Y-58104019D02*
X133707286Y-58104019D01*
X133945381Y-58008781D02*
X133945381Y-57008781D01*
X134326334Y-57008781D01*
X134421572Y-57056400D01*
X134469191Y-57104019D01*
X134516810Y-57199257D01*
X134516810Y-57342114D01*
X134469191Y-57437352D01*
X134421572Y-57484971D01*
X134326334Y-57532590D01*
X133945381Y-57532590D01*
X135135857Y-57008781D02*
X135326334Y-57008781D01*
X135421572Y-57056400D01*
X135516810Y-57151638D01*
X135564429Y-57342114D01*
X135564429Y-57675448D01*
X135516810Y-57865924D01*
X135421572Y-57961162D01*
X135326334Y-58008781D01*
X135135857Y-58008781D01*
X135040619Y-57961162D01*
X134945381Y-57865924D01*
X134897762Y-57675448D01*
X134897762Y-57342114D01*
X134945381Y-57151638D01*
X135040619Y-57056400D01*
X135135857Y-57008781D01*
X135897762Y-57008781D02*
X136135857Y-58008781D01*
X136326334Y-57294495D01*
X136516810Y-58008781D01*
X136754905Y-57008781D01*
X137135857Y-57484971D02*
X137469191Y-57484971D01*
X137612048Y-58008781D02*
X137135857Y-58008781D01*
X137135857Y-57008781D01*
X137612048Y-57008781D01*
X138612048Y-58008781D02*
X138278714Y-57532590D01*
X138040619Y-58008781D02*
X138040619Y-57008781D01*
X138421572Y-57008781D01*
X138516810Y-57056400D01*
X138564429Y-57104019D01*
X138612048Y-57199257D01*
X138612048Y-57342114D01*
X138564429Y-57437352D01*
X138516810Y-57484971D01*
X138421572Y-57532590D01*
X138040619Y-57532590D01*
X158577209Y-66114562D02*
X158720066Y-66162181D01*
X158958162Y-66162181D01*
X159053400Y-66114562D01*
X159101019Y-66066943D01*
X159148638Y-65971705D01*
X159148638Y-65876467D01*
X159101019Y-65781229D01*
X159053400Y-65733610D01*
X158958162Y-65685990D01*
X158767685Y-65638371D01*
X158672447Y-65590752D01*
X158624828Y-65543133D01*
X158577209Y-65447895D01*
X158577209Y-65352657D01*
X158624828Y-65257419D01*
X158672447Y-65209800D01*
X158767685Y-65162181D01*
X159005781Y-65162181D01*
X159148638Y-65209800D01*
X159958162Y-66114562D02*
X159862924Y-66162181D01*
X159672447Y-66162181D01*
X159577209Y-66114562D01*
X159529590Y-66019324D01*
X159529590Y-65638371D01*
X159577209Y-65543133D01*
X159672447Y-65495514D01*
X159862924Y-65495514D01*
X159958162Y-65543133D01*
X160005781Y-65638371D01*
X160005781Y-65733610D01*
X159529590Y-65828848D01*
X160434352Y-66162181D02*
X160434352Y-65495514D01*
X160434352Y-65685990D02*
X160481971Y-65590752D01*
X160529590Y-65543133D01*
X160624828Y-65495514D01*
X160720067Y-65495514D01*
X161053400Y-66162181D02*
X161053400Y-65495514D01*
X161053400Y-65162181D02*
X161005781Y-65209800D01*
X161053400Y-65257419D01*
X161101019Y-65209800D01*
X161053400Y-65162181D01*
X161053400Y-65257419D01*
X161958162Y-66162181D02*
X161958162Y-65638371D01*
X161910543Y-65543133D01*
X161815305Y-65495514D01*
X161624828Y-65495514D01*
X161529590Y-65543133D01*
X161958162Y-66114562D02*
X161862924Y-66162181D01*
X161624828Y-66162181D01*
X161529590Y-66114562D01*
X161481971Y-66019324D01*
X161481971Y-65924086D01*
X161529590Y-65828848D01*
X161624828Y-65781229D01*
X161862924Y-65781229D01*
X161958162Y-65733610D01*
X162577209Y-66162181D02*
X162481971Y-66114562D01*
X162434352Y-66019324D01*
X162434352Y-65162181D01*
X152959371Y-81554581D02*
X152959371Y-80554581D01*
X153197466Y-80554581D01*
X153340324Y-80602200D01*
X153435562Y-80697438D01*
X153483181Y-80792676D01*
X153530800Y-80983152D01*
X153530800Y-81126010D01*
X153483181Y-81316486D01*
X153435562Y-81411724D01*
X153340324Y-81506962D01*
X153197466Y-81554581D01*
X152959371Y-81554581D01*
X153959371Y-81554581D02*
X153959371Y-80554581D01*
X153959371Y-81030771D02*
X154530800Y-81030771D01*
X154530800Y-81554581D02*
X154530800Y-80554581D01*
X154864133Y-80554581D02*
X155435562Y-80554581D01*
X155149847Y-81554581D02*
X155149847Y-80554581D01*
X155721276Y-80649819D02*
X155768895Y-80602200D01*
X155864133Y-80554581D01*
X156102229Y-80554581D01*
X156197467Y-80602200D01*
X156245086Y-80649819D01*
X156292705Y-80745057D01*
X156292705Y-80840295D01*
X156245086Y-80983152D01*
X155673657Y-81554581D01*
X156292705Y-81554581D01*
X156673657Y-80649819D02*
X156721276Y-80602200D01*
X156816514Y-80554581D01*
X157054610Y-80554581D01*
X157149848Y-80602200D01*
X157197467Y-80649819D01*
X157245086Y-80745057D01*
X157245086Y-80840295D01*
X157197467Y-80983152D01*
X156626038Y-81554581D01*
X157245086Y-81554581D01*
X157435562Y-81649819D02*
X158197467Y-81649819D01*
X159006991Y-81459343D02*
X158959372Y-81506962D01*
X158816515Y-81554581D01*
X158721277Y-81554581D01*
X158578419Y-81506962D01*
X158483181Y-81411724D01*
X158435562Y-81316486D01*
X158387943Y-81126010D01*
X158387943Y-80983152D01*
X158435562Y-80792676D01*
X158483181Y-80697438D01*
X158578419Y-80602200D01*
X158721277Y-80554581D01*
X158816515Y-80554581D01*
X158959372Y-80602200D01*
X159006991Y-80649819D01*
X159626038Y-80554581D02*
X159816515Y-80554581D01*
X159911753Y-80602200D01*
X160006991Y-80697438D01*
X160054610Y-80887914D01*
X160054610Y-81221248D01*
X160006991Y-81411724D01*
X159911753Y-81506962D01*
X159816515Y-81554581D01*
X159626038Y-81554581D01*
X159530800Y-81506962D01*
X159435562Y-81411724D01*
X159387943Y-81221248D01*
X159387943Y-80887914D01*
X159435562Y-80697438D01*
X159530800Y-80602200D01*
X159626038Y-80554581D01*
X160483181Y-81554581D02*
X160483181Y-80554581D01*
X161054610Y-81554581D01*
X161054610Y-80554581D01*
X161530800Y-81554581D02*
X161530800Y-80554581D01*
X162102229Y-81554581D01*
X162102229Y-80554581D01*
X129932134Y-74798181D02*
X129598800Y-74321990D01*
X129360705Y-74798181D02*
X129360705Y-73798181D01*
X129741658Y-73798181D01*
X129836896Y-73845800D01*
X129884515Y-73893419D01*
X129932134Y-73988657D01*
X129932134Y-74131514D01*
X129884515Y-74226752D01*
X129836896Y-74274371D01*
X129741658Y-74321990D01*
X129360705Y-74321990D01*
X130313086Y-73893419D02*
X130360705Y-73845800D01*
X130455943Y-73798181D01*
X130694039Y-73798181D01*
X130789277Y-73845800D01*
X130836896Y-73893419D01*
X130884515Y-73988657D01*
X130884515Y-74083895D01*
X130836896Y-74226752D01*
X130265467Y-74798181D01*
X130884515Y-74798181D01*
X132341953Y-74798181D02*
X131770524Y-74798181D01*
X132056238Y-74798181D02*
X132056238Y-73798181D01*
X131961000Y-73941038D01*
X131865762Y-74036276D01*
X131770524Y-74083895D01*
X132770524Y-74798181D02*
X132770524Y-73798181D01*
X132865762Y-74417229D02*
X133151477Y-74798181D01*
X133151477Y-74131514D02*
X132770524Y-74512467D01*
X147102534Y-70607181D02*
X146769200Y-70130990D01*
X146531105Y-70607181D02*
X146531105Y-69607181D01*
X146912058Y-69607181D01*
X147007296Y-69654800D01*
X147054915Y-69702419D01*
X147102534Y-69797657D01*
X147102534Y-69940514D01*
X147054915Y-70035752D01*
X147007296Y-70083371D01*
X146912058Y-70130990D01*
X146531105Y-70130990D01*
X147959677Y-69940514D02*
X147959677Y-70607181D01*
X147721581Y-69559562D02*
X147483486Y-70273848D01*
X148102534Y-70273848D01*
X150509362Y-70581781D02*
X149937933Y-70581781D01*
X150223647Y-70581781D02*
X150223647Y-69581781D01*
X150128409Y-69724638D01*
X150033171Y-69819876D01*
X149937933Y-69867495D01*
X151128409Y-69581781D02*
X151223648Y-69581781D01*
X151318886Y-69629400D01*
X151366505Y-69677019D01*
X151414124Y-69772257D01*
X151461743Y-69962733D01*
X151461743Y-70200829D01*
X151414124Y-70391305D01*
X151366505Y-70486543D01*
X151318886Y-70534162D01*
X151223648Y-70581781D01*
X151128409Y-70581781D01*
X151033171Y-70534162D01*
X150985552Y-70486543D01*
X150937933Y-70391305D01*
X150890314Y-70200829D01*
X150890314Y-69962733D01*
X150937933Y-69772257D01*
X150985552Y-69677019D01*
X151033171Y-69629400D01*
X151128409Y-69581781D01*
X151890314Y-70581781D02*
X151890314Y-69581781D01*
X151985552Y-70200829D02*
X152271267Y-70581781D01*
X152271267Y-69915114D02*
X151890314Y-70296067D01*
X137958534Y-70581781D02*
X137625200Y-70105590D01*
X137387105Y-70581781D02*
X137387105Y-69581781D01*
X137768058Y-69581781D01*
X137863296Y-69629400D01*
X137910915Y-69677019D01*
X137958534Y-69772257D01*
X137958534Y-69915114D01*
X137910915Y-70010352D01*
X137863296Y-70057971D01*
X137768058Y-70105590D01*
X137387105Y-70105590D01*
X138863296Y-69581781D02*
X138387105Y-69581781D01*
X138339486Y-70057971D01*
X138387105Y-70010352D01*
X138482343Y-69962733D01*
X138720439Y-69962733D01*
X138815677Y-70010352D01*
X138863296Y-70057971D01*
X138910915Y-70153210D01*
X138910915Y-70391305D01*
X138863296Y-70486543D01*
X138815677Y-70534162D01*
X138720439Y-70581781D01*
X138482343Y-70581781D01*
X138387105Y-70534162D01*
X138339486Y-70486543D01*
X141365362Y-70556381D02*
X140793933Y-70556381D01*
X141079647Y-70556381D02*
X141079647Y-69556381D01*
X140984409Y-69699238D01*
X140889171Y-69794476D01*
X140793933Y-69842095D01*
X141984409Y-69556381D02*
X142079648Y-69556381D01*
X142174886Y-69604000D01*
X142222505Y-69651619D01*
X142270124Y-69746857D01*
X142317743Y-69937333D01*
X142317743Y-70175429D01*
X142270124Y-70365905D01*
X142222505Y-70461143D01*
X142174886Y-70508762D01*
X142079648Y-70556381D01*
X141984409Y-70556381D01*
X141889171Y-70508762D01*
X141841552Y-70461143D01*
X141793933Y-70365905D01*
X141746314Y-70175429D01*
X141746314Y-69937333D01*
X141793933Y-69746857D01*
X141841552Y-69651619D01*
X141889171Y-69604000D01*
X141984409Y-69556381D01*
X142746314Y-70556381D02*
X142746314Y-69556381D01*
X142841552Y-70175429D02*
X143127267Y-70556381D01*
X143127267Y-69889714D02*
X142746314Y-70270667D01*
X156687781Y-104052666D02*
X156211590Y-104386000D01*
X156687781Y-104624095D02*
X155687781Y-104624095D01*
X155687781Y-104243142D01*
X155735400Y-104147904D01*
X155783019Y-104100285D01*
X155878257Y-104052666D01*
X156021114Y-104052666D01*
X156116352Y-104100285D01*
X156163971Y-104147904D01*
X156211590Y-104243142D01*
X156211590Y-104624095D01*
X155687781Y-103195523D02*
X155687781Y-103386000D01*
X155735400Y-103481238D01*
X155783019Y-103528857D01*
X155925876Y-103624095D01*
X156116352Y-103671714D01*
X156497305Y-103671714D01*
X156592543Y-103624095D01*
X156640162Y-103576476D01*
X156687781Y-103481238D01*
X156687781Y-103290761D01*
X156640162Y-103195523D01*
X156592543Y-103147904D01*
X156497305Y-103100285D01*
X156259210Y-103100285D01*
X156163971Y-103147904D01*
X156116352Y-103195523D01*
X156068733Y-103290761D01*
X156068733Y-103481238D01*
X156116352Y-103576476D01*
X156163971Y-103624095D01*
X156259210Y-103671714D01*
X156763981Y-100264838D02*
X156763981Y-100836267D01*
X156763981Y-100550553D02*
X155763981Y-100550553D01*
X155906838Y-100645791D01*
X156002076Y-100741029D01*
X156049695Y-100836267D01*
X155763981Y-99645791D02*
X155763981Y-99550552D01*
X155811600Y-99455314D01*
X155859219Y-99407695D01*
X155954457Y-99360076D01*
X156144933Y-99312457D01*
X156383029Y-99312457D01*
X156573505Y-99360076D01*
X156668743Y-99407695D01*
X156716362Y-99455314D01*
X156763981Y-99550552D01*
X156763981Y-99645791D01*
X156716362Y-99741029D01*
X156668743Y-99788648D01*
X156573505Y-99836267D01*
X156383029Y-99883886D01*
X156144933Y-99883886D01*
X155954457Y-99836267D01*
X155859219Y-99788648D01*
X155811600Y-99741029D01*
X155763981Y-99645791D01*
X156763981Y-98883886D02*
X155763981Y-98883886D01*
X156383029Y-98788648D02*
X156763981Y-98502933D01*
X156097314Y-98502933D02*
X156478267Y-98883886D01*
X159964381Y-96915266D02*
X159488190Y-97248600D01*
X159964381Y-97486695D02*
X158964381Y-97486695D01*
X158964381Y-97105742D01*
X159012000Y-97010504D01*
X159059619Y-96962885D01*
X159154857Y-96915266D01*
X159297714Y-96915266D01*
X159392952Y-96962885D01*
X159440571Y-97010504D01*
X159488190Y-97105742D01*
X159488190Y-97486695D01*
X158964381Y-96581933D02*
X158964381Y-95915266D01*
X159964381Y-96343838D01*
X159786581Y-93076638D02*
X159786581Y-93648067D01*
X159786581Y-93362353D02*
X158786581Y-93362353D01*
X158929438Y-93457591D01*
X159024676Y-93552829D01*
X159072295Y-93648067D01*
X158786581Y-92457591D02*
X158786581Y-92362352D01*
X158834200Y-92267114D01*
X158881819Y-92219495D01*
X158977057Y-92171876D01*
X159167533Y-92124257D01*
X159405629Y-92124257D01*
X159596105Y-92171876D01*
X159691343Y-92219495D01*
X159738962Y-92267114D01*
X159786581Y-92362352D01*
X159786581Y-92457591D01*
X159738962Y-92552829D01*
X159691343Y-92600448D01*
X159596105Y-92648067D01*
X159405629Y-92695686D01*
X159167533Y-92695686D01*
X158977057Y-92648067D01*
X158881819Y-92600448D01*
X158834200Y-92552829D01*
X158786581Y-92457591D01*
X159786581Y-91695686D02*
X158786581Y-91695686D01*
X159405629Y-91600448D02*
X159786581Y-91314733D01*
X159119914Y-91314733D02*
X159500867Y-91695686D01*
X117456237Y-90811305D02*
X117189570Y-90430352D01*
X116999094Y-90811305D02*
X116999094Y-90011305D01*
X117303856Y-90011305D01*
X117380047Y-90049400D01*
X117418142Y-90087495D01*
X117456237Y-90163686D01*
X117456237Y-90277971D01*
X117418142Y-90354162D01*
X117380047Y-90392257D01*
X117303856Y-90430352D01*
X116999094Y-90430352D01*
X117799094Y-90392257D02*
X118065761Y-90392257D01*
X118180047Y-90811305D02*
X117799094Y-90811305D01*
X117799094Y-90011305D01*
X118180047Y-90011305D01*
X118484809Y-90773210D02*
X118599095Y-90811305D01*
X118789571Y-90811305D01*
X118865761Y-90773210D01*
X118903857Y-90735114D01*
X118941952Y-90658924D01*
X118941952Y-90582733D01*
X118903857Y-90506543D01*
X118865761Y-90468448D01*
X118789571Y-90430352D01*
X118637190Y-90392257D01*
X118560999Y-90354162D01*
X118522904Y-90316067D01*
X118484809Y-90239876D01*
X118484809Y-90163686D01*
X118522904Y-90087495D01*
X118560999Y-90049400D01*
X118637190Y-90011305D01*
X118827666Y-90011305D01*
X118941952Y-90049400D01*
X119284809Y-90392257D02*
X119551476Y-90392257D01*
X119665762Y-90811305D02*
X119284809Y-90811305D01*
X119284809Y-90011305D01*
X119665762Y-90011305D01*
X119894333Y-90011305D02*
X120351476Y-90011305D01*
X120122905Y-90811305D02*
X120122905Y-90011305D01*
X120427667Y-90887495D02*
X121037191Y-90887495D01*
X121189572Y-90773210D02*
X121303858Y-90811305D01*
X121494334Y-90811305D01*
X121570524Y-90773210D01*
X121608620Y-90735114D01*
X121646715Y-90658924D01*
X121646715Y-90582733D01*
X121608620Y-90506543D01*
X121570524Y-90468448D01*
X121494334Y-90430352D01*
X121341953Y-90392257D01*
X121265762Y-90354162D01*
X121227667Y-90316067D01*
X121189572Y-90239876D01*
X121189572Y-90163686D01*
X121227667Y-90087495D01*
X121265762Y-90049400D01*
X121341953Y-90011305D01*
X121532429Y-90011305D01*
X121646715Y-90049400D01*
X121913382Y-90011305D02*
X122103858Y-90811305D01*
X122256239Y-90239876D01*
X122408620Y-90811305D01*
X122599096Y-90011305D01*
X138236962Y-76331771D02*
X138570296Y-76331771D01*
X138713153Y-76855581D02*
X138236962Y-76855581D01*
X138236962Y-75855581D01*
X138713153Y-75855581D01*
X139094105Y-76807962D02*
X139236962Y-76855581D01*
X139475058Y-76855581D01*
X139570296Y-76807962D01*
X139617915Y-76760343D01*
X139665534Y-76665105D01*
X139665534Y-76569867D01*
X139617915Y-76474629D01*
X139570296Y-76427010D01*
X139475058Y-76379390D01*
X139284581Y-76331771D01*
X139189343Y-76284152D01*
X139141724Y-76236533D01*
X139094105Y-76141295D01*
X139094105Y-76046057D01*
X139141724Y-75950819D01*
X139189343Y-75903200D01*
X139284581Y-75855581D01*
X139522677Y-75855581D01*
X139665534Y-75903200D01*
X140094105Y-76855581D02*
X140094105Y-75855581D01*
X140475058Y-75855581D01*
X140570296Y-75903200D01*
X140617915Y-75950819D01*
X140665534Y-76046057D01*
X140665534Y-76188914D01*
X140617915Y-76284152D01*
X140570296Y-76331771D01*
X140475058Y-76379390D01*
X140094105Y-76379390D01*
X141236962Y-76284152D02*
X141141724Y-76236533D01*
X141094105Y-76188914D01*
X141046486Y-76093676D01*
X141046486Y-76046057D01*
X141094105Y-75950819D01*
X141141724Y-75903200D01*
X141236962Y-75855581D01*
X141427439Y-75855581D01*
X141522677Y-75903200D01*
X141570296Y-75950819D01*
X141617915Y-76046057D01*
X141617915Y-76093676D01*
X141570296Y-76188914D01*
X141522677Y-76236533D01*
X141427439Y-76284152D01*
X141236962Y-76284152D01*
X141141724Y-76331771D01*
X141094105Y-76379390D01*
X141046486Y-76474629D01*
X141046486Y-76665105D01*
X141094105Y-76760343D01*
X141141724Y-76807962D01*
X141236962Y-76855581D01*
X141427439Y-76855581D01*
X141522677Y-76807962D01*
X141570296Y-76760343D01*
X141617915Y-76665105D01*
X141617915Y-76474629D01*
X141570296Y-76379390D01*
X141522677Y-76331771D01*
X141427439Y-76284152D01*
X141998867Y-75950819D02*
X142046486Y-75903200D01*
X142141724Y-75855581D01*
X142379820Y-75855581D01*
X142475058Y-75903200D01*
X142522677Y-75950819D01*
X142570296Y-76046057D01*
X142570296Y-76141295D01*
X142522677Y-76284152D01*
X141951248Y-76855581D01*
X142570296Y-76855581D01*
X143427439Y-75855581D02*
X143236962Y-75855581D01*
X143141724Y-75903200D01*
X143094105Y-75950819D01*
X142998867Y-76093676D01*
X142951248Y-76284152D01*
X142951248Y-76665105D01*
X142998867Y-76760343D01*
X143046486Y-76807962D01*
X143141724Y-76855581D01*
X143332201Y-76855581D01*
X143427439Y-76807962D01*
X143475058Y-76760343D01*
X143522677Y-76665105D01*
X143522677Y-76427010D01*
X143475058Y-76331771D01*
X143427439Y-76284152D01*
X143332201Y-76236533D01*
X143141724Y-76236533D01*
X143046486Y-76284152D01*
X142998867Y-76331771D01*
X142951248Y-76427010D01*
X144379820Y-75855581D02*
X144189343Y-75855581D01*
X144094105Y-75903200D01*
X144046486Y-75950819D01*
X143951248Y-76093676D01*
X143903629Y-76284152D01*
X143903629Y-76665105D01*
X143951248Y-76760343D01*
X143998867Y-76807962D01*
X144094105Y-76855581D01*
X144284582Y-76855581D01*
X144379820Y-76807962D01*
X144427439Y-76760343D01*
X144475058Y-76665105D01*
X144475058Y-76427010D01*
X144427439Y-76331771D01*
X144379820Y-76284152D01*
X144284582Y-76236533D01*
X144094105Y-76236533D01*
X143998867Y-76284152D01*
X143951248Y-76331771D01*
X143903629Y-76427010D01*
X144903629Y-76474629D02*
X145665534Y-76474629D01*
X146665534Y-76855581D02*
X146094105Y-76855581D01*
X146379819Y-76855581D02*
X146379819Y-75855581D01*
X146284581Y-75998438D01*
X146189343Y-76093676D01*
X146094105Y-76141295D01*
X147046486Y-75950819D02*
X147094105Y-75903200D01*
X147189343Y-75855581D01*
X147427439Y-75855581D01*
X147522677Y-75903200D01*
X147570296Y-75950819D01*
X147617915Y-76046057D01*
X147617915Y-76141295D01*
X147570296Y-76284152D01*
X146998867Y-76855581D01*
X147617915Y-76855581D01*
X148379820Y-76331771D02*
X148046486Y-76331771D01*
X148046486Y-76855581D02*
X148046486Y-75855581D01*
X148522677Y-75855581D01*
X146480305Y-101061781D02*
X146480305Y-100061781D01*
X146718400Y-100061781D01*
X146861258Y-100109400D01*
X146956496Y-100204638D01*
X147004115Y-100299876D01*
X147051734Y-100490352D01*
X147051734Y-100633210D01*
X147004115Y-100823686D01*
X146956496Y-100918924D01*
X146861258Y-101014162D01*
X146718400Y-101061781D01*
X146480305Y-101061781D01*
X148004115Y-101061781D02*
X147432686Y-101061781D01*
X147718400Y-101061781D02*
X147718400Y-100061781D01*
X147623162Y-100204638D01*
X147527924Y-100299876D01*
X147432686Y-100347495D01*
X145723362Y-105678267D02*
X146199553Y-105678267D01*
X145628124Y-105963981D02*
X145961457Y-104963981D01*
X146294791Y-105963981D01*
X147199553Y-105868743D02*
X147151934Y-105916362D01*
X147009077Y-105963981D01*
X146913839Y-105963981D01*
X146770981Y-105916362D01*
X146675743Y-105821124D01*
X146628124Y-105725886D01*
X146580505Y-105535410D01*
X146580505Y-105392552D01*
X146628124Y-105202076D01*
X146675743Y-105106838D01*
X146770981Y-105011600D01*
X146913839Y-104963981D01*
X147009077Y-104963981D01*
X147151934Y-105011600D01*
X147199553Y-105059219D01*
X147485267Y-104963981D02*
X148056696Y-104963981D01*
X147770981Y-105963981D02*
X147770981Y-104963981D01*
X148390029Y-105583029D02*
X149151934Y-105583029D01*
X150104315Y-105963981D02*
X149628124Y-105963981D01*
X149628124Y-104963981D01*
X150437648Y-105440171D02*
X150770982Y-105440171D01*
X150913839Y-105963981D02*
X150437648Y-105963981D01*
X150437648Y-104963981D01*
X150913839Y-104963981D01*
X151342410Y-105963981D02*
X151342410Y-104963981D01*
X151580505Y-104963981D01*
X151723363Y-105011600D01*
X151818601Y-105106838D01*
X151866220Y-105202076D01*
X151913839Y-105392552D01*
X151913839Y-105535410D01*
X151866220Y-105725886D01*
X151818601Y-105821124D01*
X151723363Y-105916362D01*
X151580505Y-105963981D01*
X151342410Y-105963981D01*
X134008905Y-74340981D02*
X134008905Y-73340981D01*
X134247000Y-73340981D01*
X134389858Y-73388600D01*
X134485096Y-73483838D01*
X134532715Y-73579076D01*
X134580334Y-73769552D01*
X134580334Y-73912410D01*
X134532715Y-74102886D01*
X134485096Y-74198124D01*
X134389858Y-74293362D01*
X134247000Y-74340981D01*
X134008905Y-74340981D01*
X134961286Y-73436219D02*
X135008905Y-73388600D01*
X135104143Y-73340981D01*
X135342239Y-73340981D01*
X135437477Y-73388600D01*
X135485096Y-73436219D01*
X135532715Y-73531457D01*
X135532715Y-73626695D01*
X135485096Y-73769552D01*
X134913667Y-74340981D01*
X135532715Y-74340981D01*
X136755524Y-68676781D02*
X136755524Y-67676781D01*
X137136477Y-67676781D01*
X137231715Y-67724400D01*
X137279334Y-67772019D01*
X137326953Y-67867257D01*
X137326953Y-68010114D01*
X137279334Y-68105352D01*
X137231715Y-68152971D01*
X137136477Y-68200590D01*
X136755524Y-68200590D01*
X137660286Y-67676781D02*
X137898381Y-68676781D01*
X138088858Y-67962495D01*
X138279334Y-68676781D01*
X138517429Y-67676781D01*
X139469810Y-68676781D02*
X139136476Y-68200590D01*
X138898381Y-68676781D02*
X138898381Y-67676781D01*
X139279334Y-67676781D01*
X139374572Y-67724400D01*
X139422191Y-67772019D01*
X139469810Y-67867257D01*
X139469810Y-68010114D01*
X139422191Y-68105352D01*
X139374572Y-68152971D01*
X139279334Y-68200590D01*
X138898381Y-68200590D01*
X140374572Y-68676781D02*
X139898381Y-68676781D01*
X139898381Y-67676781D01*
X140707905Y-68152971D02*
X141041239Y-68152971D01*
X141184096Y-68676781D02*
X140707905Y-68676781D01*
X140707905Y-67676781D01*
X141184096Y-67676781D01*
X141612667Y-68676781D02*
X141612667Y-67676781D01*
X141850762Y-67676781D01*
X141993620Y-67724400D01*
X142088858Y-67819638D01*
X142136477Y-67914876D01*
X142184096Y-68105352D01*
X142184096Y-68248210D01*
X142136477Y-68438686D01*
X142088858Y-68533924D01*
X141993620Y-68629162D01*
X141850762Y-68676781D01*
X141612667Y-68676781D01*
X126249134Y-105690943D02*
X126201515Y-105738562D01*
X126058658Y-105786181D01*
X125963420Y-105786181D01*
X125820562Y-105738562D01*
X125725324Y-105643324D01*
X125677705Y-105548086D01*
X125630086Y-105357610D01*
X125630086Y-105214752D01*
X125677705Y-105024276D01*
X125725324Y-104929038D01*
X125820562Y-104833800D01*
X125963420Y-104786181D01*
X126058658Y-104786181D01*
X126201515Y-104833800D01*
X126249134Y-104881419D01*
X126630086Y-104881419D02*
X126677705Y-104833800D01*
X126772943Y-104786181D01*
X127011039Y-104786181D01*
X127106277Y-104833800D01*
X127153896Y-104881419D01*
X127201515Y-104976657D01*
X127201515Y-105071895D01*
X127153896Y-105214752D01*
X126582467Y-105786181D01*
X127201515Y-105786181D01*
X128700353Y-105786181D02*
X128128924Y-105786181D01*
X128414638Y-105786181D02*
X128414638Y-104786181D01*
X128319400Y-104929038D01*
X128224162Y-105024276D01*
X128128924Y-105071895D01*
X129319400Y-104786181D02*
X129414639Y-104786181D01*
X129509877Y-104833800D01*
X129557496Y-104881419D01*
X129605115Y-104976657D01*
X129652734Y-105167133D01*
X129652734Y-105405229D01*
X129605115Y-105595705D01*
X129557496Y-105690943D01*
X129509877Y-105738562D01*
X129414639Y-105786181D01*
X129319400Y-105786181D01*
X129224162Y-105738562D01*
X129176543Y-105690943D01*
X129128924Y-105595705D01*
X129081305Y-105405229D01*
X129081305Y-105167133D01*
X129128924Y-104976657D01*
X129176543Y-104881419D01*
X129224162Y-104833800D01*
X129319400Y-104786181D01*
X130271781Y-104786181D02*
X130367020Y-104786181D01*
X130462258Y-104833800D01*
X130509877Y-104881419D01*
X130557496Y-104976657D01*
X130605115Y-105167133D01*
X130605115Y-105405229D01*
X130557496Y-105595705D01*
X130509877Y-105690943D01*
X130462258Y-105738562D01*
X130367020Y-105786181D01*
X130271781Y-105786181D01*
X130176543Y-105738562D01*
X130128924Y-105690943D01*
X130081305Y-105595705D01*
X130033686Y-105405229D01*
X130033686Y-105167133D01*
X130081305Y-104976657D01*
X130128924Y-104881419D01*
X130176543Y-104833800D01*
X130271781Y-104786181D01*
X131033686Y-105119514D02*
X131033686Y-105786181D01*
X131033686Y-105214752D02*
X131081305Y-105167133D01*
X131176543Y-105119514D01*
X131319401Y-105119514D01*
X131414639Y-105167133D01*
X131462258Y-105262371D01*
X131462258Y-105786181D01*
X142010333Y-57008781D02*
X142629381Y-57008781D01*
X142296047Y-57389733D01*
X142438905Y-57389733D01*
X142534143Y-57437352D01*
X142581762Y-57484971D01*
X142629381Y-57580210D01*
X142629381Y-57818305D01*
X142581762Y-57913543D01*
X142534143Y-57961162D01*
X142438905Y-58008781D01*
X142153190Y-58008781D01*
X142057952Y-57961162D01*
X142010333Y-57913543D01*
X142915095Y-57008781D02*
X143248428Y-58008781D01*
X143581762Y-57008781D01*
X143819857Y-57008781D02*
X144438905Y-57008781D01*
X144105571Y-57389733D01*
X144248429Y-57389733D01*
X144343667Y-57437352D01*
X144391286Y-57484971D01*
X144438905Y-57580210D01*
X144438905Y-57818305D01*
X144391286Y-57913543D01*
X144343667Y-57961162D01*
X144248429Y-58008781D01*
X143962714Y-58008781D01*
X143867476Y-57961162D01*
X143819857Y-57913543D01*
X144629381Y-58104019D02*
X145391286Y-58104019D01*
X145629381Y-58008781D02*
X145629381Y-57008781D01*
X146010334Y-57008781D01*
X146105572Y-57056400D01*
X146153191Y-57104019D01*
X146200810Y-57199257D01*
X146200810Y-57342114D01*
X146153191Y-57437352D01*
X146105572Y-57484971D01*
X146010334Y-57532590D01*
X145629381Y-57532590D01*
X146819857Y-57008781D02*
X147010334Y-57008781D01*
X147105572Y-57056400D01*
X147200810Y-57151638D01*
X147248429Y-57342114D01*
X147248429Y-57675448D01*
X147200810Y-57865924D01*
X147105572Y-57961162D01*
X147010334Y-58008781D01*
X146819857Y-58008781D01*
X146724619Y-57961162D01*
X146629381Y-57865924D01*
X146581762Y-57675448D01*
X146581762Y-57342114D01*
X146629381Y-57151638D01*
X146724619Y-57056400D01*
X146819857Y-57008781D01*
X147581762Y-57008781D02*
X147819857Y-58008781D01*
X148010334Y-57294495D01*
X148200810Y-58008781D01*
X148438905Y-57008781D01*
X148819857Y-57484971D02*
X149153191Y-57484971D01*
X149296048Y-58008781D02*
X148819857Y-58008781D01*
X148819857Y-57008781D01*
X149296048Y-57008781D01*
X150296048Y-58008781D02*
X149962714Y-57532590D01*
X149724619Y-58008781D02*
X149724619Y-57008781D01*
X150105572Y-57008781D01*
X150200810Y-57056400D01*
X150248429Y-57104019D01*
X150296048Y-57199257D01*
X150296048Y-57342114D01*
X150248429Y-57437352D01*
X150200810Y-57484971D01*
X150105572Y-57532590D01*
X149724619Y-57532590D01*
X115743457Y-94248267D02*
X116219648Y-94248267D01*
X115648219Y-94533981D02*
X115981552Y-93533981D01*
X116314886Y-94533981D01*
X116648219Y-93533981D02*
X116648219Y-94343505D01*
X116695838Y-94438743D01*
X116743457Y-94486362D01*
X116838695Y-94533981D01*
X117029172Y-94533981D01*
X117124410Y-94486362D01*
X117172029Y-94438743D01*
X117219648Y-94343505D01*
X117219648Y-93533981D01*
X117600600Y-93533981D02*
X118267267Y-94533981D01*
X118267267Y-93533981D02*
X117600600Y-94533981D01*
X118410124Y-94629219D02*
X119172029Y-94629219D01*
X119410124Y-94533981D02*
X119410124Y-93533981D01*
X119791077Y-93533981D01*
X119886315Y-93581600D01*
X119933934Y-93629219D01*
X119981553Y-93724457D01*
X119981553Y-93867314D01*
X119933934Y-93962552D01*
X119886315Y-94010171D01*
X119791077Y-94057790D01*
X119410124Y-94057790D01*
X120410124Y-94533981D02*
X120410124Y-93533981D01*
X120886314Y-94533981D02*
X120886314Y-93533981D01*
X121457743Y-94533981D01*
X121457743Y-93533981D01*
X121886314Y-94486362D02*
X122029171Y-94533981D01*
X122267267Y-94533981D01*
X122362505Y-94486362D01*
X122410124Y-94438743D01*
X122457743Y-94343505D01*
X122457743Y-94248267D01*
X122410124Y-94153029D01*
X122362505Y-94105410D01*
X122267267Y-94057790D01*
X122076790Y-94010171D01*
X121981552Y-93962552D01*
X121933933Y-93914933D01*
X121886314Y-93819695D01*
X121886314Y-93724457D01*
X121933933Y-93629219D01*
X121981552Y-93581600D01*
X122076790Y-93533981D01*
X122314886Y-93533981D01*
X122457743Y-93581600D01*
X124898162Y-73090019D02*
X124802924Y-73042400D01*
X124707686Y-72947162D01*
X124564829Y-72804305D01*
X124469590Y-72756686D01*
X124374352Y-72756686D01*
X124421971Y-72994781D02*
X124326733Y-72947162D01*
X124231495Y-72851924D01*
X124183876Y-72661448D01*
X124183876Y-72328114D01*
X124231495Y-72137638D01*
X124326733Y-72042400D01*
X124421971Y-71994781D01*
X124612448Y-71994781D01*
X124707686Y-72042400D01*
X124802924Y-72137638D01*
X124850543Y-72328114D01*
X124850543Y-72661448D01*
X124802924Y-72851924D01*
X124707686Y-72947162D01*
X124612448Y-72994781D01*
X124421971Y-72994781D01*
X125802924Y-72994781D02*
X125231495Y-72994781D01*
X125517209Y-72994781D02*
X125517209Y-71994781D01*
X125421971Y-72137638D01*
X125326733Y-72232876D01*
X125231495Y-72280495D01*
D14*
X124813190Y-78773837D02*
X124313190Y-78773837D01*
X124813190Y-78250028D02*
X124575095Y-78416695D01*
X124813190Y-78535742D02*
X124313190Y-78535742D01*
X124313190Y-78345266D01*
X124337000Y-78297647D01*
X124360810Y-78273838D01*
X124408429Y-78250028D01*
X124479857Y-78250028D01*
X124527476Y-78273838D01*
X124551286Y-78297647D01*
X124575095Y-78345266D01*
X124575095Y-78535742D01*
X124813190Y-77797647D02*
X124813190Y-78035742D01*
X124313190Y-78035742D01*
X124813190Y-77392885D02*
X124813190Y-77630980D01*
X124313190Y-77630980D01*
X124313190Y-77130980D02*
X124313190Y-77083361D01*
X124337000Y-77035742D01*
X124360810Y-77011933D01*
X124408429Y-76988123D01*
X124503667Y-76964314D01*
X124622714Y-76964314D01*
X124717952Y-76988123D01*
X124765571Y-77011933D01*
X124789381Y-77035742D01*
X124813190Y-77083361D01*
X124813190Y-77130980D01*
X124789381Y-77178599D01*
X124765571Y-77202409D01*
X124717952Y-77226218D01*
X124622714Y-77250028D01*
X124503667Y-77250028D01*
X124408429Y-77226218D01*
X124360810Y-77202409D01*
X124337000Y-77178599D01*
X124313190Y-77130980D01*
X124360810Y-76773838D02*
X124337000Y-76750028D01*
X124313190Y-76702409D01*
X124313190Y-76583362D01*
X124337000Y-76535743D01*
X124360810Y-76511933D01*
X124408429Y-76488124D01*
X124456048Y-76488124D01*
X124527476Y-76511933D01*
X124813190Y-76797647D01*
X124813190Y-76488124D01*
X124479857Y-76059553D02*
X124813190Y-76059553D01*
X124289381Y-76178600D02*
X124646524Y-76297648D01*
X124646524Y-75988124D01*
X124813190Y-75797648D02*
X124313190Y-75797648D01*
X124813190Y-75511934D01*
X124313190Y-75511934D01*
X124813190Y-75273838D02*
X124313190Y-75273838D01*
X124313190Y-75083362D01*
X124337000Y-75035743D01*
X124360810Y-75011934D01*
X124408429Y-74988124D01*
X124479857Y-74988124D01*
X124527476Y-75011934D01*
X124551286Y-75035743D01*
X124575095Y-75083362D01*
X124575095Y-75273838D01*
X124551286Y-74607172D02*
X124575095Y-74535743D01*
X124598905Y-74511934D01*
X124646524Y-74488124D01*
X124717952Y-74488124D01*
X124765571Y-74511934D01*
X124789381Y-74535743D01*
X124813190Y-74583362D01*
X124813190Y-74773838D01*
X124313190Y-74773838D01*
X124313190Y-74607172D01*
X124337000Y-74559553D01*
X124360810Y-74535743D01*
X124408429Y-74511934D01*
X124456048Y-74511934D01*
X124503667Y-74535743D01*
X124527476Y-74559553D01*
X124551286Y-74607172D01*
X124551286Y-74773838D01*
X124551286Y-74107172D02*
X124551286Y-74273838D01*
X124813190Y-74273838D02*
X124313190Y-74273838D01*
X124313190Y-74035743D01*
D11*
X120813534Y-83230981D02*
X120480200Y-82754790D01*
X120242105Y-83230981D02*
X120242105Y-82230981D01*
X120623058Y-82230981D01*
X120718296Y-82278600D01*
X120765915Y-82326219D01*
X120813534Y-82421457D01*
X120813534Y-82564314D01*
X120765915Y-82659552D01*
X120718296Y-82707171D01*
X120623058Y-82754790D01*
X120242105Y-82754790D01*
X121146867Y-82230981D02*
X121765915Y-82230981D01*
X121432581Y-82611933D01*
X121575439Y-82611933D01*
X121670677Y-82659552D01*
X121718296Y-82707171D01*
X121765915Y-82802410D01*
X121765915Y-83040505D01*
X121718296Y-83135743D01*
X121670677Y-83183362D01*
X121575439Y-83230981D01*
X121289724Y-83230981D01*
X121194486Y-83183362D01*
X121146867Y-83135743D01*
X122810734Y-83205581D02*
X122239305Y-83205581D01*
X122525019Y-83205581D02*
X122525019Y-82205581D01*
X122429781Y-82348438D01*
X122334543Y-82443676D01*
X122239305Y-82491295D01*
X123429781Y-82205581D02*
X123525020Y-82205581D01*
X123620258Y-82253200D01*
X123667877Y-82300819D01*
X123715496Y-82396057D01*
X123763115Y-82586533D01*
X123763115Y-82824629D01*
X123715496Y-83015105D01*
X123667877Y-83110343D01*
X123620258Y-83157962D01*
X123525020Y-83205581D01*
X123429781Y-83205581D01*
X123334543Y-83157962D01*
X123286924Y-83110343D01*
X123239305Y-83015105D01*
X123191686Y-82824629D01*
X123191686Y-82586533D01*
X123239305Y-82396057D01*
X123286924Y-82300819D01*
X123334543Y-82253200D01*
X123429781Y-82205581D01*
X124382162Y-82205581D02*
X124477401Y-82205581D01*
X124572639Y-82253200D01*
X124620258Y-82300819D01*
X124667877Y-82396057D01*
X124715496Y-82586533D01*
X124715496Y-82824629D01*
X124667877Y-83015105D01*
X124620258Y-83110343D01*
X124572639Y-83157962D01*
X124477401Y-83205581D01*
X124382162Y-83205581D01*
X124286924Y-83157962D01*
X124239305Y-83110343D01*
X124191686Y-83015105D01*
X124144067Y-82824629D01*
X124144067Y-82586533D01*
X124191686Y-82396057D01*
X124239305Y-82300819D01*
X124286924Y-82253200D01*
X124382162Y-82205581D01*
X125715496Y-83205581D02*
X125382162Y-82729390D01*
X125144067Y-83205581D02*
X125144067Y-82205581D01*
X125525020Y-82205581D01*
X125620258Y-82253200D01*
X125667877Y-82300819D01*
X125715496Y-82396057D01*
X125715496Y-82538914D01*
X125667877Y-82634152D01*
X125620258Y-82681771D01*
X125525020Y-82729390D01*
X125144067Y-82729390D01*
X124013934Y-86710781D02*
X123680600Y-86234590D01*
X123442505Y-86710781D02*
X123442505Y-85710781D01*
X123823458Y-85710781D01*
X123918696Y-85758400D01*
X123966315Y-85806019D01*
X124013934Y-85901257D01*
X124013934Y-86044114D01*
X123966315Y-86139352D01*
X123918696Y-86186971D01*
X123823458Y-86234590D01*
X123442505Y-86234590D01*
X124585362Y-86139352D02*
X124490124Y-86091733D01*
X124442505Y-86044114D01*
X124394886Y-85948876D01*
X124394886Y-85901257D01*
X124442505Y-85806019D01*
X124490124Y-85758400D01*
X124585362Y-85710781D01*
X124775839Y-85710781D01*
X124871077Y-85758400D01*
X124918696Y-85806019D01*
X124966315Y-85901257D01*
X124966315Y-85948876D01*
X124918696Y-86044114D01*
X124871077Y-86091733D01*
X124775839Y-86139352D01*
X124585362Y-86139352D01*
X124490124Y-86186971D01*
X124442505Y-86234590D01*
X124394886Y-86329829D01*
X124394886Y-86520305D01*
X124442505Y-86615543D01*
X124490124Y-86663162D01*
X124585362Y-86710781D01*
X124775839Y-86710781D01*
X124871077Y-86663162D01*
X124918696Y-86615543D01*
X124966315Y-86520305D01*
X124966315Y-86329829D01*
X124918696Y-86234590D01*
X124871077Y-86186971D01*
X124775839Y-86139352D01*
X126049162Y-86685381D02*
X125477733Y-86685381D01*
X125763447Y-86685381D02*
X125763447Y-85685381D01*
X125668209Y-85828238D01*
X125572971Y-85923476D01*
X125477733Y-85971095D01*
X126668209Y-85685381D02*
X126763448Y-85685381D01*
X126858686Y-85733000D01*
X126906305Y-85780619D01*
X126953924Y-85875857D01*
X127001543Y-86066333D01*
X127001543Y-86304429D01*
X126953924Y-86494905D01*
X126906305Y-86590143D01*
X126858686Y-86637762D01*
X126763448Y-86685381D01*
X126668209Y-86685381D01*
X126572971Y-86637762D01*
X126525352Y-86590143D01*
X126477733Y-86494905D01*
X126430114Y-86304429D01*
X126430114Y-86066333D01*
X126477733Y-85875857D01*
X126525352Y-85780619D01*
X126572971Y-85733000D01*
X126668209Y-85685381D01*
X127430114Y-86685381D02*
X127430114Y-85685381D01*
X127525352Y-86304429D02*
X127811067Y-86685381D01*
X127811067Y-86018714D02*
X127430114Y-86399667D01*
X154350981Y-90260466D02*
X153874790Y-90593800D01*
X154350981Y-90831895D02*
X153350981Y-90831895D01*
X153350981Y-90450942D01*
X153398600Y-90355704D01*
X153446219Y-90308085D01*
X153541457Y-90260466D01*
X153684314Y-90260466D01*
X153779552Y-90308085D01*
X153827171Y-90355704D01*
X153874790Y-90450942D01*
X153874790Y-90831895D01*
X154350981Y-89784276D02*
X154350981Y-89593800D01*
X154303362Y-89498561D01*
X154255743Y-89450942D01*
X154112886Y-89355704D01*
X153922410Y-89308085D01*
X153541457Y-89308085D01*
X153446219Y-89355704D01*
X153398600Y-89403323D01*
X153350981Y-89498561D01*
X153350981Y-89689038D01*
X153398600Y-89784276D01*
X153446219Y-89831895D01*
X153541457Y-89879514D01*
X153779552Y-89879514D01*
X153874790Y-89831895D01*
X153922410Y-89784276D01*
X153970029Y-89689038D01*
X153970029Y-89498561D01*
X153922410Y-89403323D01*
X153874790Y-89355704D01*
X153779552Y-89308085D01*
X155747981Y-90358838D02*
X155747981Y-90930267D01*
X155747981Y-90644553D02*
X154747981Y-90644553D01*
X154890838Y-90739791D01*
X154986076Y-90835029D01*
X155033695Y-90930267D01*
X154747981Y-89739791D02*
X154747981Y-89644552D01*
X154795600Y-89549314D01*
X154843219Y-89501695D01*
X154938457Y-89454076D01*
X155128933Y-89406457D01*
X155367029Y-89406457D01*
X155557505Y-89454076D01*
X155652743Y-89501695D01*
X155700362Y-89549314D01*
X155747981Y-89644552D01*
X155747981Y-89739791D01*
X155700362Y-89835029D01*
X155652743Y-89882648D01*
X155557505Y-89930267D01*
X155367029Y-89977886D01*
X155128933Y-89977886D01*
X154938457Y-89930267D01*
X154843219Y-89882648D01*
X154795600Y-89835029D01*
X154747981Y-89739791D01*
X155747981Y-88977886D02*
X154747981Y-88977886D01*
X155367029Y-88882648D02*
X155747981Y-88596933D01*
X155081314Y-88596933D02*
X155462267Y-88977886D01*
M02*
