%TF.GenerationSoftware,KiCad,Pcbnew,4.0.6*%
%TF.CreationDate,2017-06-22T12:26:56+02:00*%
%TF.ProjectId,esp8266_irrigation_system,657370383236365F6972726967617469,rev?*%
%TF.FileFunction,Copper,L2,Bot,Signal*%
%FSLAX46Y46*%
G04 Gerber Fmt 4.6, Leading zero omitted, Abs format (unit mm)*
G04 Created by KiCad (PCBNEW 4.0.6) date Thu Jun 22 12:26:56 2017*
%MOMM*%
%LPD*%
G01*
G04 APERTURE LIST*
%ADD10C,0.100000*%
%ADD11C,0.600000*%
%ADD12C,1.600000*%
%ADD13O,1.600000X1.600000*%
%ADD14R,1.800000X1.800000*%
%ADD15O,1.800000X1.800000*%
%ADD16R,3.000000X3.000000*%
%ADD17C,3.000000*%
%ADD18R,1.700000X1.700000*%
%ADD19O,1.700000X1.700000*%
%ADD20C,0.600000*%
%ADD21C,0.250000*%
%ADD22C,1.500000*%
%ADD23C,0.254000*%
G04 APERTURE END LIST*
D10*
D11*
X130549200Y-77603200D03*
X129349200Y-77603200D03*
X128149200Y-77603200D03*
X126949200Y-77603200D03*
X130549200Y-76403200D03*
X129349200Y-76403200D03*
X128149200Y-76403200D03*
X141077800Y-84067200D03*
X139877800Y-84067200D03*
X141077800Y-82867200D03*
X139877800Y-82867200D03*
X141077800Y-81667200D03*
X139877800Y-81667200D03*
X141077800Y-80467200D03*
X161556400Y-103726800D03*
X160356400Y-103726800D03*
X159156400Y-103726800D03*
X161556400Y-102526800D03*
X160356400Y-102526800D03*
X159156400Y-102526800D03*
X161556400Y-101326800D03*
X160356400Y-101326800D03*
X159156400Y-101326800D03*
X161556400Y-100126800D03*
X160356400Y-100126800D03*
D12*
X143865600Y-103098600D03*
D13*
X133705600Y-103098600D03*
D14*
X128117600Y-69570600D03*
D15*
X117957600Y-69570600D03*
D16*
X125349000Y-62585600D03*
D17*
X120269000Y-62585600D03*
D16*
X137033000Y-62636400D03*
D17*
X131953000Y-62636400D03*
D18*
X160655000Y-69291200D03*
D19*
X160655000Y-71831200D03*
X158115000Y-69291200D03*
X158115000Y-71831200D03*
X155575000Y-69291200D03*
X155575000Y-71831200D03*
D18*
X154432000Y-78206600D03*
D19*
X156972000Y-78206600D03*
X159512000Y-78206600D03*
D18*
X127127000Y-90322400D03*
D19*
X124587000Y-90322400D03*
D18*
X149936200Y-103073200D03*
D19*
X147396200Y-103073200D03*
D18*
X134747000Y-68834000D03*
D19*
X134747000Y-71374000D03*
D16*
X148717000Y-62636400D03*
D17*
X143637000Y-62636400D03*
D18*
X127127000Y-99872800D03*
D19*
X124587000Y-99872800D03*
X127127000Y-97332800D03*
X124587000Y-97332800D03*
X127127000Y-94792800D03*
X124587000Y-94792800D03*
D12*
X117729000Y-82804000D03*
D13*
X127889000Y-82804000D03*
D11*
X159156400Y-100126800D03*
X139877800Y-80467200D03*
X126949200Y-76403200D03*
X155778200Y-94792800D03*
X146862800Y-94691200D03*
X149199600Y-75336400D03*
X136601200Y-75285600D03*
X152349200Y-75463400D03*
X150977600Y-79451200D03*
X132994400Y-90297000D03*
X137845800Y-92633800D03*
X147777200Y-86563200D03*
X132511800Y-92735400D03*
D20*
X158115000Y-69291200D02*
X158115000Y-68046600D01*
X151866600Y-62636400D02*
X148717000Y-62636400D01*
X155117800Y-65887600D02*
X151866600Y-62636400D01*
X155956000Y-65887600D02*
X155117800Y-65887600D01*
X158115000Y-68046600D02*
X155956000Y-65887600D01*
D21*
X146862800Y-94691200D02*
X155676600Y-94691200D01*
X155676600Y-94691200D02*
X155778200Y-94792800D01*
D22*
X131902200Y-62585600D02*
X131953000Y-62636400D01*
D21*
X136601200Y-75285600D02*
X149148800Y-75285600D01*
X149148800Y-75285600D02*
X149199600Y-75336400D01*
X150977600Y-76530200D02*
X152044400Y-75463400D01*
X152044400Y-75463400D02*
X152349200Y-75463400D01*
X150977600Y-79451200D02*
X150977600Y-76530200D01*
X132994400Y-90297000D02*
X127889000Y-85191600D01*
X127889000Y-85191600D02*
X127889000Y-82804000D01*
D20*
X137820400Y-94437200D02*
X137820400Y-92659200D01*
X137820400Y-92659200D02*
X137845800Y-92633800D01*
X133705600Y-98552000D02*
X137820400Y-94437200D01*
X133705600Y-103098600D02*
X133705600Y-98552000D01*
D21*
X145669000Y-91338400D02*
X147777200Y-89230200D01*
X147777200Y-89230200D02*
X147777200Y-86563200D01*
X133908800Y-91338400D02*
X145669000Y-91338400D01*
X132511800Y-92735400D02*
X133908800Y-91338400D01*
D23*
G36*
X162713600Y-105741400D02*
X115568800Y-105741400D01*
X115568800Y-102855419D01*
X116636613Y-102855419D01*
X116976155Y-103677172D01*
X117604321Y-104306436D01*
X118425481Y-104647411D01*
X119314619Y-104648187D01*
X120136372Y-104308645D01*
X120765636Y-103680479D01*
X121106611Y-102859319D01*
X121107387Y-101970181D01*
X120767845Y-101148428D01*
X120139679Y-100519164D01*
X119318519Y-100178189D01*
X118429381Y-100177413D01*
X117607628Y-100516955D01*
X116978364Y-101145121D01*
X116637389Y-101966281D01*
X116636613Y-102855419D01*
X115568800Y-102855419D01*
X115568800Y-97332800D01*
X123072907Y-97332800D01*
X123185946Y-97901085D01*
X123507853Y-98382854D01*
X123837026Y-98602800D01*
X123507853Y-98822746D01*
X123185946Y-99304515D01*
X123072907Y-99872800D01*
X123185946Y-100441085D01*
X123507853Y-100922854D01*
X123989622Y-101244761D01*
X124557907Y-101357800D01*
X124616093Y-101357800D01*
X125184378Y-101244761D01*
X125666147Y-100922854D01*
X125666971Y-100921621D01*
X125673838Y-100958117D01*
X125812910Y-101174241D01*
X126025110Y-101319231D01*
X126277000Y-101370240D01*
X127977000Y-101370240D01*
X128212317Y-101325962D01*
X128428441Y-101186890D01*
X128573431Y-100974690D01*
X128624440Y-100722800D01*
X128624440Y-99022800D01*
X128580162Y-98787483D01*
X128441090Y-98571359D01*
X128228890Y-98426369D01*
X128161459Y-98412714D01*
X128206147Y-98382854D01*
X128528054Y-97901085D01*
X128641093Y-97332800D01*
X128528054Y-96764515D01*
X128206147Y-96282746D01*
X127876974Y-96062800D01*
X128206147Y-95842854D01*
X128528054Y-95361085D01*
X128641093Y-94792800D01*
X128528054Y-94224515D01*
X128206147Y-93742746D01*
X127724378Y-93420839D01*
X127156093Y-93307800D01*
X127097907Y-93307800D01*
X126529622Y-93420839D01*
X126047853Y-93742746D01*
X125858655Y-94025901D01*
X125858645Y-94025876D01*
X125468358Y-93597617D01*
X124943892Y-93351314D01*
X124714000Y-93471981D01*
X124714000Y-94665800D01*
X124734000Y-94665800D01*
X124734000Y-94919800D01*
X124714000Y-94919800D01*
X124714000Y-94939800D01*
X124460000Y-94939800D01*
X124460000Y-94919800D01*
X123266845Y-94919800D01*
X123145524Y-95149690D01*
X123315355Y-95559724D01*
X123705642Y-95987983D01*
X123848553Y-96055098D01*
X123507853Y-96282746D01*
X123185946Y-96764515D01*
X123072907Y-97332800D01*
X115568800Y-97332800D01*
X115568800Y-94435910D01*
X123145524Y-94435910D01*
X123266845Y-94665800D01*
X124460000Y-94665800D01*
X124460000Y-93471981D01*
X124230108Y-93351314D01*
X123705642Y-93597617D01*
X123315355Y-94025876D01*
X123145524Y-94435910D01*
X115568800Y-94435910D01*
X115568800Y-90679292D01*
X123145514Y-90679292D01*
X123391817Y-91203758D01*
X123820076Y-91594045D01*
X124230110Y-91763876D01*
X124460000Y-91642555D01*
X124460000Y-90449400D01*
X123266181Y-90449400D01*
X123145514Y-90679292D01*
X115568800Y-90679292D01*
X115568800Y-89965508D01*
X123145514Y-89965508D01*
X123266181Y-90195400D01*
X124460000Y-90195400D01*
X124460000Y-89002245D01*
X124714000Y-89002245D01*
X124714000Y-90195400D01*
X124734000Y-90195400D01*
X124734000Y-90449400D01*
X124714000Y-90449400D01*
X124714000Y-91642555D01*
X124943890Y-91763876D01*
X125353924Y-91594045D01*
X125656937Y-91317899D01*
X125673838Y-91407717D01*
X125812910Y-91623841D01*
X126025110Y-91768831D01*
X126277000Y-91819840D01*
X127977000Y-91819840D01*
X128212317Y-91775562D01*
X128428441Y-91636490D01*
X128573431Y-91424290D01*
X128624440Y-91172400D01*
X128624440Y-89472400D01*
X128580162Y-89237083D01*
X128441090Y-89020959D01*
X128228890Y-88875969D01*
X127977000Y-88824960D01*
X126277000Y-88824960D01*
X126041683Y-88869238D01*
X125825559Y-89008310D01*
X125680569Y-89220510D01*
X125658699Y-89328507D01*
X125353924Y-89050755D01*
X124943890Y-88880924D01*
X124714000Y-89002245D01*
X124460000Y-89002245D01*
X124230110Y-88880924D01*
X123820076Y-89050755D01*
X123391817Y-89441042D01*
X123145514Y-89965508D01*
X115568800Y-89965508D01*
X115568800Y-83088187D01*
X116293752Y-83088187D01*
X116511757Y-83615800D01*
X116915077Y-84019824D01*
X117442309Y-84238750D01*
X118013187Y-84239248D01*
X118540800Y-84021243D01*
X118944824Y-83617923D01*
X119163750Y-83090691D01*
X119164000Y-82804000D01*
X126425887Y-82804000D01*
X126535120Y-83353151D01*
X126846189Y-83818698D01*
X127129000Y-84007667D01*
X127129000Y-85191600D01*
X127186852Y-85482439D01*
X127351599Y-85729001D01*
X132059278Y-90436680D01*
X132059238Y-90482167D01*
X132201283Y-90825943D01*
X132464073Y-91089192D01*
X132807601Y-91231838D01*
X132940444Y-91231954D01*
X132372120Y-91800278D01*
X132326633Y-91800238D01*
X131982857Y-91942283D01*
X131719608Y-92205073D01*
X131576962Y-92548601D01*
X131576638Y-92920567D01*
X131718683Y-93264343D01*
X131981473Y-93527592D01*
X132325001Y-93670238D01*
X132696967Y-93670562D01*
X133040743Y-93528517D01*
X133303992Y-93265727D01*
X133446638Y-92922199D01*
X133446679Y-92875323D01*
X134223602Y-92098400D01*
X137058690Y-92098400D01*
X137053608Y-92103473D01*
X136995807Y-92242674D01*
X136956573Y-92301391D01*
X136942917Y-92370046D01*
X136910962Y-92447001D01*
X136910889Y-92531060D01*
X136885400Y-92659200D01*
X136885400Y-94049910D01*
X133044455Y-97890855D01*
X132841773Y-98194191D01*
X132770600Y-98552000D01*
X132770600Y-102011865D01*
X132662789Y-102083902D01*
X132351720Y-102549449D01*
X132242487Y-103098600D01*
X132351720Y-103647751D01*
X132662789Y-104113298D01*
X133128336Y-104424367D01*
X133677487Y-104533600D01*
X133733713Y-104533600D01*
X134282864Y-104424367D01*
X134748411Y-104113298D01*
X135059480Y-103647751D01*
X135112184Y-103382787D01*
X142430352Y-103382787D01*
X142648357Y-103910400D01*
X143051677Y-104314424D01*
X143578909Y-104533350D01*
X144149787Y-104533848D01*
X144677400Y-104315843D01*
X145081424Y-103912523D01*
X145300350Y-103385291D01*
X145300647Y-103044107D01*
X145911200Y-103044107D01*
X145911200Y-103102293D01*
X146024239Y-103670578D01*
X146346146Y-104152347D01*
X146827915Y-104474254D01*
X147396200Y-104587293D01*
X147964485Y-104474254D01*
X148446254Y-104152347D01*
X148475603Y-104108423D01*
X148547873Y-104282898D01*
X148726501Y-104461527D01*
X148959890Y-104558200D01*
X149650450Y-104558200D01*
X149809200Y-104399450D01*
X149809200Y-103200200D01*
X150063200Y-103200200D01*
X150063200Y-104399450D01*
X150221950Y-104558200D01*
X150912510Y-104558200D01*
X151145899Y-104461527D01*
X151324527Y-104282898D01*
X151421200Y-104049509D01*
X151421200Y-103358950D01*
X151262450Y-103200200D01*
X150063200Y-103200200D01*
X149809200Y-103200200D01*
X149789200Y-103200200D01*
X149789200Y-102946200D01*
X149809200Y-102946200D01*
X149809200Y-101746950D01*
X150063200Y-101746950D01*
X150063200Y-102946200D01*
X151262450Y-102946200D01*
X151421200Y-102787450D01*
X151421200Y-102096891D01*
X151324527Y-101863502D01*
X151145899Y-101684873D01*
X150912510Y-101588200D01*
X150221950Y-101588200D01*
X150063200Y-101746950D01*
X149809200Y-101746950D01*
X149650450Y-101588200D01*
X148959890Y-101588200D01*
X148726501Y-101684873D01*
X148547873Y-101863502D01*
X148475603Y-102037977D01*
X148446254Y-101994053D01*
X147964485Y-101672146D01*
X147396200Y-101559107D01*
X146827915Y-101672146D01*
X146346146Y-101994053D01*
X146024239Y-102475822D01*
X145911200Y-103044107D01*
X145300647Y-103044107D01*
X145300848Y-102814413D01*
X145082843Y-102286800D01*
X144679523Y-101882776D01*
X144152291Y-101663850D01*
X143581413Y-101663352D01*
X143053800Y-101881357D01*
X142649776Y-102284677D01*
X142430850Y-102811909D01*
X142430352Y-103382787D01*
X135112184Y-103382787D01*
X135168713Y-103098600D01*
X135059480Y-102549449D01*
X134748411Y-102083902D01*
X134640600Y-102011865D01*
X134640600Y-98939290D01*
X138481545Y-95098345D01*
X138629865Y-94876367D01*
X145927638Y-94876367D01*
X146069683Y-95220143D01*
X146332473Y-95483392D01*
X146676001Y-95626038D01*
X147047967Y-95626362D01*
X147391743Y-95484317D01*
X147424918Y-95451200D01*
X155114314Y-95451200D01*
X155247873Y-95584992D01*
X155591401Y-95727638D01*
X155963367Y-95727962D01*
X156307143Y-95585917D01*
X156570392Y-95323127D01*
X156713038Y-94979599D01*
X156713362Y-94607633D01*
X156571317Y-94263857D01*
X156308527Y-94000608D01*
X155964999Y-93857962D01*
X155593033Y-93857638D01*
X155414999Y-93931200D01*
X147425263Y-93931200D01*
X147393127Y-93899008D01*
X147049599Y-93756362D01*
X146677633Y-93756038D01*
X146333857Y-93898083D01*
X146070608Y-94160873D01*
X145927962Y-94504401D01*
X145927638Y-94876367D01*
X138629865Y-94876367D01*
X138684227Y-94795009D01*
X138755400Y-94437200D01*
X138755400Y-92881379D01*
X138780638Y-92820599D01*
X138780962Y-92448633D01*
X138638917Y-92104857D01*
X138632471Y-92098400D01*
X145669000Y-92098400D01*
X145959839Y-92040548D01*
X146206401Y-91875801D01*
X148314601Y-89767601D01*
X148479348Y-89521039D01*
X148537200Y-89230200D01*
X148537200Y-87125663D01*
X148569392Y-87093527D01*
X148712038Y-86749999D01*
X148712362Y-86378033D01*
X148570317Y-86034257D01*
X148307527Y-85771008D01*
X147963999Y-85628362D01*
X147592033Y-85628038D01*
X147248257Y-85770083D01*
X146985008Y-86032873D01*
X146842362Y-86376401D01*
X146842038Y-86748367D01*
X146984083Y-87092143D01*
X147017200Y-87125318D01*
X147017200Y-88915398D01*
X145354198Y-90578400D01*
X133908800Y-90578400D01*
X133888259Y-90582486D01*
X133929238Y-90483799D01*
X133929562Y-90111833D01*
X133787517Y-89768057D01*
X133524727Y-89504808D01*
X133181199Y-89362162D01*
X133134323Y-89362121D01*
X128649000Y-84876798D01*
X128649000Y-84007667D01*
X128931811Y-83818698D01*
X129242880Y-83353151D01*
X129352113Y-82804000D01*
X129242880Y-82254849D01*
X128931811Y-81789302D01*
X128466264Y-81478233D01*
X127917113Y-81369000D01*
X127860887Y-81369000D01*
X127311736Y-81478233D01*
X126846189Y-81789302D01*
X126535120Y-82254849D01*
X126425887Y-82804000D01*
X119164000Y-82804000D01*
X119164248Y-82519813D01*
X118946243Y-81992200D01*
X118542923Y-81588176D01*
X118015691Y-81369250D01*
X117444813Y-81368752D01*
X116917200Y-81586757D01*
X116513176Y-81990077D01*
X116294250Y-82517309D01*
X116293752Y-83088187D01*
X115568800Y-83088187D01*
X115568800Y-80652367D01*
X138942638Y-80652367D01*
X139084683Y-80996143D01*
X139155510Y-81067093D01*
X139085608Y-81136873D01*
X138942962Y-81480401D01*
X138942638Y-81852367D01*
X139084683Y-82196143D01*
X139155510Y-82267093D01*
X139085608Y-82336873D01*
X138942962Y-82680401D01*
X138942638Y-83052367D01*
X139084683Y-83396143D01*
X139155510Y-83467093D01*
X139085608Y-83536873D01*
X138942962Y-83880401D01*
X138942638Y-84252367D01*
X139084683Y-84596143D01*
X139347473Y-84859392D01*
X139691001Y-85002038D01*
X140062967Y-85002362D01*
X140406743Y-84860317D01*
X140477693Y-84789490D01*
X140547473Y-84859392D01*
X140891001Y-85002038D01*
X141262967Y-85002362D01*
X141606743Y-84860317D01*
X141869992Y-84597527D01*
X142012638Y-84253999D01*
X142012962Y-83882033D01*
X141870917Y-83538257D01*
X141800090Y-83467307D01*
X141869992Y-83397527D01*
X142012638Y-83053999D01*
X142012962Y-82682033D01*
X141870917Y-82338257D01*
X141800090Y-82267307D01*
X141869992Y-82197527D01*
X142012638Y-81853999D01*
X142012962Y-81482033D01*
X141870917Y-81138257D01*
X141800090Y-81067307D01*
X141869992Y-80997527D01*
X142012638Y-80653999D01*
X142012962Y-80282033D01*
X141870917Y-79938257D01*
X141608127Y-79675008D01*
X141515070Y-79636367D01*
X150042438Y-79636367D01*
X150184483Y-79980143D01*
X150447273Y-80243392D01*
X150790801Y-80386038D01*
X151162767Y-80386362D01*
X151506543Y-80244317D01*
X151769792Y-79981527D01*
X151912438Y-79637999D01*
X151912762Y-79266033D01*
X151770717Y-78922257D01*
X151737600Y-78889082D01*
X151737600Y-77356600D01*
X152934560Y-77356600D01*
X152934560Y-79056600D01*
X152978838Y-79291917D01*
X153117910Y-79508041D01*
X153330110Y-79653031D01*
X153582000Y-79704040D01*
X155282000Y-79704040D01*
X155517317Y-79659762D01*
X155733441Y-79520690D01*
X155878431Y-79308490D01*
X155892086Y-79241059D01*
X155921946Y-79285747D01*
X156403715Y-79607654D01*
X156972000Y-79720693D01*
X157540285Y-79607654D01*
X158022054Y-79285747D01*
X158249702Y-78945047D01*
X158316817Y-79087958D01*
X158745076Y-79478245D01*
X159155110Y-79648076D01*
X159385000Y-79526755D01*
X159385000Y-78333600D01*
X159639000Y-78333600D01*
X159639000Y-79526755D01*
X159868890Y-79648076D01*
X160278924Y-79478245D01*
X160707183Y-79087958D01*
X160953486Y-78563492D01*
X160832819Y-78333600D01*
X159639000Y-78333600D01*
X159385000Y-78333600D01*
X159365000Y-78333600D01*
X159365000Y-78079600D01*
X159385000Y-78079600D01*
X159385000Y-76886445D01*
X159639000Y-76886445D01*
X159639000Y-78079600D01*
X160832819Y-78079600D01*
X160953486Y-77849708D01*
X160707183Y-77325242D01*
X160278924Y-76934955D01*
X159868890Y-76765124D01*
X159639000Y-76886445D01*
X159385000Y-76886445D01*
X159155110Y-76765124D01*
X158745076Y-76934955D01*
X158316817Y-77325242D01*
X158249702Y-77468153D01*
X158022054Y-77127453D01*
X157540285Y-76805546D01*
X156972000Y-76692507D01*
X156403715Y-76805546D01*
X155921946Y-77127453D01*
X155894150Y-77169052D01*
X155885162Y-77121283D01*
X155746090Y-76905159D01*
X155533890Y-76760169D01*
X155282000Y-76709160D01*
X153582000Y-76709160D01*
X153346683Y-76753438D01*
X153130559Y-76892510D01*
X152985569Y-77104710D01*
X152934560Y-77356600D01*
X151737600Y-77356600D01*
X151737600Y-76845002D01*
X152184345Y-76398257D01*
X152534367Y-76398562D01*
X152878143Y-76256517D01*
X153141392Y-75993727D01*
X153284038Y-75650199D01*
X153284362Y-75278233D01*
X153142317Y-74934457D01*
X152879527Y-74671208D01*
X152535999Y-74528562D01*
X152164033Y-74528238D01*
X151820257Y-74670283D01*
X151679672Y-74810623D01*
X151506999Y-74925999D01*
X150440199Y-75992799D01*
X150275452Y-76239361D01*
X150217600Y-76530200D01*
X150217600Y-78888737D01*
X150185408Y-78920873D01*
X150042762Y-79264401D01*
X150042438Y-79636367D01*
X141515070Y-79636367D01*
X141264599Y-79532362D01*
X140892633Y-79532038D01*
X140548857Y-79674083D01*
X140477907Y-79744910D01*
X140408127Y-79675008D01*
X140064599Y-79532362D01*
X139692633Y-79532038D01*
X139348857Y-79674083D01*
X139085608Y-79936873D01*
X138942962Y-80280401D01*
X138942638Y-80652367D01*
X115568800Y-80652367D01*
X115568800Y-76588367D01*
X126014038Y-76588367D01*
X126156083Y-76932143D01*
X126226910Y-77003093D01*
X126157008Y-77072873D01*
X126014362Y-77416401D01*
X126014038Y-77788367D01*
X126156083Y-78132143D01*
X126418873Y-78395392D01*
X126762401Y-78538038D01*
X127134367Y-78538362D01*
X127478143Y-78396317D01*
X127549093Y-78325490D01*
X127618873Y-78395392D01*
X127962401Y-78538038D01*
X128334367Y-78538362D01*
X128678143Y-78396317D01*
X128749093Y-78325490D01*
X128818873Y-78395392D01*
X129162401Y-78538038D01*
X129534367Y-78538362D01*
X129878143Y-78396317D01*
X129949093Y-78325490D01*
X130018873Y-78395392D01*
X130362401Y-78538038D01*
X130734367Y-78538362D01*
X131078143Y-78396317D01*
X131341392Y-78133527D01*
X131484038Y-77789999D01*
X131484362Y-77418033D01*
X131342317Y-77074257D01*
X131271490Y-77003307D01*
X131341392Y-76933527D01*
X131484038Y-76589999D01*
X131484362Y-76218033D01*
X131342317Y-75874257D01*
X131079527Y-75611008D01*
X130741791Y-75470767D01*
X135666038Y-75470767D01*
X135808083Y-75814543D01*
X136070873Y-76077792D01*
X136414401Y-76220438D01*
X136786367Y-76220762D01*
X137130143Y-76078717D01*
X137163318Y-76045600D01*
X148586426Y-76045600D01*
X148669273Y-76128592D01*
X149012801Y-76271238D01*
X149384767Y-76271562D01*
X149728543Y-76129517D01*
X149991792Y-75866727D01*
X150134438Y-75523199D01*
X150134762Y-75151233D01*
X149992717Y-74807457D01*
X149729927Y-74544208D01*
X149386399Y-74401562D01*
X149014433Y-74401238D01*
X148713453Y-74525600D01*
X137163663Y-74525600D01*
X137131527Y-74493408D01*
X136787999Y-74350762D01*
X136416033Y-74350438D01*
X136072257Y-74492483D01*
X135809008Y-74755273D01*
X135666362Y-75098801D01*
X135666038Y-75470767D01*
X130741791Y-75470767D01*
X130735999Y-75468362D01*
X130364033Y-75468038D01*
X130020257Y-75610083D01*
X129949307Y-75680910D01*
X129879527Y-75611008D01*
X129535999Y-75468362D01*
X129164033Y-75468038D01*
X128820257Y-75610083D01*
X128749307Y-75680910D01*
X128679527Y-75611008D01*
X128335999Y-75468362D01*
X127964033Y-75468038D01*
X127620257Y-75610083D01*
X127549307Y-75680910D01*
X127479527Y-75611008D01*
X127135999Y-75468362D01*
X126764033Y-75468038D01*
X126420257Y-75610083D01*
X126157008Y-75872873D01*
X126014362Y-76216401D01*
X126014038Y-76588367D01*
X115568800Y-76588367D01*
X115568800Y-71374000D01*
X133232907Y-71374000D01*
X133345946Y-71942285D01*
X133667853Y-72424054D01*
X134149622Y-72745961D01*
X134717907Y-72859000D01*
X134776093Y-72859000D01*
X135344378Y-72745961D01*
X135826147Y-72424054D01*
X136148054Y-71942285D01*
X136261093Y-71374000D01*
X136148054Y-70805715D01*
X135826147Y-70323946D01*
X135782223Y-70294597D01*
X135956698Y-70222327D01*
X136135327Y-70043699D01*
X136232000Y-69810310D01*
X136232000Y-69119750D01*
X136073250Y-68961000D01*
X134874000Y-68961000D01*
X134874000Y-68981000D01*
X134620000Y-68981000D01*
X134620000Y-68961000D01*
X133420750Y-68961000D01*
X133262000Y-69119750D01*
X133262000Y-69810310D01*
X133358673Y-70043699D01*
X133537302Y-70222327D01*
X133711777Y-70294597D01*
X133667853Y-70323946D01*
X133345946Y-70805715D01*
X133232907Y-71374000D01*
X115568800Y-71374000D01*
X115568800Y-69570600D01*
X116392528Y-69570600D01*
X116509373Y-70158019D01*
X116842119Y-70656009D01*
X117340109Y-70988755D01*
X117927528Y-71105600D01*
X117987672Y-71105600D01*
X118575091Y-70988755D01*
X119073081Y-70656009D01*
X119405827Y-70158019D01*
X119522672Y-69570600D01*
X119405827Y-68983181D01*
X119196968Y-68670600D01*
X126570160Y-68670600D01*
X126570160Y-70470600D01*
X126614438Y-70705917D01*
X126753510Y-70922041D01*
X126965710Y-71067031D01*
X127217600Y-71118040D01*
X129017600Y-71118040D01*
X129252917Y-71073762D01*
X129469041Y-70934690D01*
X129614031Y-70722490D01*
X129665040Y-70470600D01*
X129665040Y-68934308D01*
X154133514Y-68934308D01*
X154254181Y-69164200D01*
X155448000Y-69164200D01*
X155448000Y-67971045D01*
X155218110Y-67849724D01*
X154808076Y-68019555D01*
X154379817Y-68409842D01*
X154133514Y-68934308D01*
X129665040Y-68934308D01*
X129665040Y-68670600D01*
X129620762Y-68435283D01*
X129481690Y-68219159D01*
X129269490Y-68074169D01*
X129017600Y-68023160D01*
X127217600Y-68023160D01*
X126982283Y-68067438D01*
X126766159Y-68206510D01*
X126621169Y-68418710D01*
X126570160Y-68670600D01*
X119196968Y-68670600D01*
X119073081Y-68485191D01*
X118575091Y-68152445D01*
X117987672Y-68035600D01*
X117927528Y-68035600D01*
X117340109Y-68152445D01*
X116842119Y-68485191D01*
X116509373Y-68983181D01*
X116392528Y-69570600D01*
X115568800Y-69570600D01*
X115568800Y-67857690D01*
X133262000Y-67857690D01*
X133262000Y-68548250D01*
X133420750Y-68707000D01*
X134620000Y-68707000D01*
X134620000Y-67507750D01*
X134874000Y-67507750D01*
X134874000Y-68707000D01*
X136073250Y-68707000D01*
X136232000Y-68548250D01*
X136232000Y-67857690D01*
X136135327Y-67624301D01*
X135956698Y-67445673D01*
X135723309Y-67349000D01*
X135032750Y-67349000D01*
X134874000Y-67507750D01*
X134620000Y-67507750D01*
X134461250Y-67349000D01*
X133770691Y-67349000D01*
X133537302Y-67445673D01*
X133358673Y-67624301D01*
X133262000Y-67857690D01*
X115568800Y-67857690D01*
X115568800Y-63008415D01*
X118133630Y-63008415D01*
X118457980Y-63793400D01*
X119058041Y-64394509D01*
X119842459Y-64720228D01*
X120691815Y-64720970D01*
X121476800Y-64396620D01*
X122077909Y-63796559D01*
X122403628Y-63012141D01*
X122404370Y-62162785D01*
X122080020Y-61377800D01*
X121788330Y-61085600D01*
X123201560Y-61085600D01*
X123201560Y-64085600D01*
X123245838Y-64320917D01*
X123384910Y-64537041D01*
X123597110Y-64682031D01*
X123849000Y-64733040D01*
X126849000Y-64733040D01*
X127084317Y-64688762D01*
X127300441Y-64549690D01*
X127445431Y-64337490D01*
X127496440Y-64085600D01*
X127496440Y-63059215D01*
X129817630Y-63059215D01*
X130141980Y-63844200D01*
X130742041Y-64445309D01*
X131526459Y-64771028D01*
X132375815Y-64771770D01*
X133160800Y-64447420D01*
X133761909Y-63847359D01*
X134087628Y-63062941D01*
X134087750Y-62922150D01*
X134898000Y-62922150D01*
X134898000Y-64262710D01*
X134994673Y-64496099D01*
X135173302Y-64674727D01*
X135406691Y-64771400D01*
X136747250Y-64771400D01*
X136906000Y-64612650D01*
X136906000Y-62763400D01*
X137160000Y-62763400D01*
X137160000Y-64612650D01*
X137318750Y-64771400D01*
X138659309Y-64771400D01*
X138892698Y-64674727D01*
X139071327Y-64496099D01*
X139168000Y-64262710D01*
X139168000Y-64150370D01*
X142302635Y-64150370D01*
X142462418Y-64469139D01*
X143253187Y-64779123D01*
X144102387Y-64762897D01*
X144811582Y-64469139D01*
X144971365Y-64150370D01*
X143637000Y-62816005D01*
X142302635Y-64150370D01*
X139168000Y-64150370D01*
X139168000Y-62922150D01*
X139009250Y-62763400D01*
X137160000Y-62763400D01*
X136906000Y-62763400D01*
X135056750Y-62763400D01*
X134898000Y-62922150D01*
X134087750Y-62922150D01*
X134088370Y-62213585D01*
X133764020Y-61428600D01*
X133346240Y-61010090D01*
X134898000Y-61010090D01*
X134898000Y-62350650D01*
X135056750Y-62509400D01*
X136906000Y-62509400D01*
X136906000Y-60660150D01*
X137160000Y-60660150D01*
X137160000Y-62509400D01*
X139009250Y-62509400D01*
X139168000Y-62350650D01*
X139168000Y-62252587D01*
X141494277Y-62252587D01*
X141510503Y-63101787D01*
X141804261Y-63810982D01*
X142123030Y-63970765D01*
X143457395Y-62636400D01*
X143816605Y-62636400D01*
X145150970Y-63970765D01*
X145469739Y-63810982D01*
X145779723Y-63020213D01*
X145763497Y-62171013D01*
X145469739Y-61461818D01*
X145150970Y-61302035D01*
X143816605Y-62636400D01*
X143457395Y-62636400D01*
X142123030Y-61302035D01*
X141804261Y-61461818D01*
X141494277Y-62252587D01*
X139168000Y-62252587D01*
X139168000Y-61122430D01*
X142302635Y-61122430D01*
X143637000Y-62456795D01*
X144957395Y-61136400D01*
X146569560Y-61136400D01*
X146569560Y-64136400D01*
X146613838Y-64371717D01*
X146752910Y-64587841D01*
X146965110Y-64732831D01*
X147217000Y-64783840D01*
X150217000Y-64783840D01*
X150452317Y-64739562D01*
X150668441Y-64600490D01*
X150813431Y-64388290D01*
X150864440Y-64136400D01*
X150864440Y-63571400D01*
X151479310Y-63571400D01*
X154456655Y-66548745D01*
X154759991Y-66751427D01*
X155117800Y-66822600D01*
X155568710Y-66822600D01*
X157022175Y-68276065D01*
X156837298Y-68552753D01*
X156770183Y-68409842D01*
X156341924Y-68019555D01*
X155931890Y-67849724D01*
X155702000Y-67971045D01*
X155702000Y-69164200D01*
X155722000Y-69164200D01*
X155722000Y-69418200D01*
X155702000Y-69418200D01*
X155702000Y-69438200D01*
X155448000Y-69438200D01*
X155448000Y-69418200D01*
X154254181Y-69418200D01*
X154133514Y-69648092D01*
X154379817Y-70172558D01*
X154808076Y-70562845D01*
X154808101Y-70562855D01*
X154524946Y-70752053D01*
X154203039Y-71233822D01*
X154090000Y-71802107D01*
X154090000Y-71860293D01*
X154203039Y-72428578D01*
X154524946Y-72910347D01*
X155006715Y-73232254D01*
X155575000Y-73345293D01*
X156143285Y-73232254D01*
X156625054Y-72910347D01*
X156845000Y-72581174D01*
X157064946Y-72910347D01*
X157546715Y-73232254D01*
X158115000Y-73345293D01*
X158683285Y-73232254D01*
X159165054Y-72910347D01*
X159385000Y-72581174D01*
X159604946Y-72910347D01*
X160086715Y-73232254D01*
X160655000Y-73345293D01*
X161223285Y-73232254D01*
X161705054Y-72910347D01*
X162026961Y-72428578D01*
X162140000Y-71860293D01*
X162140000Y-71802107D01*
X162026961Y-71233822D01*
X161705054Y-70752053D01*
X161703821Y-70751229D01*
X161740317Y-70744362D01*
X161956441Y-70605290D01*
X162101431Y-70393090D01*
X162152440Y-70141200D01*
X162152440Y-68441200D01*
X162108162Y-68205883D01*
X161969090Y-67989759D01*
X161756890Y-67844769D01*
X161505000Y-67793760D01*
X159805000Y-67793760D01*
X159569683Y-67838038D01*
X159353559Y-67977110D01*
X159208569Y-68189310D01*
X159194914Y-68256741D01*
X159165054Y-68212053D01*
X159050000Y-68135177D01*
X159050000Y-68046600D01*
X158978827Y-67688791D01*
X158776145Y-67385455D01*
X156617145Y-65226455D01*
X156313809Y-65023773D01*
X155956000Y-64952600D01*
X155505090Y-64952600D01*
X152717109Y-62164619D01*
X155295413Y-62164619D01*
X155634955Y-62986372D01*
X156263121Y-63615636D01*
X157084281Y-63956611D01*
X157973419Y-63957387D01*
X158795172Y-63617845D01*
X159424436Y-62989679D01*
X159765411Y-62168519D01*
X159766187Y-61279381D01*
X159426645Y-60457628D01*
X158798479Y-59828364D01*
X157977319Y-59487389D01*
X157088181Y-59486613D01*
X156266428Y-59826155D01*
X155637164Y-60454321D01*
X155296189Y-61275481D01*
X155295413Y-62164619D01*
X152717109Y-62164619D01*
X152527745Y-61975255D01*
X152224409Y-61772573D01*
X151866600Y-61701400D01*
X150864440Y-61701400D01*
X150864440Y-61136400D01*
X150820162Y-60901083D01*
X150681090Y-60684959D01*
X150468890Y-60539969D01*
X150217000Y-60488960D01*
X147217000Y-60488960D01*
X146981683Y-60533238D01*
X146765559Y-60672310D01*
X146620569Y-60884510D01*
X146569560Y-61136400D01*
X144957395Y-61136400D01*
X144971365Y-61122430D01*
X144811582Y-60803661D01*
X144020813Y-60493677D01*
X143171613Y-60509903D01*
X142462418Y-60803661D01*
X142302635Y-61122430D01*
X139168000Y-61122430D01*
X139168000Y-61010090D01*
X139071327Y-60776701D01*
X138892698Y-60598073D01*
X138659309Y-60501400D01*
X137318750Y-60501400D01*
X137160000Y-60660150D01*
X136906000Y-60660150D01*
X136747250Y-60501400D01*
X135406691Y-60501400D01*
X135173302Y-60598073D01*
X134994673Y-60776701D01*
X134898000Y-61010090D01*
X133346240Y-61010090D01*
X133163959Y-60827491D01*
X132379541Y-60501772D01*
X131530185Y-60501030D01*
X130745200Y-60825380D01*
X130144091Y-61425441D01*
X129818372Y-62209859D01*
X129817630Y-63059215D01*
X127496440Y-63059215D01*
X127496440Y-61085600D01*
X127452162Y-60850283D01*
X127313090Y-60634159D01*
X127100890Y-60489169D01*
X126849000Y-60438160D01*
X123849000Y-60438160D01*
X123613683Y-60482438D01*
X123397559Y-60621510D01*
X123252569Y-60833710D01*
X123201560Y-61085600D01*
X121788330Y-61085600D01*
X121479959Y-60776691D01*
X120695541Y-60450972D01*
X119846185Y-60450230D01*
X119061200Y-60774580D01*
X118460091Y-61374641D01*
X118134372Y-62159059D01*
X118133630Y-63008415D01*
X115568800Y-63008415D01*
X115568800Y-57199600D01*
X162713600Y-57199600D01*
X162713600Y-105741400D01*
X162713600Y-105741400D01*
G37*
X162713600Y-105741400D02*
X115568800Y-105741400D01*
X115568800Y-102855419D01*
X116636613Y-102855419D01*
X116976155Y-103677172D01*
X117604321Y-104306436D01*
X118425481Y-104647411D01*
X119314619Y-104648187D01*
X120136372Y-104308645D01*
X120765636Y-103680479D01*
X121106611Y-102859319D01*
X121107387Y-101970181D01*
X120767845Y-101148428D01*
X120139679Y-100519164D01*
X119318519Y-100178189D01*
X118429381Y-100177413D01*
X117607628Y-100516955D01*
X116978364Y-101145121D01*
X116637389Y-101966281D01*
X116636613Y-102855419D01*
X115568800Y-102855419D01*
X115568800Y-97332800D01*
X123072907Y-97332800D01*
X123185946Y-97901085D01*
X123507853Y-98382854D01*
X123837026Y-98602800D01*
X123507853Y-98822746D01*
X123185946Y-99304515D01*
X123072907Y-99872800D01*
X123185946Y-100441085D01*
X123507853Y-100922854D01*
X123989622Y-101244761D01*
X124557907Y-101357800D01*
X124616093Y-101357800D01*
X125184378Y-101244761D01*
X125666147Y-100922854D01*
X125666971Y-100921621D01*
X125673838Y-100958117D01*
X125812910Y-101174241D01*
X126025110Y-101319231D01*
X126277000Y-101370240D01*
X127977000Y-101370240D01*
X128212317Y-101325962D01*
X128428441Y-101186890D01*
X128573431Y-100974690D01*
X128624440Y-100722800D01*
X128624440Y-99022800D01*
X128580162Y-98787483D01*
X128441090Y-98571359D01*
X128228890Y-98426369D01*
X128161459Y-98412714D01*
X128206147Y-98382854D01*
X128528054Y-97901085D01*
X128641093Y-97332800D01*
X128528054Y-96764515D01*
X128206147Y-96282746D01*
X127876974Y-96062800D01*
X128206147Y-95842854D01*
X128528054Y-95361085D01*
X128641093Y-94792800D01*
X128528054Y-94224515D01*
X128206147Y-93742746D01*
X127724378Y-93420839D01*
X127156093Y-93307800D01*
X127097907Y-93307800D01*
X126529622Y-93420839D01*
X126047853Y-93742746D01*
X125858655Y-94025901D01*
X125858645Y-94025876D01*
X125468358Y-93597617D01*
X124943892Y-93351314D01*
X124714000Y-93471981D01*
X124714000Y-94665800D01*
X124734000Y-94665800D01*
X124734000Y-94919800D01*
X124714000Y-94919800D01*
X124714000Y-94939800D01*
X124460000Y-94939800D01*
X124460000Y-94919800D01*
X123266845Y-94919800D01*
X123145524Y-95149690D01*
X123315355Y-95559724D01*
X123705642Y-95987983D01*
X123848553Y-96055098D01*
X123507853Y-96282746D01*
X123185946Y-96764515D01*
X123072907Y-97332800D01*
X115568800Y-97332800D01*
X115568800Y-94435910D01*
X123145524Y-94435910D01*
X123266845Y-94665800D01*
X124460000Y-94665800D01*
X124460000Y-93471981D01*
X124230108Y-93351314D01*
X123705642Y-93597617D01*
X123315355Y-94025876D01*
X123145524Y-94435910D01*
X115568800Y-94435910D01*
X115568800Y-90679292D01*
X123145514Y-90679292D01*
X123391817Y-91203758D01*
X123820076Y-91594045D01*
X124230110Y-91763876D01*
X124460000Y-91642555D01*
X124460000Y-90449400D01*
X123266181Y-90449400D01*
X123145514Y-90679292D01*
X115568800Y-90679292D01*
X115568800Y-89965508D01*
X123145514Y-89965508D01*
X123266181Y-90195400D01*
X124460000Y-90195400D01*
X124460000Y-89002245D01*
X124714000Y-89002245D01*
X124714000Y-90195400D01*
X124734000Y-90195400D01*
X124734000Y-90449400D01*
X124714000Y-90449400D01*
X124714000Y-91642555D01*
X124943890Y-91763876D01*
X125353924Y-91594045D01*
X125656937Y-91317899D01*
X125673838Y-91407717D01*
X125812910Y-91623841D01*
X126025110Y-91768831D01*
X126277000Y-91819840D01*
X127977000Y-91819840D01*
X128212317Y-91775562D01*
X128428441Y-91636490D01*
X128573431Y-91424290D01*
X128624440Y-91172400D01*
X128624440Y-89472400D01*
X128580162Y-89237083D01*
X128441090Y-89020959D01*
X128228890Y-88875969D01*
X127977000Y-88824960D01*
X126277000Y-88824960D01*
X126041683Y-88869238D01*
X125825559Y-89008310D01*
X125680569Y-89220510D01*
X125658699Y-89328507D01*
X125353924Y-89050755D01*
X124943890Y-88880924D01*
X124714000Y-89002245D01*
X124460000Y-89002245D01*
X124230110Y-88880924D01*
X123820076Y-89050755D01*
X123391817Y-89441042D01*
X123145514Y-89965508D01*
X115568800Y-89965508D01*
X115568800Y-83088187D01*
X116293752Y-83088187D01*
X116511757Y-83615800D01*
X116915077Y-84019824D01*
X117442309Y-84238750D01*
X118013187Y-84239248D01*
X118540800Y-84021243D01*
X118944824Y-83617923D01*
X119163750Y-83090691D01*
X119164000Y-82804000D01*
X126425887Y-82804000D01*
X126535120Y-83353151D01*
X126846189Y-83818698D01*
X127129000Y-84007667D01*
X127129000Y-85191600D01*
X127186852Y-85482439D01*
X127351599Y-85729001D01*
X132059278Y-90436680D01*
X132059238Y-90482167D01*
X132201283Y-90825943D01*
X132464073Y-91089192D01*
X132807601Y-91231838D01*
X132940444Y-91231954D01*
X132372120Y-91800278D01*
X132326633Y-91800238D01*
X131982857Y-91942283D01*
X131719608Y-92205073D01*
X131576962Y-92548601D01*
X131576638Y-92920567D01*
X131718683Y-93264343D01*
X131981473Y-93527592D01*
X132325001Y-93670238D01*
X132696967Y-93670562D01*
X133040743Y-93528517D01*
X133303992Y-93265727D01*
X133446638Y-92922199D01*
X133446679Y-92875323D01*
X134223602Y-92098400D01*
X137058690Y-92098400D01*
X137053608Y-92103473D01*
X136995807Y-92242674D01*
X136956573Y-92301391D01*
X136942917Y-92370046D01*
X136910962Y-92447001D01*
X136910889Y-92531060D01*
X136885400Y-92659200D01*
X136885400Y-94049910D01*
X133044455Y-97890855D01*
X132841773Y-98194191D01*
X132770600Y-98552000D01*
X132770600Y-102011865D01*
X132662789Y-102083902D01*
X132351720Y-102549449D01*
X132242487Y-103098600D01*
X132351720Y-103647751D01*
X132662789Y-104113298D01*
X133128336Y-104424367D01*
X133677487Y-104533600D01*
X133733713Y-104533600D01*
X134282864Y-104424367D01*
X134748411Y-104113298D01*
X135059480Y-103647751D01*
X135112184Y-103382787D01*
X142430352Y-103382787D01*
X142648357Y-103910400D01*
X143051677Y-104314424D01*
X143578909Y-104533350D01*
X144149787Y-104533848D01*
X144677400Y-104315843D01*
X145081424Y-103912523D01*
X145300350Y-103385291D01*
X145300647Y-103044107D01*
X145911200Y-103044107D01*
X145911200Y-103102293D01*
X146024239Y-103670578D01*
X146346146Y-104152347D01*
X146827915Y-104474254D01*
X147396200Y-104587293D01*
X147964485Y-104474254D01*
X148446254Y-104152347D01*
X148475603Y-104108423D01*
X148547873Y-104282898D01*
X148726501Y-104461527D01*
X148959890Y-104558200D01*
X149650450Y-104558200D01*
X149809200Y-104399450D01*
X149809200Y-103200200D01*
X150063200Y-103200200D01*
X150063200Y-104399450D01*
X150221950Y-104558200D01*
X150912510Y-104558200D01*
X151145899Y-104461527D01*
X151324527Y-104282898D01*
X151421200Y-104049509D01*
X151421200Y-103358950D01*
X151262450Y-103200200D01*
X150063200Y-103200200D01*
X149809200Y-103200200D01*
X149789200Y-103200200D01*
X149789200Y-102946200D01*
X149809200Y-102946200D01*
X149809200Y-101746950D01*
X150063200Y-101746950D01*
X150063200Y-102946200D01*
X151262450Y-102946200D01*
X151421200Y-102787450D01*
X151421200Y-102096891D01*
X151324527Y-101863502D01*
X151145899Y-101684873D01*
X150912510Y-101588200D01*
X150221950Y-101588200D01*
X150063200Y-101746950D01*
X149809200Y-101746950D01*
X149650450Y-101588200D01*
X148959890Y-101588200D01*
X148726501Y-101684873D01*
X148547873Y-101863502D01*
X148475603Y-102037977D01*
X148446254Y-101994053D01*
X147964485Y-101672146D01*
X147396200Y-101559107D01*
X146827915Y-101672146D01*
X146346146Y-101994053D01*
X146024239Y-102475822D01*
X145911200Y-103044107D01*
X145300647Y-103044107D01*
X145300848Y-102814413D01*
X145082843Y-102286800D01*
X144679523Y-101882776D01*
X144152291Y-101663850D01*
X143581413Y-101663352D01*
X143053800Y-101881357D01*
X142649776Y-102284677D01*
X142430850Y-102811909D01*
X142430352Y-103382787D01*
X135112184Y-103382787D01*
X135168713Y-103098600D01*
X135059480Y-102549449D01*
X134748411Y-102083902D01*
X134640600Y-102011865D01*
X134640600Y-98939290D01*
X138481545Y-95098345D01*
X138629865Y-94876367D01*
X145927638Y-94876367D01*
X146069683Y-95220143D01*
X146332473Y-95483392D01*
X146676001Y-95626038D01*
X147047967Y-95626362D01*
X147391743Y-95484317D01*
X147424918Y-95451200D01*
X155114314Y-95451200D01*
X155247873Y-95584992D01*
X155591401Y-95727638D01*
X155963367Y-95727962D01*
X156307143Y-95585917D01*
X156570392Y-95323127D01*
X156713038Y-94979599D01*
X156713362Y-94607633D01*
X156571317Y-94263857D01*
X156308527Y-94000608D01*
X155964999Y-93857962D01*
X155593033Y-93857638D01*
X155414999Y-93931200D01*
X147425263Y-93931200D01*
X147393127Y-93899008D01*
X147049599Y-93756362D01*
X146677633Y-93756038D01*
X146333857Y-93898083D01*
X146070608Y-94160873D01*
X145927962Y-94504401D01*
X145927638Y-94876367D01*
X138629865Y-94876367D01*
X138684227Y-94795009D01*
X138755400Y-94437200D01*
X138755400Y-92881379D01*
X138780638Y-92820599D01*
X138780962Y-92448633D01*
X138638917Y-92104857D01*
X138632471Y-92098400D01*
X145669000Y-92098400D01*
X145959839Y-92040548D01*
X146206401Y-91875801D01*
X148314601Y-89767601D01*
X148479348Y-89521039D01*
X148537200Y-89230200D01*
X148537200Y-87125663D01*
X148569392Y-87093527D01*
X148712038Y-86749999D01*
X148712362Y-86378033D01*
X148570317Y-86034257D01*
X148307527Y-85771008D01*
X147963999Y-85628362D01*
X147592033Y-85628038D01*
X147248257Y-85770083D01*
X146985008Y-86032873D01*
X146842362Y-86376401D01*
X146842038Y-86748367D01*
X146984083Y-87092143D01*
X147017200Y-87125318D01*
X147017200Y-88915398D01*
X145354198Y-90578400D01*
X133908800Y-90578400D01*
X133888259Y-90582486D01*
X133929238Y-90483799D01*
X133929562Y-90111833D01*
X133787517Y-89768057D01*
X133524727Y-89504808D01*
X133181199Y-89362162D01*
X133134323Y-89362121D01*
X128649000Y-84876798D01*
X128649000Y-84007667D01*
X128931811Y-83818698D01*
X129242880Y-83353151D01*
X129352113Y-82804000D01*
X129242880Y-82254849D01*
X128931811Y-81789302D01*
X128466264Y-81478233D01*
X127917113Y-81369000D01*
X127860887Y-81369000D01*
X127311736Y-81478233D01*
X126846189Y-81789302D01*
X126535120Y-82254849D01*
X126425887Y-82804000D01*
X119164000Y-82804000D01*
X119164248Y-82519813D01*
X118946243Y-81992200D01*
X118542923Y-81588176D01*
X118015691Y-81369250D01*
X117444813Y-81368752D01*
X116917200Y-81586757D01*
X116513176Y-81990077D01*
X116294250Y-82517309D01*
X116293752Y-83088187D01*
X115568800Y-83088187D01*
X115568800Y-80652367D01*
X138942638Y-80652367D01*
X139084683Y-80996143D01*
X139155510Y-81067093D01*
X139085608Y-81136873D01*
X138942962Y-81480401D01*
X138942638Y-81852367D01*
X139084683Y-82196143D01*
X139155510Y-82267093D01*
X139085608Y-82336873D01*
X138942962Y-82680401D01*
X138942638Y-83052367D01*
X139084683Y-83396143D01*
X139155510Y-83467093D01*
X139085608Y-83536873D01*
X138942962Y-83880401D01*
X138942638Y-84252367D01*
X139084683Y-84596143D01*
X139347473Y-84859392D01*
X139691001Y-85002038D01*
X140062967Y-85002362D01*
X140406743Y-84860317D01*
X140477693Y-84789490D01*
X140547473Y-84859392D01*
X140891001Y-85002038D01*
X141262967Y-85002362D01*
X141606743Y-84860317D01*
X141869992Y-84597527D01*
X142012638Y-84253999D01*
X142012962Y-83882033D01*
X141870917Y-83538257D01*
X141800090Y-83467307D01*
X141869992Y-83397527D01*
X142012638Y-83053999D01*
X142012962Y-82682033D01*
X141870917Y-82338257D01*
X141800090Y-82267307D01*
X141869992Y-82197527D01*
X142012638Y-81853999D01*
X142012962Y-81482033D01*
X141870917Y-81138257D01*
X141800090Y-81067307D01*
X141869992Y-80997527D01*
X142012638Y-80653999D01*
X142012962Y-80282033D01*
X141870917Y-79938257D01*
X141608127Y-79675008D01*
X141515070Y-79636367D01*
X150042438Y-79636367D01*
X150184483Y-79980143D01*
X150447273Y-80243392D01*
X150790801Y-80386038D01*
X151162767Y-80386362D01*
X151506543Y-80244317D01*
X151769792Y-79981527D01*
X151912438Y-79637999D01*
X151912762Y-79266033D01*
X151770717Y-78922257D01*
X151737600Y-78889082D01*
X151737600Y-77356600D01*
X152934560Y-77356600D01*
X152934560Y-79056600D01*
X152978838Y-79291917D01*
X153117910Y-79508041D01*
X153330110Y-79653031D01*
X153582000Y-79704040D01*
X155282000Y-79704040D01*
X155517317Y-79659762D01*
X155733441Y-79520690D01*
X155878431Y-79308490D01*
X155892086Y-79241059D01*
X155921946Y-79285747D01*
X156403715Y-79607654D01*
X156972000Y-79720693D01*
X157540285Y-79607654D01*
X158022054Y-79285747D01*
X158249702Y-78945047D01*
X158316817Y-79087958D01*
X158745076Y-79478245D01*
X159155110Y-79648076D01*
X159385000Y-79526755D01*
X159385000Y-78333600D01*
X159639000Y-78333600D01*
X159639000Y-79526755D01*
X159868890Y-79648076D01*
X160278924Y-79478245D01*
X160707183Y-79087958D01*
X160953486Y-78563492D01*
X160832819Y-78333600D01*
X159639000Y-78333600D01*
X159385000Y-78333600D01*
X159365000Y-78333600D01*
X159365000Y-78079600D01*
X159385000Y-78079600D01*
X159385000Y-76886445D01*
X159639000Y-76886445D01*
X159639000Y-78079600D01*
X160832819Y-78079600D01*
X160953486Y-77849708D01*
X160707183Y-77325242D01*
X160278924Y-76934955D01*
X159868890Y-76765124D01*
X159639000Y-76886445D01*
X159385000Y-76886445D01*
X159155110Y-76765124D01*
X158745076Y-76934955D01*
X158316817Y-77325242D01*
X158249702Y-77468153D01*
X158022054Y-77127453D01*
X157540285Y-76805546D01*
X156972000Y-76692507D01*
X156403715Y-76805546D01*
X155921946Y-77127453D01*
X155894150Y-77169052D01*
X155885162Y-77121283D01*
X155746090Y-76905159D01*
X155533890Y-76760169D01*
X155282000Y-76709160D01*
X153582000Y-76709160D01*
X153346683Y-76753438D01*
X153130559Y-76892510D01*
X152985569Y-77104710D01*
X152934560Y-77356600D01*
X151737600Y-77356600D01*
X151737600Y-76845002D01*
X152184345Y-76398257D01*
X152534367Y-76398562D01*
X152878143Y-76256517D01*
X153141392Y-75993727D01*
X153284038Y-75650199D01*
X153284362Y-75278233D01*
X153142317Y-74934457D01*
X152879527Y-74671208D01*
X152535999Y-74528562D01*
X152164033Y-74528238D01*
X151820257Y-74670283D01*
X151679672Y-74810623D01*
X151506999Y-74925999D01*
X150440199Y-75992799D01*
X150275452Y-76239361D01*
X150217600Y-76530200D01*
X150217600Y-78888737D01*
X150185408Y-78920873D01*
X150042762Y-79264401D01*
X150042438Y-79636367D01*
X141515070Y-79636367D01*
X141264599Y-79532362D01*
X140892633Y-79532038D01*
X140548857Y-79674083D01*
X140477907Y-79744910D01*
X140408127Y-79675008D01*
X140064599Y-79532362D01*
X139692633Y-79532038D01*
X139348857Y-79674083D01*
X139085608Y-79936873D01*
X138942962Y-80280401D01*
X138942638Y-80652367D01*
X115568800Y-80652367D01*
X115568800Y-76588367D01*
X126014038Y-76588367D01*
X126156083Y-76932143D01*
X126226910Y-77003093D01*
X126157008Y-77072873D01*
X126014362Y-77416401D01*
X126014038Y-77788367D01*
X126156083Y-78132143D01*
X126418873Y-78395392D01*
X126762401Y-78538038D01*
X127134367Y-78538362D01*
X127478143Y-78396317D01*
X127549093Y-78325490D01*
X127618873Y-78395392D01*
X127962401Y-78538038D01*
X128334367Y-78538362D01*
X128678143Y-78396317D01*
X128749093Y-78325490D01*
X128818873Y-78395392D01*
X129162401Y-78538038D01*
X129534367Y-78538362D01*
X129878143Y-78396317D01*
X129949093Y-78325490D01*
X130018873Y-78395392D01*
X130362401Y-78538038D01*
X130734367Y-78538362D01*
X131078143Y-78396317D01*
X131341392Y-78133527D01*
X131484038Y-77789999D01*
X131484362Y-77418033D01*
X131342317Y-77074257D01*
X131271490Y-77003307D01*
X131341392Y-76933527D01*
X131484038Y-76589999D01*
X131484362Y-76218033D01*
X131342317Y-75874257D01*
X131079527Y-75611008D01*
X130741791Y-75470767D01*
X135666038Y-75470767D01*
X135808083Y-75814543D01*
X136070873Y-76077792D01*
X136414401Y-76220438D01*
X136786367Y-76220762D01*
X137130143Y-76078717D01*
X137163318Y-76045600D01*
X148586426Y-76045600D01*
X148669273Y-76128592D01*
X149012801Y-76271238D01*
X149384767Y-76271562D01*
X149728543Y-76129517D01*
X149991792Y-75866727D01*
X150134438Y-75523199D01*
X150134762Y-75151233D01*
X149992717Y-74807457D01*
X149729927Y-74544208D01*
X149386399Y-74401562D01*
X149014433Y-74401238D01*
X148713453Y-74525600D01*
X137163663Y-74525600D01*
X137131527Y-74493408D01*
X136787999Y-74350762D01*
X136416033Y-74350438D01*
X136072257Y-74492483D01*
X135809008Y-74755273D01*
X135666362Y-75098801D01*
X135666038Y-75470767D01*
X130741791Y-75470767D01*
X130735999Y-75468362D01*
X130364033Y-75468038D01*
X130020257Y-75610083D01*
X129949307Y-75680910D01*
X129879527Y-75611008D01*
X129535999Y-75468362D01*
X129164033Y-75468038D01*
X128820257Y-75610083D01*
X128749307Y-75680910D01*
X128679527Y-75611008D01*
X128335999Y-75468362D01*
X127964033Y-75468038D01*
X127620257Y-75610083D01*
X127549307Y-75680910D01*
X127479527Y-75611008D01*
X127135999Y-75468362D01*
X126764033Y-75468038D01*
X126420257Y-75610083D01*
X126157008Y-75872873D01*
X126014362Y-76216401D01*
X126014038Y-76588367D01*
X115568800Y-76588367D01*
X115568800Y-71374000D01*
X133232907Y-71374000D01*
X133345946Y-71942285D01*
X133667853Y-72424054D01*
X134149622Y-72745961D01*
X134717907Y-72859000D01*
X134776093Y-72859000D01*
X135344378Y-72745961D01*
X135826147Y-72424054D01*
X136148054Y-71942285D01*
X136261093Y-71374000D01*
X136148054Y-70805715D01*
X135826147Y-70323946D01*
X135782223Y-70294597D01*
X135956698Y-70222327D01*
X136135327Y-70043699D01*
X136232000Y-69810310D01*
X136232000Y-69119750D01*
X136073250Y-68961000D01*
X134874000Y-68961000D01*
X134874000Y-68981000D01*
X134620000Y-68981000D01*
X134620000Y-68961000D01*
X133420750Y-68961000D01*
X133262000Y-69119750D01*
X133262000Y-69810310D01*
X133358673Y-70043699D01*
X133537302Y-70222327D01*
X133711777Y-70294597D01*
X133667853Y-70323946D01*
X133345946Y-70805715D01*
X133232907Y-71374000D01*
X115568800Y-71374000D01*
X115568800Y-69570600D01*
X116392528Y-69570600D01*
X116509373Y-70158019D01*
X116842119Y-70656009D01*
X117340109Y-70988755D01*
X117927528Y-71105600D01*
X117987672Y-71105600D01*
X118575091Y-70988755D01*
X119073081Y-70656009D01*
X119405827Y-70158019D01*
X119522672Y-69570600D01*
X119405827Y-68983181D01*
X119196968Y-68670600D01*
X126570160Y-68670600D01*
X126570160Y-70470600D01*
X126614438Y-70705917D01*
X126753510Y-70922041D01*
X126965710Y-71067031D01*
X127217600Y-71118040D01*
X129017600Y-71118040D01*
X129252917Y-71073762D01*
X129469041Y-70934690D01*
X129614031Y-70722490D01*
X129665040Y-70470600D01*
X129665040Y-68934308D01*
X154133514Y-68934308D01*
X154254181Y-69164200D01*
X155448000Y-69164200D01*
X155448000Y-67971045D01*
X155218110Y-67849724D01*
X154808076Y-68019555D01*
X154379817Y-68409842D01*
X154133514Y-68934308D01*
X129665040Y-68934308D01*
X129665040Y-68670600D01*
X129620762Y-68435283D01*
X129481690Y-68219159D01*
X129269490Y-68074169D01*
X129017600Y-68023160D01*
X127217600Y-68023160D01*
X126982283Y-68067438D01*
X126766159Y-68206510D01*
X126621169Y-68418710D01*
X126570160Y-68670600D01*
X119196968Y-68670600D01*
X119073081Y-68485191D01*
X118575091Y-68152445D01*
X117987672Y-68035600D01*
X117927528Y-68035600D01*
X117340109Y-68152445D01*
X116842119Y-68485191D01*
X116509373Y-68983181D01*
X116392528Y-69570600D01*
X115568800Y-69570600D01*
X115568800Y-67857690D01*
X133262000Y-67857690D01*
X133262000Y-68548250D01*
X133420750Y-68707000D01*
X134620000Y-68707000D01*
X134620000Y-67507750D01*
X134874000Y-67507750D01*
X134874000Y-68707000D01*
X136073250Y-68707000D01*
X136232000Y-68548250D01*
X136232000Y-67857690D01*
X136135327Y-67624301D01*
X135956698Y-67445673D01*
X135723309Y-67349000D01*
X135032750Y-67349000D01*
X134874000Y-67507750D01*
X134620000Y-67507750D01*
X134461250Y-67349000D01*
X133770691Y-67349000D01*
X133537302Y-67445673D01*
X133358673Y-67624301D01*
X133262000Y-67857690D01*
X115568800Y-67857690D01*
X115568800Y-63008415D01*
X118133630Y-63008415D01*
X118457980Y-63793400D01*
X119058041Y-64394509D01*
X119842459Y-64720228D01*
X120691815Y-64720970D01*
X121476800Y-64396620D01*
X122077909Y-63796559D01*
X122403628Y-63012141D01*
X122404370Y-62162785D01*
X122080020Y-61377800D01*
X121788330Y-61085600D01*
X123201560Y-61085600D01*
X123201560Y-64085600D01*
X123245838Y-64320917D01*
X123384910Y-64537041D01*
X123597110Y-64682031D01*
X123849000Y-64733040D01*
X126849000Y-64733040D01*
X127084317Y-64688762D01*
X127300441Y-64549690D01*
X127445431Y-64337490D01*
X127496440Y-64085600D01*
X127496440Y-63059215D01*
X129817630Y-63059215D01*
X130141980Y-63844200D01*
X130742041Y-64445309D01*
X131526459Y-64771028D01*
X132375815Y-64771770D01*
X133160800Y-64447420D01*
X133761909Y-63847359D01*
X134087628Y-63062941D01*
X134087750Y-62922150D01*
X134898000Y-62922150D01*
X134898000Y-64262710D01*
X134994673Y-64496099D01*
X135173302Y-64674727D01*
X135406691Y-64771400D01*
X136747250Y-64771400D01*
X136906000Y-64612650D01*
X136906000Y-62763400D01*
X137160000Y-62763400D01*
X137160000Y-64612650D01*
X137318750Y-64771400D01*
X138659309Y-64771400D01*
X138892698Y-64674727D01*
X139071327Y-64496099D01*
X139168000Y-64262710D01*
X139168000Y-64150370D01*
X142302635Y-64150370D01*
X142462418Y-64469139D01*
X143253187Y-64779123D01*
X144102387Y-64762897D01*
X144811582Y-64469139D01*
X144971365Y-64150370D01*
X143637000Y-62816005D01*
X142302635Y-64150370D01*
X139168000Y-64150370D01*
X139168000Y-62922150D01*
X139009250Y-62763400D01*
X137160000Y-62763400D01*
X136906000Y-62763400D01*
X135056750Y-62763400D01*
X134898000Y-62922150D01*
X134087750Y-62922150D01*
X134088370Y-62213585D01*
X133764020Y-61428600D01*
X133346240Y-61010090D01*
X134898000Y-61010090D01*
X134898000Y-62350650D01*
X135056750Y-62509400D01*
X136906000Y-62509400D01*
X136906000Y-60660150D01*
X137160000Y-60660150D01*
X137160000Y-62509400D01*
X139009250Y-62509400D01*
X139168000Y-62350650D01*
X139168000Y-62252587D01*
X141494277Y-62252587D01*
X141510503Y-63101787D01*
X141804261Y-63810982D01*
X142123030Y-63970765D01*
X143457395Y-62636400D01*
X143816605Y-62636400D01*
X145150970Y-63970765D01*
X145469739Y-63810982D01*
X145779723Y-63020213D01*
X145763497Y-62171013D01*
X145469739Y-61461818D01*
X145150970Y-61302035D01*
X143816605Y-62636400D01*
X143457395Y-62636400D01*
X142123030Y-61302035D01*
X141804261Y-61461818D01*
X141494277Y-62252587D01*
X139168000Y-62252587D01*
X139168000Y-61122430D01*
X142302635Y-61122430D01*
X143637000Y-62456795D01*
X144957395Y-61136400D01*
X146569560Y-61136400D01*
X146569560Y-64136400D01*
X146613838Y-64371717D01*
X146752910Y-64587841D01*
X146965110Y-64732831D01*
X147217000Y-64783840D01*
X150217000Y-64783840D01*
X150452317Y-64739562D01*
X150668441Y-64600490D01*
X150813431Y-64388290D01*
X150864440Y-64136400D01*
X150864440Y-63571400D01*
X151479310Y-63571400D01*
X154456655Y-66548745D01*
X154759991Y-66751427D01*
X155117800Y-66822600D01*
X155568710Y-66822600D01*
X157022175Y-68276065D01*
X156837298Y-68552753D01*
X156770183Y-68409842D01*
X156341924Y-68019555D01*
X155931890Y-67849724D01*
X155702000Y-67971045D01*
X155702000Y-69164200D01*
X155722000Y-69164200D01*
X155722000Y-69418200D01*
X155702000Y-69418200D01*
X155702000Y-69438200D01*
X155448000Y-69438200D01*
X155448000Y-69418200D01*
X154254181Y-69418200D01*
X154133514Y-69648092D01*
X154379817Y-70172558D01*
X154808076Y-70562845D01*
X154808101Y-70562855D01*
X154524946Y-70752053D01*
X154203039Y-71233822D01*
X154090000Y-71802107D01*
X154090000Y-71860293D01*
X154203039Y-72428578D01*
X154524946Y-72910347D01*
X155006715Y-73232254D01*
X155575000Y-73345293D01*
X156143285Y-73232254D01*
X156625054Y-72910347D01*
X156845000Y-72581174D01*
X157064946Y-72910347D01*
X157546715Y-73232254D01*
X158115000Y-73345293D01*
X158683285Y-73232254D01*
X159165054Y-72910347D01*
X159385000Y-72581174D01*
X159604946Y-72910347D01*
X160086715Y-73232254D01*
X160655000Y-73345293D01*
X161223285Y-73232254D01*
X161705054Y-72910347D01*
X162026961Y-72428578D01*
X162140000Y-71860293D01*
X162140000Y-71802107D01*
X162026961Y-71233822D01*
X161705054Y-70752053D01*
X161703821Y-70751229D01*
X161740317Y-70744362D01*
X161956441Y-70605290D01*
X162101431Y-70393090D01*
X162152440Y-70141200D01*
X162152440Y-68441200D01*
X162108162Y-68205883D01*
X161969090Y-67989759D01*
X161756890Y-67844769D01*
X161505000Y-67793760D01*
X159805000Y-67793760D01*
X159569683Y-67838038D01*
X159353559Y-67977110D01*
X159208569Y-68189310D01*
X159194914Y-68256741D01*
X159165054Y-68212053D01*
X159050000Y-68135177D01*
X159050000Y-68046600D01*
X158978827Y-67688791D01*
X158776145Y-67385455D01*
X156617145Y-65226455D01*
X156313809Y-65023773D01*
X155956000Y-64952600D01*
X155505090Y-64952600D01*
X152717109Y-62164619D01*
X155295413Y-62164619D01*
X155634955Y-62986372D01*
X156263121Y-63615636D01*
X157084281Y-63956611D01*
X157973419Y-63957387D01*
X158795172Y-63617845D01*
X159424436Y-62989679D01*
X159765411Y-62168519D01*
X159766187Y-61279381D01*
X159426645Y-60457628D01*
X158798479Y-59828364D01*
X157977319Y-59487389D01*
X157088181Y-59486613D01*
X156266428Y-59826155D01*
X155637164Y-60454321D01*
X155296189Y-61275481D01*
X155295413Y-62164619D01*
X152717109Y-62164619D01*
X152527745Y-61975255D01*
X152224409Y-61772573D01*
X151866600Y-61701400D01*
X150864440Y-61701400D01*
X150864440Y-61136400D01*
X150820162Y-60901083D01*
X150681090Y-60684959D01*
X150468890Y-60539969D01*
X150217000Y-60488960D01*
X147217000Y-60488960D01*
X146981683Y-60533238D01*
X146765559Y-60672310D01*
X146620569Y-60884510D01*
X146569560Y-61136400D01*
X144957395Y-61136400D01*
X144971365Y-61122430D01*
X144811582Y-60803661D01*
X144020813Y-60493677D01*
X143171613Y-60509903D01*
X142462418Y-60803661D01*
X142302635Y-61122430D01*
X139168000Y-61122430D01*
X139168000Y-61010090D01*
X139071327Y-60776701D01*
X138892698Y-60598073D01*
X138659309Y-60501400D01*
X137318750Y-60501400D01*
X137160000Y-60660150D01*
X136906000Y-60660150D01*
X136747250Y-60501400D01*
X135406691Y-60501400D01*
X135173302Y-60598073D01*
X134994673Y-60776701D01*
X134898000Y-61010090D01*
X133346240Y-61010090D01*
X133163959Y-60827491D01*
X132379541Y-60501772D01*
X131530185Y-60501030D01*
X130745200Y-60825380D01*
X130144091Y-61425441D01*
X129818372Y-62209859D01*
X129817630Y-63059215D01*
X127496440Y-63059215D01*
X127496440Y-61085600D01*
X127452162Y-60850283D01*
X127313090Y-60634159D01*
X127100890Y-60489169D01*
X126849000Y-60438160D01*
X123849000Y-60438160D01*
X123613683Y-60482438D01*
X123397559Y-60621510D01*
X123252569Y-60833710D01*
X123201560Y-61085600D01*
X121788330Y-61085600D01*
X121479959Y-60776691D01*
X120695541Y-60450972D01*
X119846185Y-60450230D01*
X119061200Y-60774580D01*
X118460091Y-61374641D01*
X118134372Y-62159059D01*
X118133630Y-63008415D01*
X115568800Y-63008415D01*
X115568800Y-57199600D01*
X162713600Y-57199600D01*
X162713600Y-105741400D01*
M02*
