M48
;DRILL file {KiCad 4.0.6} date Thu Jun 22 12:30:01 2017
;FORMAT={-:-/ absolute / metric / decimal}
FMAT,2
METRIC,TZ
T1C0.300
T2C0.400
T3C0.800
T4C0.900
T5C1.000
T6C1.520
T7C3.200
%
G90
G05
M71
T1
X126.949Y-76.403
X126.949Y-77.603
X128.149Y-76.403
X128.149Y-77.603
X129.349Y-76.403
X129.349Y-77.603
X130.549Y-76.403
X130.549Y-77.603
X139.878Y-80.467
X139.878Y-81.667
X139.878Y-82.867
X139.878Y-84.067
X141.078Y-80.467
X141.078Y-81.667
X141.078Y-82.867
X141.078Y-84.067
X159.156Y-100.127
X159.156Y-101.327
X159.156Y-102.527
X159.156Y-103.727
X160.356Y-100.127
X160.356Y-101.327
X160.356Y-102.527
X160.356Y-103.727
X161.556Y-100.127
X161.556Y-101.327
X161.556Y-102.527
X161.556Y-103.727
T2
X132.512Y-92.735
X132.994Y-90.297
X136.601Y-75.286
X137.846Y-92.634
X146.863Y-94.691
X147.777Y-86.563
X149.2Y-75.336
X150.978Y-79.451
X152.349Y-75.463
X155.778Y-94.793
T3
X117.729Y-82.804
X127.889Y-82.804
X133.706Y-103.099
X143.866Y-103.099
T4
X117.958Y-69.571
X128.118Y-69.571
T5
X124.587Y-90.322
X124.587Y-94.793
X124.587Y-97.333
X124.587Y-99.873
X127.127Y-90.322
X127.127Y-94.793
X127.127Y-97.333
X127.127Y-99.873
X134.747Y-68.834
X134.747Y-71.374
X147.396Y-103.073
X149.936Y-103.073
X154.432Y-78.207
X155.575Y-69.291
X155.575Y-71.831
X156.972Y-78.207
X158.115Y-69.291
X158.115Y-71.831
X159.512Y-78.207
X160.655Y-69.291
X160.655Y-71.831
T6
X120.269Y-62.586
X125.349Y-62.586
X131.953Y-62.636
X137.033Y-62.636
X143.637Y-62.636
X148.717Y-62.636
T7
X118.872Y-102.413
X157.531Y-61.722
T0
M30
