%TF.GenerationSoftware,KiCad,Pcbnew,4.0.6*%
%TF.CreationDate,2017-06-22T12:26:56+02:00*%
%TF.ProjectId,esp8266_irrigation_system,657370383236365F6972726967617469,rev?*%
%TF.FileFunction,Copper,L1,Top,Signal*%
%FSLAX46Y46*%
G04 Gerber Fmt 4.6, Leading zero omitted, Abs format (unit mm)*
G04 Created by KiCad (PCBNEW 4.0.6) date Thu Jun 22 12:26:56 2017*
%MOMM*%
%LPD*%
G01*
G04 APERTURE LIST*
%ADD10C,0.100000*%
%ADD11C,0.600000*%
%ADD12C,1.600000*%
%ADD13O,1.600000X1.600000*%
%ADD14R,1.800000X1.800000*%
%ADD15O,1.800000X1.800000*%
%ADD16R,3.000000X3.000000*%
%ADD17C,3.000000*%
%ADD18R,1.700000X1.700000*%
%ADD19O,1.700000X1.700000*%
%ADD20R,1.700000X2.000000*%
%ADD21R,2.000000X1.700000*%
%ADD22R,2.524000X1.524000*%
%ADD23R,1.524000X2.524000*%
%ADD24R,2.000000X1.600000*%
%ADD25R,3.800000X2.000000*%
%ADD26R,1.500000X2.000000*%
%ADD27C,1.000000*%
%ADD28C,0.250000*%
%ADD29C,0.600000*%
%ADD30C,1.500000*%
%ADD31C,1.200000*%
%ADD32C,0.254000*%
G04 APERTURE END LIST*
D10*
D11*
X130549200Y-77603200D03*
X129349200Y-77603200D03*
X128149200Y-77603200D03*
X126949200Y-77603200D03*
X130549200Y-76403200D03*
X129349200Y-76403200D03*
X128149200Y-76403200D03*
X141077800Y-84067200D03*
X139877800Y-84067200D03*
X141077800Y-82867200D03*
X139877800Y-82867200D03*
X141077800Y-81667200D03*
X139877800Y-81667200D03*
X141077800Y-80467200D03*
X161556400Y-103726800D03*
X160356400Y-103726800D03*
X159156400Y-103726800D03*
X161556400Y-102526800D03*
X160356400Y-102526800D03*
X159156400Y-102526800D03*
X161556400Y-101326800D03*
X160356400Y-101326800D03*
X159156400Y-101326800D03*
X161556400Y-100126800D03*
X160356400Y-100126800D03*
D12*
X143865600Y-103098600D03*
D13*
X133705600Y-103098600D03*
D14*
X128117600Y-69570600D03*
D15*
X117957600Y-69570600D03*
D16*
X125349000Y-62585600D03*
D17*
X120269000Y-62585600D03*
D16*
X137033000Y-62636400D03*
D17*
X131953000Y-62636400D03*
D18*
X160655000Y-69291200D03*
D19*
X160655000Y-71831200D03*
X158115000Y-69291200D03*
X158115000Y-71831200D03*
X155575000Y-69291200D03*
X155575000Y-71831200D03*
D18*
X154432000Y-78206600D03*
D19*
X156972000Y-78206600D03*
X159512000Y-78206600D03*
D20*
X131368800Y-72288400D03*
X131368800Y-68288400D03*
D21*
X151072600Y-72059800D03*
X147072600Y-72059800D03*
X138208000Y-72059800D03*
X142208000Y-72059800D03*
D20*
X154330400Y-103523800D03*
X154330400Y-99523800D03*
X157403800Y-96538800D03*
X157403800Y-92538800D03*
D18*
X127127000Y-90322400D03*
D19*
X124587000Y-90322400D03*
D22*
X150926800Y-82257900D03*
X150926800Y-84289900D03*
X150926800Y-86321900D03*
X150926800Y-88353900D03*
X150926800Y-90385900D03*
X150926800Y-92417900D03*
X150926800Y-94449900D03*
X150926800Y-96481900D03*
X135178800Y-96481900D03*
X135178800Y-94449900D03*
X135178800Y-92417900D03*
X135178800Y-90385900D03*
X135178800Y-88353900D03*
X135178800Y-86321900D03*
X135178800Y-84289900D03*
X135178800Y-82257900D03*
D23*
X138036300Y-98386900D03*
X140068300Y-98386900D03*
X142100300Y-98386900D03*
X144132300Y-98386900D03*
X146164300Y-98386900D03*
X148196300Y-98386900D03*
D18*
X149936200Y-103073200D03*
D19*
X147396200Y-103073200D03*
D18*
X134747000Y-68834000D03*
D19*
X134747000Y-71374000D03*
D24*
X130524000Y-103530400D03*
X126524000Y-103530400D03*
D16*
X148717000Y-62636400D03*
D17*
X143637000Y-62636400D03*
D18*
X127127000Y-99872800D03*
D19*
X124587000Y-99872800D03*
X127127000Y-97332800D03*
X124587000Y-97332800D03*
X127127000Y-94792800D03*
X124587000Y-94792800D03*
D25*
X120319800Y-73177000D03*
D26*
X120319800Y-79477000D03*
X122619800Y-79477000D03*
X118019800Y-79477000D03*
D12*
X117729000Y-82804000D03*
D13*
X127889000Y-82804000D03*
D21*
X117793000Y-86334600D03*
X121793000Y-86334600D03*
D20*
X154330400Y-96538800D03*
X154330400Y-92538800D03*
D11*
X159156400Y-100126800D03*
X139877800Y-80467200D03*
X126949200Y-76403200D03*
X155778200Y-94792800D03*
X146862800Y-94691200D03*
X149199600Y-75336400D03*
X136601200Y-75285600D03*
X152349200Y-75463400D03*
X150977600Y-79451200D03*
X132994400Y-90297000D03*
X137845800Y-92633800D03*
X147777200Y-86563200D03*
X132511800Y-92735400D03*
D27*
X127127000Y-99872800D02*
X128977000Y-99872800D01*
X128977000Y-99872800D02*
X129129400Y-100025200D01*
X129129400Y-100025200D02*
X132229200Y-100025200D01*
D28*
X157403800Y-96538800D02*
X155778200Y-96538800D01*
X155778200Y-96538800D02*
X154330400Y-96538800D01*
X155778200Y-94792800D02*
X155778200Y-95217064D01*
X155778200Y-95217064D02*
X155778200Y-96538800D01*
X144576800Y-91922600D02*
X144576800Y-92405200D01*
X144576800Y-92405200D02*
X146862800Y-94691200D01*
D27*
X144576800Y-72034400D02*
X144576800Y-75641200D01*
X144576800Y-75641200D02*
X144576800Y-91922600D01*
D29*
X154432000Y-78206600D02*
X147142200Y-78206600D01*
X147142200Y-78206600D02*
X144576800Y-75641200D01*
D27*
X147072600Y-72059800D02*
X144602200Y-72059800D01*
X144602200Y-72059800D02*
X144576800Y-72034400D01*
X144576800Y-69276600D02*
X144576800Y-70561200D01*
X144576800Y-70561200D02*
X144576800Y-72034400D01*
X142208000Y-72059800D02*
X144551400Y-72059800D01*
X144551400Y-72059800D02*
X144576800Y-72034400D01*
X140385800Y-96113600D02*
X135547100Y-96113600D01*
X135547100Y-96113600D02*
X135178800Y-96481900D01*
X144576800Y-91922600D02*
X140385800Y-96113600D01*
X148717000Y-62636400D02*
X148717000Y-65136400D01*
X148717000Y-65136400D02*
X144576800Y-69276600D01*
X133045200Y-100025200D02*
X133985000Y-100025200D01*
X130524000Y-103530400D02*
X130524000Y-101730400D01*
X130524000Y-101730400D02*
X132229200Y-100025200D01*
X132229200Y-100025200D02*
X133045200Y-100025200D01*
X133985000Y-100025200D02*
X135178800Y-98831400D01*
X135178800Y-98831400D02*
X135178800Y-96481900D01*
D28*
X130524000Y-103530400D02*
X130724000Y-103530400D01*
X135178800Y-97493900D02*
X135178800Y-96481900D01*
D30*
X137033000Y-62636400D02*
X143637000Y-62636400D01*
D31*
X125349000Y-62585600D02*
X125349000Y-66802000D01*
X125349000Y-66802000D02*
X128117600Y-69570600D01*
D30*
X125349000Y-62585600D02*
X131902200Y-62585600D01*
X131902200Y-62585600D02*
X131953000Y-62636400D01*
D29*
X131953000Y-62636400D02*
X131953000Y-67704200D01*
X131953000Y-67704200D02*
X131368800Y-68288400D01*
X143865600Y-103098600D02*
X147370800Y-103098600D01*
X147370800Y-103098600D02*
X147396200Y-103073200D01*
X131368800Y-72288400D02*
X133832600Y-72288400D01*
X133832600Y-72288400D02*
X134747000Y-71374000D01*
X120319800Y-73177000D02*
X120319800Y-79477000D01*
D27*
X117957600Y-69570600D02*
X117957600Y-70814800D01*
X117957600Y-70814800D02*
X120319800Y-73177000D01*
D31*
X120269000Y-62585600D02*
X120269000Y-67259200D01*
X120269000Y-67259200D02*
X117957600Y-69570600D01*
D28*
X158115000Y-73033281D02*
X158115000Y-71831200D01*
X155727400Y-75420881D02*
X158115000Y-73033281D01*
X155727400Y-79989300D02*
X155727400Y-75420881D01*
X151426800Y-84289900D02*
X155727400Y-79989300D01*
X150926800Y-84289900D02*
X151426800Y-84289900D01*
X127127000Y-90322400D02*
X127127000Y-86029800D01*
X127127000Y-86029800D02*
X130898900Y-82257900D01*
X130898900Y-82257900D02*
X135178800Y-82257900D01*
X149199600Y-75336400D02*
X151072600Y-73463400D01*
X151072600Y-73463400D02*
X151072600Y-72059800D01*
X135178800Y-82257900D02*
X135178800Y-76708000D01*
X135178800Y-76708000D02*
X136601200Y-75285600D01*
X152323800Y-67335400D02*
X151072600Y-68586600D01*
X151072600Y-68586600D02*
X151072600Y-72059800D01*
X159799200Y-67335400D02*
X152323800Y-67335400D01*
X160655000Y-69291200D02*
X160655000Y-68191200D01*
X160655000Y-68191200D02*
X159799200Y-67335400D01*
X154223999Y-75163401D02*
X155575000Y-73812400D01*
X155575000Y-73812400D02*
X155575000Y-71831200D01*
X152349200Y-75463400D02*
X152649199Y-75163401D01*
X152649199Y-75163401D02*
X154223999Y-75163401D01*
X150926800Y-82257900D02*
X150926800Y-79502000D01*
X150926800Y-79502000D02*
X150977600Y-79451200D01*
X158254700Y-90385900D02*
X157403800Y-90385900D01*
X157403800Y-90385900D02*
X150926800Y-90385900D01*
X157403800Y-92538800D02*
X157403800Y-91288800D01*
X157403800Y-91288800D02*
X157403800Y-90385900D01*
X160985200Y-87655400D02*
X158254700Y-90385900D01*
X160985200Y-75946000D02*
X160985200Y-87655400D01*
X160655000Y-75615800D02*
X160985200Y-75946000D01*
X160655000Y-71831200D02*
X160655000Y-75615800D01*
X156972000Y-85191600D02*
X153809700Y-88353900D01*
X153809700Y-88353900D02*
X150926800Y-88353900D01*
X156972000Y-78206600D02*
X156972000Y-85191600D01*
X135178800Y-90385900D02*
X133083300Y-90385900D01*
X133083300Y-90385900D02*
X132994400Y-90297000D01*
D29*
X137845800Y-92633800D02*
X135394700Y-92633800D01*
X135394700Y-92633800D02*
X135178800Y-92417900D01*
D28*
X135178800Y-86321900D02*
X136690800Y-86321900D01*
X136690800Y-86321900D02*
X138208000Y-84804700D01*
X138208000Y-84804700D02*
X138208000Y-73159800D01*
X138208000Y-73159800D02*
X138208000Y-72059800D01*
X152781000Y-94767400D02*
X152463500Y-94449900D01*
X152463500Y-94449900D02*
X150926800Y-94449900D01*
X152781000Y-99074400D02*
X152781000Y-94767400D01*
X154330400Y-99523800D02*
X153230400Y-99523800D01*
X153230400Y-99523800D02*
X152781000Y-99074400D01*
X124587000Y-99872800D02*
X125857000Y-98602800D01*
X125857000Y-98602800D02*
X131394200Y-98602800D01*
X133121400Y-94742000D02*
X133413500Y-94449900D01*
X131394200Y-98602800D02*
X133121400Y-96875600D01*
X133121400Y-96875600D02*
X133121400Y-94742000D01*
X133413500Y-94449900D02*
X135178800Y-94449900D01*
X134678800Y-94449900D02*
X135178800Y-94449900D01*
X131724400Y-95783400D02*
X131724400Y-93522800D01*
X131724400Y-93522800D02*
X132511800Y-92735400D01*
X130886200Y-96621600D02*
X131724400Y-95783400D01*
X129040281Y-96621600D02*
X130886200Y-96621600D01*
X127127000Y-97332800D02*
X128329081Y-97332800D01*
X128329081Y-97332800D02*
X129040281Y-96621600D01*
X147777200Y-86563200D02*
X150685500Y-86563200D01*
X150685500Y-86563200D02*
X150926800Y-86321900D01*
X129032000Y-91948000D02*
X132715000Y-88265000D01*
X132715000Y-88265000D02*
X132715000Y-86253700D01*
X127279400Y-91948000D02*
X129032000Y-91948000D01*
X125882400Y-93345000D02*
X127279400Y-91948000D01*
X125882400Y-96037400D02*
X125882400Y-93345000D01*
X124587000Y-97332800D02*
X125882400Y-96037400D01*
X134678800Y-84289900D02*
X135178800Y-84289900D01*
X132715000Y-86253700D02*
X134678800Y-84289900D01*
X131902200Y-91219681D02*
X131902200Y-90464196D01*
X131902200Y-90464196D02*
X133000496Y-89365900D01*
X127127000Y-94792800D02*
X128329081Y-94792800D01*
X128329081Y-94792800D02*
X131902200Y-91219681D01*
X134678800Y-88353900D02*
X135178800Y-88353900D01*
X133666800Y-89365900D02*
X134678800Y-88353900D01*
X133000496Y-89365900D02*
X133666800Y-89365900D01*
X117729000Y-82804000D02*
X117729000Y-86270600D01*
X117729000Y-86270600D02*
X117793000Y-86334600D01*
X117729000Y-82804000D02*
X117729000Y-79767800D01*
X117729000Y-79767800D02*
X118019800Y-79477000D01*
X154330400Y-92538800D02*
X151047700Y-92538800D01*
X151047700Y-92538800D02*
X150926800Y-92417900D01*
D32*
G36*
X162713600Y-105741400D02*
X115568800Y-105741400D01*
X115568800Y-102855419D01*
X116636613Y-102855419D01*
X116976155Y-103677172D01*
X117604321Y-104306436D01*
X118425481Y-104647411D01*
X119314619Y-104648187D01*
X120136372Y-104308645D01*
X120629727Y-103816150D01*
X124889000Y-103816150D01*
X124889000Y-104456710D01*
X124985673Y-104690099D01*
X125164302Y-104868727D01*
X125397691Y-104965400D01*
X126238250Y-104965400D01*
X126397000Y-104806650D01*
X126397000Y-103657400D01*
X126651000Y-103657400D01*
X126651000Y-104806650D01*
X126809750Y-104965400D01*
X127650309Y-104965400D01*
X127883698Y-104868727D01*
X128062327Y-104690099D01*
X128159000Y-104456710D01*
X128159000Y-103816150D01*
X128000250Y-103657400D01*
X126651000Y-103657400D01*
X126397000Y-103657400D01*
X125047750Y-103657400D01*
X124889000Y-103816150D01*
X120629727Y-103816150D01*
X120765636Y-103680479D01*
X121106611Y-102859319D01*
X121106833Y-102604090D01*
X124889000Y-102604090D01*
X124889000Y-103244650D01*
X125047750Y-103403400D01*
X126397000Y-103403400D01*
X126397000Y-102254150D01*
X126651000Y-102254150D01*
X126651000Y-103403400D01*
X128000250Y-103403400D01*
X128159000Y-103244650D01*
X128159000Y-102604090D01*
X128062327Y-102370701D01*
X127883698Y-102192073D01*
X127650309Y-102095400D01*
X126809750Y-102095400D01*
X126651000Y-102254150D01*
X126397000Y-102254150D01*
X126238250Y-102095400D01*
X125397691Y-102095400D01*
X125164302Y-102192073D01*
X124985673Y-102370701D01*
X124889000Y-102604090D01*
X121106833Y-102604090D01*
X121107387Y-101970181D01*
X120767845Y-101148428D01*
X120139679Y-100519164D01*
X119318519Y-100178189D01*
X118429381Y-100177413D01*
X117607628Y-100516955D01*
X116978364Y-101145121D01*
X116637389Y-101966281D01*
X116636613Y-102855419D01*
X115568800Y-102855419D01*
X115568800Y-97332800D01*
X123072907Y-97332800D01*
X123185946Y-97901085D01*
X123507853Y-98382854D01*
X123837026Y-98602800D01*
X123507853Y-98822746D01*
X123185946Y-99304515D01*
X123072907Y-99872800D01*
X123185946Y-100441085D01*
X123507853Y-100922854D01*
X123989622Y-101244761D01*
X124557907Y-101357800D01*
X124616093Y-101357800D01*
X125184378Y-101244761D01*
X125666147Y-100922854D01*
X125666971Y-100921621D01*
X125673838Y-100958117D01*
X125812910Y-101174241D01*
X126025110Y-101319231D01*
X126277000Y-101370240D01*
X127977000Y-101370240D01*
X128212317Y-101325962D01*
X128428441Y-101186890D01*
X128550808Y-101007800D01*
X128596274Y-101007800D01*
X128695054Y-101073803D01*
X129129400Y-101160200D01*
X129566172Y-101160200D01*
X129475397Y-101296054D01*
X129389000Y-101730400D01*
X129389000Y-102108362D01*
X129288683Y-102127238D01*
X129072559Y-102266310D01*
X128927569Y-102478510D01*
X128876560Y-102730400D01*
X128876560Y-104330400D01*
X128920838Y-104565717D01*
X129059910Y-104781841D01*
X129272110Y-104926831D01*
X129524000Y-104977840D01*
X131524000Y-104977840D01*
X131759317Y-104933562D01*
X131975441Y-104794490D01*
X132120431Y-104582290D01*
X132171440Y-104330400D01*
X132171440Y-103098600D01*
X132242487Y-103098600D01*
X132351720Y-103647751D01*
X132662789Y-104113298D01*
X133128336Y-104424367D01*
X133677487Y-104533600D01*
X133733713Y-104533600D01*
X134282864Y-104424367D01*
X134748411Y-104113298D01*
X135059480Y-103647751D01*
X135112184Y-103382787D01*
X142430352Y-103382787D01*
X142648357Y-103910400D01*
X143051677Y-104314424D01*
X143578909Y-104533350D01*
X144149787Y-104533848D01*
X144677400Y-104315843D01*
X144960136Y-104033600D01*
X146266802Y-104033600D01*
X146346146Y-104152347D01*
X146827915Y-104474254D01*
X147396200Y-104587293D01*
X147964485Y-104474254D01*
X148446254Y-104152347D01*
X148475603Y-104108423D01*
X148547873Y-104282898D01*
X148726501Y-104461527D01*
X148959890Y-104558200D01*
X149650450Y-104558200D01*
X149809200Y-104399450D01*
X149809200Y-103200200D01*
X150063200Y-103200200D01*
X150063200Y-104399450D01*
X150221950Y-104558200D01*
X150912510Y-104558200D01*
X151145899Y-104461527D01*
X151324527Y-104282898D01*
X151421200Y-104049509D01*
X151421200Y-103809550D01*
X152845400Y-103809550D01*
X152845400Y-104650109D01*
X152942073Y-104883498D01*
X153120701Y-105062127D01*
X153354090Y-105158800D01*
X154044650Y-105158800D01*
X154203400Y-105000050D01*
X154203400Y-103650800D01*
X154457400Y-103650800D01*
X154457400Y-105000050D01*
X154616150Y-105158800D01*
X155306710Y-105158800D01*
X155540099Y-105062127D01*
X155718727Y-104883498D01*
X155815400Y-104650109D01*
X155815400Y-103809550D01*
X155656650Y-103650800D01*
X154457400Y-103650800D01*
X154203400Y-103650800D01*
X153004150Y-103650800D01*
X152845400Y-103809550D01*
X151421200Y-103809550D01*
X151421200Y-103358950D01*
X151262450Y-103200200D01*
X150063200Y-103200200D01*
X149809200Y-103200200D01*
X149789200Y-103200200D01*
X149789200Y-102946200D01*
X149809200Y-102946200D01*
X149809200Y-101746950D01*
X150063200Y-101746950D01*
X150063200Y-102946200D01*
X151262450Y-102946200D01*
X151421200Y-102787450D01*
X151421200Y-102397491D01*
X152845400Y-102397491D01*
X152845400Y-103238050D01*
X153004150Y-103396800D01*
X154203400Y-103396800D01*
X154203400Y-102047550D01*
X154457400Y-102047550D01*
X154457400Y-103396800D01*
X155656650Y-103396800D01*
X155815400Y-103238050D01*
X155815400Y-102397491D01*
X155718727Y-102164102D01*
X155540099Y-101985473D01*
X155306710Y-101888800D01*
X154616150Y-101888800D01*
X154457400Y-102047550D01*
X154203400Y-102047550D01*
X154044650Y-101888800D01*
X153354090Y-101888800D01*
X153120701Y-101985473D01*
X152942073Y-102164102D01*
X152845400Y-102397491D01*
X151421200Y-102397491D01*
X151421200Y-102096891D01*
X151324527Y-101863502D01*
X151145899Y-101684873D01*
X150912510Y-101588200D01*
X150221950Y-101588200D01*
X150063200Y-101746950D01*
X149809200Y-101746950D01*
X149650450Y-101588200D01*
X148959890Y-101588200D01*
X148726501Y-101684873D01*
X148547873Y-101863502D01*
X148475603Y-102037977D01*
X148446254Y-101994053D01*
X147964485Y-101672146D01*
X147396200Y-101559107D01*
X146827915Y-101672146D01*
X146346146Y-101994053D01*
X146232859Y-102163600D01*
X144959858Y-102163600D01*
X144679523Y-101882776D01*
X144152291Y-101663850D01*
X143581413Y-101663352D01*
X143053800Y-101881357D01*
X142649776Y-102284677D01*
X142430850Y-102811909D01*
X142430352Y-103382787D01*
X135112184Y-103382787D01*
X135168713Y-103098600D01*
X135059480Y-102549449D01*
X134748411Y-102083902D01*
X134282864Y-101772833D01*
X133733713Y-101663600D01*
X133677487Y-101663600D01*
X133128336Y-101772833D01*
X132662789Y-102083902D01*
X132351720Y-102549449D01*
X132242487Y-103098600D01*
X132171440Y-103098600D01*
X132171440Y-102730400D01*
X132127162Y-102495083D01*
X131988090Y-102278959D01*
X131775890Y-102133969D01*
X131734038Y-102125494D01*
X132699332Y-101160200D01*
X133985000Y-101160200D01*
X134419346Y-101073803D01*
X134787566Y-100827766D01*
X135981366Y-99633966D01*
X136010172Y-99590855D01*
X136227403Y-99265746D01*
X136313800Y-98831400D01*
X136313800Y-97891340D01*
X136440800Y-97891340D01*
X136626860Y-97856330D01*
X136626860Y-99648900D01*
X136671138Y-99884217D01*
X136810210Y-100100341D01*
X137022410Y-100245331D01*
X137274300Y-100296340D01*
X138798300Y-100296340D01*
X139033617Y-100252062D01*
X139049399Y-100241907D01*
X139054410Y-100245331D01*
X139306300Y-100296340D01*
X140830300Y-100296340D01*
X141065617Y-100252062D01*
X141081399Y-100241907D01*
X141086410Y-100245331D01*
X141338300Y-100296340D01*
X142862300Y-100296340D01*
X143097617Y-100252062D01*
X143113399Y-100241907D01*
X143118410Y-100245331D01*
X143370300Y-100296340D01*
X144894300Y-100296340D01*
X145129617Y-100252062D01*
X145145399Y-100241907D01*
X145150410Y-100245331D01*
X145402300Y-100296340D01*
X146926300Y-100296340D01*
X147161617Y-100252062D01*
X147177399Y-100241907D01*
X147182410Y-100245331D01*
X147434300Y-100296340D01*
X148958300Y-100296340D01*
X149193617Y-100252062D01*
X149409741Y-100112990D01*
X149554731Y-99900790D01*
X149605740Y-99648900D01*
X149605740Y-97878900D01*
X150641050Y-97878900D01*
X150799800Y-97720150D01*
X150799800Y-96608900D01*
X149327905Y-96608900D01*
X149210190Y-96528469D01*
X148958300Y-96477460D01*
X147434300Y-96477460D01*
X147198983Y-96521738D01*
X147183201Y-96531893D01*
X147178190Y-96528469D01*
X146926300Y-96477460D01*
X145402300Y-96477460D01*
X145166983Y-96521738D01*
X145151201Y-96531893D01*
X145146190Y-96528469D01*
X144894300Y-96477460D01*
X143370300Y-96477460D01*
X143134983Y-96521738D01*
X143119201Y-96531893D01*
X143114190Y-96528469D01*
X142862300Y-96477460D01*
X141627072Y-96477460D01*
X144600665Y-93503867D01*
X145927678Y-94830880D01*
X145927638Y-94876367D01*
X146069683Y-95220143D01*
X146332473Y-95483392D01*
X146676001Y-95626038D01*
X147047967Y-95626362D01*
X147391743Y-95484317D01*
X147654992Y-95221527D01*
X147797638Y-94877999D01*
X147797962Y-94506033D01*
X147655917Y-94162257D01*
X147393127Y-93899008D01*
X147049599Y-93756362D01*
X147002723Y-93756321D01*
X145616569Y-92370167D01*
X145625403Y-92356946D01*
X145711800Y-91922600D01*
X145711800Y-78098490D01*
X146481055Y-78867745D01*
X146784391Y-79070427D01*
X147142200Y-79141600D01*
X150093754Y-79141600D01*
X150042762Y-79264401D01*
X150042438Y-79636367D01*
X150166800Y-79937347D01*
X150166800Y-80848460D01*
X149664800Y-80848460D01*
X149429483Y-80892738D01*
X149213359Y-81031810D01*
X149068369Y-81244010D01*
X149017360Y-81495900D01*
X149017360Y-83019900D01*
X149061638Y-83255217D01*
X149071793Y-83270999D01*
X149068369Y-83276010D01*
X149017360Y-83527900D01*
X149017360Y-85051900D01*
X149061638Y-85287217D01*
X149071793Y-85302999D01*
X149068369Y-85308010D01*
X149017360Y-85559900D01*
X149017360Y-85803200D01*
X148339663Y-85803200D01*
X148307527Y-85771008D01*
X147963999Y-85628362D01*
X147592033Y-85628038D01*
X147248257Y-85770083D01*
X146985008Y-86032873D01*
X146842362Y-86376401D01*
X146842038Y-86748367D01*
X146984083Y-87092143D01*
X147246873Y-87355392D01*
X147590401Y-87498038D01*
X147962367Y-87498362D01*
X148306143Y-87356317D01*
X148339318Y-87323200D01*
X149064201Y-87323200D01*
X149071793Y-87334999D01*
X149068369Y-87340010D01*
X149017360Y-87591900D01*
X149017360Y-89115900D01*
X149061638Y-89351217D01*
X149071793Y-89366999D01*
X149068369Y-89372010D01*
X149017360Y-89623900D01*
X149017360Y-91147900D01*
X149061638Y-91383217D01*
X149071793Y-91398999D01*
X149068369Y-91404010D01*
X149017360Y-91655900D01*
X149017360Y-93179900D01*
X149061638Y-93415217D01*
X149071793Y-93430999D01*
X149068369Y-93436010D01*
X149017360Y-93687900D01*
X149017360Y-95211900D01*
X149061638Y-95447217D01*
X149079154Y-95474438D01*
X149029800Y-95593590D01*
X149029800Y-96196150D01*
X149188550Y-96354900D01*
X150799800Y-96354900D01*
X150799800Y-96334900D01*
X151053800Y-96334900D01*
X151053800Y-96354900D01*
X151073800Y-96354900D01*
X151073800Y-96608900D01*
X151053800Y-96608900D01*
X151053800Y-97720150D01*
X151212550Y-97878900D01*
X152021000Y-97878900D01*
X152021000Y-99074400D01*
X152078852Y-99365239D01*
X152243599Y-99611801D01*
X152692999Y-100061201D01*
X152832960Y-100154720D01*
X152832960Y-100523800D01*
X152877238Y-100759117D01*
X153016310Y-100975241D01*
X153228510Y-101120231D01*
X153480400Y-101171240D01*
X155180400Y-101171240D01*
X155415717Y-101126962D01*
X155631841Y-100987890D01*
X155776831Y-100775690D01*
X155827840Y-100523800D01*
X155827840Y-98523800D01*
X155783562Y-98288483D01*
X155644490Y-98072359D01*
X155585995Y-98032391D01*
X155631841Y-98002890D01*
X155776831Y-97790690D01*
X155827840Y-97538800D01*
X155827840Y-97298800D01*
X155906360Y-97298800D01*
X155906360Y-97538800D01*
X155950638Y-97774117D01*
X156089710Y-97990241D01*
X156301910Y-98135231D01*
X156553800Y-98186240D01*
X158253800Y-98186240D01*
X158489117Y-98141962D01*
X158705241Y-98002890D01*
X158850231Y-97790690D01*
X158901240Y-97538800D01*
X158901240Y-95538800D01*
X158856962Y-95303483D01*
X158717890Y-95087359D01*
X158505690Y-94942369D01*
X158253800Y-94891360D01*
X156713115Y-94891360D01*
X156713362Y-94607633D01*
X156571317Y-94263857D01*
X156478642Y-94171020D01*
X156553800Y-94186240D01*
X158253800Y-94186240D01*
X158489117Y-94141962D01*
X158705241Y-94002890D01*
X158850231Y-93790690D01*
X158901240Y-93538800D01*
X158901240Y-91538800D01*
X158856962Y-91303483D01*
X158717890Y-91087359D01*
X158633187Y-91029484D01*
X158792101Y-90923301D01*
X161522601Y-88192801D01*
X161687348Y-87946239D01*
X161745200Y-87655400D01*
X161745200Y-75946000D01*
X161730654Y-75872873D01*
X161687348Y-75655160D01*
X161522601Y-75408599D01*
X161415000Y-75300998D01*
X161415000Y-73104154D01*
X161705054Y-72910347D01*
X162026961Y-72428578D01*
X162140000Y-71860293D01*
X162140000Y-71802107D01*
X162026961Y-71233822D01*
X161705054Y-70752053D01*
X161703821Y-70751229D01*
X161740317Y-70744362D01*
X161956441Y-70605290D01*
X162101431Y-70393090D01*
X162152440Y-70141200D01*
X162152440Y-68441200D01*
X162108162Y-68205883D01*
X161969090Y-67989759D01*
X161756890Y-67844769D01*
X161505000Y-67793760D01*
X161285920Y-67793760D01*
X161192401Y-67653799D01*
X160336601Y-66797999D01*
X160090039Y-66633252D01*
X159799200Y-66575400D01*
X152323800Y-66575400D01*
X152032961Y-66633252D01*
X151786399Y-66797999D01*
X150535199Y-68049199D01*
X150370452Y-68295761D01*
X150312600Y-68586600D01*
X150312600Y-70562360D01*
X150072600Y-70562360D01*
X149837283Y-70606638D01*
X149621159Y-70745710D01*
X149476169Y-70957910D01*
X149425160Y-71209800D01*
X149425160Y-72909800D01*
X149469438Y-73145117D01*
X149608510Y-73361241D01*
X149820710Y-73506231D01*
X149932358Y-73528840D01*
X149059920Y-74401278D01*
X149014433Y-74401238D01*
X148670657Y-74543283D01*
X148407408Y-74806073D01*
X148264762Y-75149601D01*
X148264438Y-75521567D01*
X148406483Y-75865343D01*
X148669273Y-76128592D01*
X149012801Y-76271238D01*
X149384767Y-76271562D01*
X149728543Y-76129517D01*
X149991792Y-75866727D01*
X150134438Y-75523199D01*
X150134479Y-75476323D01*
X151610001Y-74000801D01*
X151774748Y-73754239D01*
X151813934Y-73557240D01*
X152072600Y-73557240D01*
X152307917Y-73512962D01*
X152524041Y-73373890D01*
X152669031Y-73161690D01*
X152720040Y-72909800D01*
X152720040Y-71209800D01*
X152675762Y-70974483D01*
X152536690Y-70758359D01*
X152324490Y-70613369D01*
X152072600Y-70562360D01*
X151832600Y-70562360D01*
X151832600Y-68901402D01*
X152638602Y-68095400D01*
X154724852Y-68095400D01*
X154379817Y-68409842D01*
X154133514Y-68934308D01*
X154254181Y-69164200D01*
X155448000Y-69164200D01*
X155448000Y-69144200D01*
X155702000Y-69144200D01*
X155702000Y-69164200D01*
X155722000Y-69164200D01*
X155722000Y-69418200D01*
X155702000Y-69418200D01*
X155702000Y-69438200D01*
X155448000Y-69438200D01*
X155448000Y-69418200D01*
X154254181Y-69418200D01*
X154133514Y-69648092D01*
X154379817Y-70172558D01*
X154808076Y-70562845D01*
X154808101Y-70562855D01*
X154524946Y-70752053D01*
X154203039Y-71233822D01*
X154090000Y-71802107D01*
X154090000Y-71860293D01*
X154203039Y-72428578D01*
X154524946Y-72910347D01*
X154815000Y-73104154D01*
X154815000Y-73497598D01*
X153909197Y-74403401D01*
X152649199Y-74403401D01*
X152358360Y-74461253D01*
X152257987Y-74528320D01*
X152164033Y-74528238D01*
X151820257Y-74670283D01*
X151557008Y-74933073D01*
X151414362Y-75276601D01*
X151414038Y-75648567D01*
X151556083Y-75992343D01*
X151818873Y-76255592D01*
X152162401Y-76398238D01*
X152534367Y-76398562D01*
X152878143Y-76256517D01*
X153141392Y-75993727D01*
X153170594Y-75923401D01*
X154223999Y-75923401D01*
X154514838Y-75865549D01*
X154761400Y-75700802D01*
X154967400Y-75494802D01*
X154967400Y-76709160D01*
X153582000Y-76709160D01*
X153346683Y-76753438D01*
X153130559Y-76892510D01*
X152985569Y-77104710D01*
X152951773Y-77271600D01*
X147529490Y-77271600D01*
X145711800Y-75453910D01*
X145711800Y-73431816D01*
X145820710Y-73506231D01*
X146072600Y-73557240D01*
X148072600Y-73557240D01*
X148307917Y-73512962D01*
X148524041Y-73373890D01*
X148669031Y-73161690D01*
X148720040Y-72909800D01*
X148720040Y-71209800D01*
X148675762Y-70974483D01*
X148536690Y-70758359D01*
X148324490Y-70613369D01*
X148072600Y-70562360D01*
X146072600Y-70562360D01*
X145837283Y-70606638D01*
X145711800Y-70687384D01*
X145711800Y-69746732D01*
X149519566Y-65938966D01*
X149705291Y-65661009D01*
X149765603Y-65570746D01*
X149852000Y-65136400D01*
X149852000Y-64783840D01*
X150217000Y-64783840D01*
X150452317Y-64739562D01*
X150668441Y-64600490D01*
X150813431Y-64388290D01*
X150864440Y-64136400D01*
X150864440Y-62164619D01*
X155295413Y-62164619D01*
X155634955Y-62986372D01*
X156263121Y-63615636D01*
X157084281Y-63956611D01*
X157973419Y-63957387D01*
X158795172Y-63617845D01*
X159424436Y-62989679D01*
X159765411Y-62168519D01*
X159766187Y-61279381D01*
X159426645Y-60457628D01*
X158798479Y-59828364D01*
X157977319Y-59487389D01*
X157088181Y-59486613D01*
X156266428Y-59826155D01*
X155637164Y-60454321D01*
X155296189Y-61275481D01*
X155295413Y-62164619D01*
X150864440Y-62164619D01*
X150864440Y-61136400D01*
X150820162Y-60901083D01*
X150681090Y-60684959D01*
X150468890Y-60539969D01*
X150217000Y-60488960D01*
X147217000Y-60488960D01*
X146981683Y-60533238D01*
X146765559Y-60672310D01*
X146620569Y-60884510D01*
X146569560Y-61136400D01*
X146569560Y-64136400D01*
X146613838Y-64371717D01*
X146752910Y-64587841D01*
X146965110Y-64732831D01*
X147217000Y-64783840D01*
X147464428Y-64783840D01*
X143774234Y-68474034D01*
X143528197Y-68842254D01*
X143441800Y-69276600D01*
X143441800Y-70609706D01*
X143208000Y-70562360D01*
X141208000Y-70562360D01*
X140972683Y-70606638D01*
X140756559Y-70745710D01*
X140611569Y-70957910D01*
X140560560Y-71209800D01*
X140560560Y-72909800D01*
X140604838Y-73145117D01*
X140743910Y-73361241D01*
X140956110Y-73506231D01*
X141208000Y-73557240D01*
X143208000Y-73557240D01*
X143441800Y-73513247D01*
X143441800Y-91452468D01*
X139915668Y-94978600D01*
X137088240Y-94978600D01*
X137088240Y-93687900D01*
X137065830Y-93568800D01*
X137844984Y-93568800D01*
X138030967Y-93568962D01*
X138374743Y-93426917D01*
X138637992Y-93164127D01*
X138780638Y-92820599D01*
X138780962Y-92448633D01*
X138638917Y-92104857D01*
X138376127Y-91841608D01*
X138032599Y-91698962D01*
X137660633Y-91698638D01*
X137660241Y-91698800D01*
X137088240Y-91698800D01*
X137088240Y-91655900D01*
X137043962Y-91420583D01*
X137033807Y-91404801D01*
X137037231Y-91399790D01*
X137088240Y-91147900D01*
X137088240Y-89623900D01*
X137043962Y-89388583D01*
X137033807Y-89372801D01*
X137037231Y-89367790D01*
X137088240Y-89115900D01*
X137088240Y-87591900D01*
X137043962Y-87356583D01*
X137033807Y-87340801D01*
X137037231Y-87335790D01*
X137088240Y-87083900D01*
X137088240Y-86952820D01*
X137228201Y-86859301D01*
X138745401Y-85342101D01*
X138910148Y-85095539D01*
X138968000Y-84804700D01*
X138968000Y-84313748D01*
X139084683Y-84596143D01*
X139347473Y-84859392D01*
X139691001Y-85002038D01*
X140062967Y-85002362D01*
X140406743Y-84860317D01*
X140477693Y-84789490D01*
X140547473Y-84859392D01*
X140891001Y-85002038D01*
X141262967Y-85002362D01*
X141606743Y-84860317D01*
X141869992Y-84597527D01*
X142012638Y-84253999D01*
X142012962Y-83882033D01*
X141870917Y-83538257D01*
X141800090Y-83467307D01*
X141869992Y-83397527D01*
X142012638Y-83053999D01*
X142012962Y-82682033D01*
X141870917Y-82338257D01*
X141800090Y-82267307D01*
X141869992Y-82197527D01*
X142012638Y-81853999D01*
X142012962Y-81482033D01*
X141870917Y-81138257D01*
X141800090Y-81067307D01*
X141869992Y-80997527D01*
X142012638Y-80653999D01*
X142012962Y-80282033D01*
X141870917Y-79938257D01*
X141608127Y-79675008D01*
X141264599Y-79532362D01*
X140892633Y-79532038D01*
X140548857Y-79674083D01*
X140477907Y-79744910D01*
X140408127Y-79675008D01*
X140064599Y-79532362D01*
X139692633Y-79532038D01*
X139348857Y-79674083D01*
X139085608Y-79936873D01*
X138968000Y-80220103D01*
X138968000Y-73557240D01*
X139208000Y-73557240D01*
X139443317Y-73512962D01*
X139659441Y-73373890D01*
X139804431Y-73161690D01*
X139855440Y-72909800D01*
X139855440Y-71209800D01*
X139811162Y-70974483D01*
X139672090Y-70758359D01*
X139459890Y-70613369D01*
X139208000Y-70562360D01*
X137208000Y-70562360D01*
X136972683Y-70606638D01*
X136756559Y-70745710D01*
X136611569Y-70957910D01*
X136560560Y-71209800D01*
X136560560Y-72909800D01*
X136604838Y-73145117D01*
X136743910Y-73361241D01*
X136956110Y-73506231D01*
X137208000Y-73557240D01*
X137448000Y-73557240D01*
X137448000Y-74886580D01*
X137394317Y-74756657D01*
X137131527Y-74493408D01*
X136787999Y-74350762D01*
X136416033Y-74350438D01*
X136072257Y-74492483D01*
X135809008Y-74755273D01*
X135666362Y-75098801D01*
X135666321Y-75145677D01*
X134641399Y-76170599D01*
X134476652Y-76417161D01*
X134418800Y-76708000D01*
X134418800Y-80848460D01*
X133916800Y-80848460D01*
X133681483Y-80892738D01*
X133465359Y-81031810D01*
X133320369Y-81244010D01*
X133269360Y-81495900D01*
X133269360Y-81497900D01*
X130898900Y-81497900D01*
X130608061Y-81555752D01*
X130361499Y-81720499D01*
X129339817Y-82742181D01*
X129242880Y-82254849D01*
X128931811Y-81789302D01*
X128466264Y-81478233D01*
X127917113Y-81369000D01*
X127860887Y-81369000D01*
X127311736Y-81478233D01*
X126846189Y-81789302D01*
X126535120Y-82254849D01*
X126425887Y-82804000D01*
X126535120Y-83353151D01*
X126846189Y-83818698D01*
X127311736Y-84129767D01*
X127845966Y-84236032D01*
X126589599Y-85492399D01*
X126424852Y-85738961D01*
X126367000Y-86029800D01*
X126367000Y-88824960D01*
X126277000Y-88824960D01*
X126041683Y-88869238D01*
X125825559Y-89008310D01*
X125680569Y-89220510D01*
X125658699Y-89328507D01*
X125353924Y-89050755D01*
X124943890Y-88880924D01*
X124714000Y-89002245D01*
X124714000Y-90195400D01*
X124734000Y-90195400D01*
X124734000Y-90449400D01*
X124714000Y-90449400D01*
X124714000Y-91642555D01*
X124943890Y-91763876D01*
X125353924Y-91594045D01*
X125656937Y-91317899D01*
X125673838Y-91407717D01*
X125812910Y-91623841D01*
X126025110Y-91768831D01*
X126277000Y-91819840D01*
X126332758Y-91819840D01*
X125344999Y-92807599D01*
X125180252Y-93054161D01*
X125122400Y-93345000D01*
X125122400Y-93435146D01*
X124943892Y-93351314D01*
X124714000Y-93471981D01*
X124714000Y-94665800D01*
X124734000Y-94665800D01*
X124734000Y-94919800D01*
X124714000Y-94919800D01*
X124714000Y-94939800D01*
X124460000Y-94939800D01*
X124460000Y-94919800D01*
X123266845Y-94919800D01*
X123145524Y-95149690D01*
X123315355Y-95559724D01*
X123705642Y-95987983D01*
X123848553Y-96055098D01*
X123507853Y-96282746D01*
X123185946Y-96764515D01*
X123072907Y-97332800D01*
X115568800Y-97332800D01*
X115568800Y-94435910D01*
X123145524Y-94435910D01*
X123266845Y-94665800D01*
X124460000Y-94665800D01*
X124460000Y-93471981D01*
X124230108Y-93351314D01*
X123705642Y-93597617D01*
X123315355Y-94025876D01*
X123145524Y-94435910D01*
X115568800Y-94435910D01*
X115568800Y-90679292D01*
X123145514Y-90679292D01*
X123391817Y-91203758D01*
X123820076Y-91594045D01*
X124230110Y-91763876D01*
X124460000Y-91642555D01*
X124460000Y-90449400D01*
X123266181Y-90449400D01*
X123145514Y-90679292D01*
X115568800Y-90679292D01*
X115568800Y-89965508D01*
X123145514Y-89965508D01*
X123266181Y-90195400D01*
X124460000Y-90195400D01*
X124460000Y-89002245D01*
X124230110Y-88880924D01*
X123820076Y-89050755D01*
X123391817Y-89441042D01*
X123145514Y-89965508D01*
X115568800Y-89965508D01*
X115568800Y-85484600D01*
X116145560Y-85484600D01*
X116145560Y-87184600D01*
X116189838Y-87419917D01*
X116328910Y-87636041D01*
X116541110Y-87781031D01*
X116793000Y-87832040D01*
X118793000Y-87832040D01*
X119028317Y-87787762D01*
X119244441Y-87648690D01*
X119389431Y-87436490D01*
X119440440Y-87184600D01*
X119440440Y-86620350D01*
X120158000Y-86620350D01*
X120158000Y-87310910D01*
X120254673Y-87544299D01*
X120433302Y-87722927D01*
X120666691Y-87819600D01*
X121507250Y-87819600D01*
X121666000Y-87660850D01*
X121666000Y-86461600D01*
X121920000Y-86461600D01*
X121920000Y-87660850D01*
X122078750Y-87819600D01*
X122919309Y-87819600D01*
X123152698Y-87722927D01*
X123331327Y-87544299D01*
X123428000Y-87310910D01*
X123428000Y-86620350D01*
X123269250Y-86461600D01*
X121920000Y-86461600D01*
X121666000Y-86461600D01*
X120316750Y-86461600D01*
X120158000Y-86620350D01*
X119440440Y-86620350D01*
X119440440Y-85484600D01*
X119416674Y-85358290D01*
X120158000Y-85358290D01*
X120158000Y-86048850D01*
X120316750Y-86207600D01*
X121666000Y-86207600D01*
X121666000Y-85008350D01*
X121920000Y-85008350D01*
X121920000Y-86207600D01*
X123269250Y-86207600D01*
X123428000Y-86048850D01*
X123428000Y-85358290D01*
X123331327Y-85124901D01*
X123152698Y-84946273D01*
X122919309Y-84849600D01*
X122078750Y-84849600D01*
X121920000Y-85008350D01*
X121666000Y-85008350D01*
X121507250Y-84849600D01*
X120666691Y-84849600D01*
X120433302Y-84946273D01*
X120254673Y-85124901D01*
X120158000Y-85358290D01*
X119416674Y-85358290D01*
X119396162Y-85249283D01*
X119257090Y-85033159D01*
X119044890Y-84888169D01*
X118793000Y-84837160D01*
X118489000Y-84837160D01*
X118489000Y-84042646D01*
X118540800Y-84021243D01*
X118944824Y-83617923D01*
X119163750Y-83090691D01*
X119164248Y-82519813D01*
X118946243Y-81992200D01*
X118542923Y-81588176D01*
X118489000Y-81565785D01*
X118489000Y-81124440D01*
X118769800Y-81124440D01*
X119005117Y-81080162D01*
X119171277Y-80973241D01*
X119317910Y-81073431D01*
X119569800Y-81124440D01*
X121069800Y-81124440D01*
X121305117Y-81080162D01*
X121469292Y-80974518D01*
X121510101Y-81015327D01*
X121743490Y-81112000D01*
X122334050Y-81112000D01*
X122492800Y-80953250D01*
X122492800Y-79604000D01*
X122746800Y-79604000D01*
X122746800Y-80953250D01*
X122905550Y-81112000D01*
X123496110Y-81112000D01*
X123729499Y-81015327D01*
X123908127Y-80836698D01*
X124004800Y-80603309D01*
X124004800Y-79762750D01*
X123846050Y-79604000D01*
X122746800Y-79604000D01*
X122492800Y-79604000D01*
X122472800Y-79604000D01*
X122472800Y-79350000D01*
X122492800Y-79350000D01*
X122492800Y-78000750D01*
X122746800Y-78000750D01*
X122746800Y-79350000D01*
X123846050Y-79350000D01*
X124004800Y-79191250D01*
X124004800Y-78350691D01*
X123908127Y-78117302D01*
X123729499Y-77938673D01*
X123496110Y-77842000D01*
X122905550Y-77842000D01*
X122746800Y-78000750D01*
X122492800Y-78000750D01*
X122334050Y-77842000D01*
X121743490Y-77842000D01*
X121510101Y-77938673D01*
X121468140Y-77980634D01*
X121321690Y-77880569D01*
X121254800Y-77867023D01*
X121254800Y-76588367D01*
X126014038Y-76588367D01*
X126156083Y-76932143D01*
X126226910Y-77003093D01*
X126157008Y-77072873D01*
X126014362Y-77416401D01*
X126014038Y-77788367D01*
X126156083Y-78132143D01*
X126418873Y-78395392D01*
X126762401Y-78538038D01*
X127134367Y-78538362D01*
X127478143Y-78396317D01*
X127549093Y-78325490D01*
X127618873Y-78395392D01*
X127962401Y-78538038D01*
X128334367Y-78538362D01*
X128678143Y-78396317D01*
X128749093Y-78325490D01*
X128818873Y-78395392D01*
X129162401Y-78538038D01*
X129534367Y-78538362D01*
X129878143Y-78396317D01*
X129949093Y-78325490D01*
X130018873Y-78395392D01*
X130362401Y-78538038D01*
X130734367Y-78538362D01*
X131078143Y-78396317D01*
X131341392Y-78133527D01*
X131484038Y-77789999D01*
X131484362Y-77418033D01*
X131342317Y-77074257D01*
X131271490Y-77003307D01*
X131341392Y-76933527D01*
X131484038Y-76589999D01*
X131484362Y-76218033D01*
X131342317Y-75874257D01*
X131079527Y-75611008D01*
X130735999Y-75468362D01*
X130364033Y-75468038D01*
X130020257Y-75610083D01*
X129949307Y-75680910D01*
X129879527Y-75611008D01*
X129535999Y-75468362D01*
X129164033Y-75468038D01*
X128820257Y-75610083D01*
X128749307Y-75680910D01*
X128679527Y-75611008D01*
X128335999Y-75468362D01*
X127964033Y-75468038D01*
X127620257Y-75610083D01*
X127549307Y-75680910D01*
X127479527Y-75611008D01*
X127135999Y-75468362D01*
X126764033Y-75468038D01*
X126420257Y-75610083D01*
X126157008Y-75872873D01*
X126014362Y-76216401D01*
X126014038Y-76588367D01*
X121254800Y-76588367D01*
X121254800Y-74824440D01*
X122219800Y-74824440D01*
X122455117Y-74780162D01*
X122671241Y-74641090D01*
X122816231Y-74428890D01*
X122867240Y-74177000D01*
X122867240Y-72177000D01*
X122822962Y-71941683D01*
X122683890Y-71725559D01*
X122471690Y-71580569D01*
X122219800Y-71529560D01*
X120277492Y-71529560D01*
X120036332Y-71288400D01*
X129871360Y-71288400D01*
X129871360Y-73288400D01*
X129915638Y-73523717D01*
X130054710Y-73739841D01*
X130266910Y-73884831D01*
X130518800Y-73935840D01*
X132218800Y-73935840D01*
X132454117Y-73891562D01*
X132670241Y-73752490D01*
X132815231Y-73540290D01*
X132866240Y-73288400D01*
X132866240Y-73223400D01*
X133832600Y-73223400D01*
X134190409Y-73152227D01*
X134493745Y-72949545D01*
X134606459Y-72836831D01*
X134717907Y-72859000D01*
X134776093Y-72859000D01*
X135344378Y-72745961D01*
X135826147Y-72424054D01*
X136148054Y-71942285D01*
X136261093Y-71374000D01*
X136148054Y-70805715D01*
X135826147Y-70323946D01*
X135782223Y-70294597D01*
X135956698Y-70222327D01*
X136135327Y-70043699D01*
X136232000Y-69810310D01*
X136232000Y-69119750D01*
X136073250Y-68961000D01*
X134874000Y-68961000D01*
X134874000Y-68981000D01*
X134620000Y-68981000D01*
X134620000Y-68961000D01*
X133420750Y-68961000D01*
X133262000Y-69119750D01*
X133262000Y-69810310D01*
X133358673Y-70043699D01*
X133537302Y-70222327D01*
X133711777Y-70294597D01*
X133667853Y-70323946D01*
X133345946Y-70805715D01*
X133237005Y-71353400D01*
X132866240Y-71353400D01*
X132866240Y-71288400D01*
X132821962Y-71053083D01*
X132682890Y-70836959D01*
X132470690Y-70691969D01*
X132218800Y-70640960D01*
X130518800Y-70640960D01*
X130283483Y-70685238D01*
X130067359Y-70824310D01*
X129922369Y-71036510D01*
X129871360Y-71288400D01*
X120036332Y-71288400D01*
X119205605Y-70457673D01*
X119405827Y-70158019D01*
X119477609Y-69797145D01*
X121142277Y-68132477D01*
X121409991Y-67731814D01*
X121504000Y-67259200D01*
X121504000Y-64369467D01*
X122077909Y-63796559D01*
X122403628Y-63012141D01*
X122404370Y-62162785D01*
X122080020Y-61377800D01*
X121788330Y-61085600D01*
X123201560Y-61085600D01*
X123201560Y-64085600D01*
X123245838Y-64320917D01*
X123384910Y-64537041D01*
X123597110Y-64682031D01*
X123849000Y-64733040D01*
X124114000Y-64733040D01*
X124114000Y-66802000D01*
X124208009Y-67274614D01*
X124475723Y-67675277D01*
X126570160Y-69769714D01*
X126570160Y-70470600D01*
X126614438Y-70705917D01*
X126753510Y-70922041D01*
X126965710Y-71067031D01*
X127217600Y-71118040D01*
X129017600Y-71118040D01*
X129252917Y-71073762D01*
X129469041Y-70934690D01*
X129614031Y-70722490D01*
X129665040Y-70470600D01*
X129665040Y-68670600D01*
X129620762Y-68435283D01*
X129481690Y-68219159D01*
X129269490Y-68074169D01*
X129017600Y-68023160D01*
X128316714Y-68023160D01*
X126584000Y-66290446D01*
X126584000Y-64733040D01*
X126849000Y-64733040D01*
X127084317Y-64688762D01*
X127300441Y-64549690D01*
X127445431Y-64337490D01*
X127496440Y-64085600D01*
X127496440Y-63970600D01*
X130268160Y-63970600D01*
X130742041Y-64445309D01*
X131018000Y-64559897D01*
X131018000Y-66640960D01*
X130518800Y-66640960D01*
X130283483Y-66685238D01*
X130067359Y-66824310D01*
X129922369Y-67036510D01*
X129871360Y-67288400D01*
X129871360Y-69288400D01*
X129915638Y-69523717D01*
X130054710Y-69739841D01*
X130266910Y-69884831D01*
X130518800Y-69935840D01*
X132218800Y-69935840D01*
X132454117Y-69891562D01*
X132670241Y-69752490D01*
X132815231Y-69540290D01*
X132866240Y-69288400D01*
X132866240Y-67857690D01*
X133262000Y-67857690D01*
X133262000Y-68548250D01*
X133420750Y-68707000D01*
X134620000Y-68707000D01*
X134620000Y-67507750D01*
X134874000Y-67507750D01*
X134874000Y-68707000D01*
X136073250Y-68707000D01*
X136232000Y-68548250D01*
X136232000Y-67857690D01*
X136135327Y-67624301D01*
X135956698Y-67445673D01*
X135723309Y-67349000D01*
X135032750Y-67349000D01*
X134874000Y-67507750D01*
X134620000Y-67507750D01*
X134461250Y-67349000D01*
X133770691Y-67349000D01*
X133537302Y-67445673D01*
X133358673Y-67624301D01*
X133262000Y-67857690D01*
X132866240Y-67857690D01*
X132866240Y-67813598D01*
X132888001Y-67704200D01*
X132888000Y-67704195D01*
X132888000Y-64560139D01*
X133160800Y-64447420D01*
X133761909Y-63847359D01*
X134087628Y-63062941D01*
X134087750Y-62922150D01*
X134898000Y-62922150D01*
X134898000Y-64262710D01*
X134994673Y-64496099D01*
X135173302Y-64674727D01*
X135406691Y-64771400D01*
X136747250Y-64771400D01*
X136906000Y-64612650D01*
X136906000Y-62763400D01*
X137160000Y-62763400D01*
X137160000Y-64612650D01*
X137318750Y-64771400D01*
X138659309Y-64771400D01*
X138892698Y-64674727D01*
X139071327Y-64496099D01*
X139168000Y-64262710D01*
X139168000Y-64150370D01*
X142302635Y-64150370D01*
X142462418Y-64469139D01*
X143253187Y-64779123D01*
X144102387Y-64762897D01*
X144811582Y-64469139D01*
X144971365Y-64150370D01*
X143637000Y-62816005D01*
X142302635Y-64150370D01*
X139168000Y-64150370D01*
X139168000Y-62922150D01*
X139009250Y-62763400D01*
X137160000Y-62763400D01*
X136906000Y-62763400D01*
X135056750Y-62763400D01*
X134898000Y-62922150D01*
X134087750Y-62922150D01*
X134088370Y-62213585D01*
X133764020Y-61428600D01*
X133346240Y-61010090D01*
X134898000Y-61010090D01*
X134898000Y-62350650D01*
X135056750Y-62509400D01*
X136906000Y-62509400D01*
X136906000Y-60660150D01*
X137160000Y-60660150D01*
X137160000Y-62509400D01*
X139009250Y-62509400D01*
X139168000Y-62350650D01*
X139168000Y-62252587D01*
X141494277Y-62252587D01*
X141510503Y-63101787D01*
X141804261Y-63810982D01*
X142123030Y-63970765D01*
X143457395Y-62636400D01*
X143816605Y-62636400D01*
X145150970Y-63970765D01*
X145469739Y-63810982D01*
X145779723Y-63020213D01*
X145763497Y-62171013D01*
X145469739Y-61461818D01*
X145150970Y-61302035D01*
X143816605Y-62636400D01*
X143457395Y-62636400D01*
X142123030Y-61302035D01*
X141804261Y-61461818D01*
X141494277Y-62252587D01*
X139168000Y-62252587D01*
X139168000Y-61122430D01*
X142302635Y-61122430D01*
X143637000Y-62456795D01*
X144971365Y-61122430D01*
X144811582Y-60803661D01*
X144020813Y-60493677D01*
X143171613Y-60509903D01*
X142462418Y-60803661D01*
X142302635Y-61122430D01*
X139168000Y-61122430D01*
X139168000Y-61010090D01*
X139071327Y-60776701D01*
X138892698Y-60598073D01*
X138659309Y-60501400D01*
X137318750Y-60501400D01*
X137160000Y-60660150D01*
X136906000Y-60660150D01*
X136747250Y-60501400D01*
X135406691Y-60501400D01*
X135173302Y-60598073D01*
X134994673Y-60776701D01*
X134898000Y-61010090D01*
X133346240Y-61010090D01*
X133163959Y-60827491D01*
X132379541Y-60501772D01*
X131530185Y-60501030D01*
X130745200Y-60825380D01*
X130369325Y-61200600D01*
X127496440Y-61200600D01*
X127496440Y-61085600D01*
X127452162Y-60850283D01*
X127313090Y-60634159D01*
X127100890Y-60489169D01*
X126849000Y-60438160D01*
X123849000Y-60438160D01*
X123613683Y-60482438D01*
X123397559Y-60621510D01*
X123252569Y-60833710D01*
X123201560Y-61085600D01*
X121788330Y-61085600D01*
X121479959Y-60776691D01*
X120695541Y-60450972D01*
X119846185Y-60450230D01*
X119061200Y-60774580D01*
X118460091Y-61374641D01*
X118134372Y-62159059D01*
X118133630Y-63008415D01*
X118457980Y-63793400D01*
X119034000Y-64370426D01*
X119034000Y-66747646D01*
X117700983Y-68080663D01*
X117340109Y-68152445D01*
X116842119Y-68485191D01*
X116509373Y-68983181D01*
X116392528Y-69570600D01*
X116509373Y-70158019D01*
X116822600Y-70626797D01*
X116822600Y-70814800D01*
X116908997Y-71249146D01*
X117143467Y-71600055D01*
X117155034Y-71617366D01*
X117772360Y-72234692D01*
X117772360Y-74177000D01*
X117816638Y-74412317D01*
X117955710Y-74628441D01*
X118167910Y-74773431D01*
X118419800Y-74824440D01*
X119384800Y-74824440D01*
X119384800Y-77864370D01*
X119334483Y-77873838D01*
X119168323Y-77980759D01*
X119021690Y-77880569D01*
X118769800Y-77829560D01*
X117269800Y-77829560D01*
X117034483Y-77873838D01*
X116818359Y-78012910D01*
X116673369Y-78225110D01*
X116622360Y-78477000D01*
X116622360Y-80477000D01*
X116666638Y-80712317D01*
X116805710Y-80928441D01*
X116969000Y-81040012D01*
X116969000Y-81565354D01*
X116917200Y-81586757D01*
X116513176Y-81990077D01*
X116294250Y-82517309D01*
X116293752Y-83088187D01*
X116511757Y-83615800D01*
X116915077Y-84019824D01*
X116969000Y-84042215D01*
X116969000Y-84837160D01*
X116793000Y-84837160D01*
X116557683Y-84881438D01*
X116341559Y-85020510D01*
X116196569Y-85232710D01*
X116145560Y-85484600D01*
X115568800Y-85484600D01*
X115568800Y-57199600D01*
X162713600Y-57199600D01*
X162713600Y-105741400D01*
X162713600Y-105741400D01*
G37*
X162713600Y-105741400D02*
X115568800Y-105741400D01*
X115568800Y-102855419D01*
X116636613Y-102855419D01*
X116976155Y-103677172D01*
X117604321Y-104306436D01*
X118425481Y-104647411D01*
X119314619Y-104648187D01*
X120136372Y-104308645D01*
X120629727Y-103816150D01*
X124889000Y-103816150D01*
X124889000Y-104456710D01*
X124985673Y-104690099D01*
X125164302Y-104868727D01*
X125397691Y-104965400D01*
X126238250Y-104965400D01*
X126397000Y-104806650D01*
X126397000Y-103657400D01*
X126651000Y-103657400D01*
X126651000Y-104806650D01*
X126809750Y-104965400D01*
X127650309Y-104965400D01*
X127883698Y-104868727D01*
X128062327Y-104690099D01*
X128159000Y-104456710D01*
X128159000Y-103816150D01*
X128000250Y-103657400D01*
X126651000Y-103657400D01*
X126397000Y-103657400D01*
X125047750Y-103657400D01*
X124889000Y-103816150D01*
X120629727Y-103816150D01*
X120765636Y-103680479D01*
X121106611Y-102859319D01*
X121106833Y-102604090D01*
X124889000Y-102604090D01*
X124889000Y-103244650D01*
X125047750Y-103403400D01*
X126397000Y-103403400D01*
X126397000Y-102254150D01*
X126651000Y-102254150D01*
X126651000Y-103403400D01*
X128000250Y-103403400D01*
X128159000Y-103244650D01*
X128159000Y-102604090D01*
X128062327Y-102370701D01*
X127883698Y-102192073D01*
X127650309Y-102095400D01*
X126809750Y-102095400D01*
X126651000Y-102254150D01*
X126397000Y-102254150D01*
X126238250Y-102095400D01*
X125397691Y-102095400D01*
X125164302Y-102192073D01*
X124985673Y-102370701D01*
X124889000Y-102604090D01*
X121106833Y-102604090D01*
X121107387Y-101970181D01*
X120767845Y-101148428D01*
X120139679Y-100519164D01*
X119318519Y-100178189D01*
X118429381Y-100177413D01*
X117607628Y-100516955D01*
X116978364Y-101145121D01*
X116637389Y-101966281D01*
X116636613Y-102855419D01*
X115568800Y-102855419D01*
X115568800Y-97332800D01*
X123072907Y-97332800D01*
X123185946Y-97901085D01*
X123507853Y-98382854D01*
X123837026Y-98602800D01*
X123507853Y-98822746D01*
X123185946Y-99304515D01*
X123072907Y-99872800D01*
X123185946Y-100441085D01*
X123507853Y-100922854D01*
X123989622Y-101244761D01*
X124557907Y-101357800D01*
X124616093Y-101357800D01*
X125184378Y-101244761D01*
X125666147Y-100922854D01*
X125666971Y-100921621D01*
X125673838Y-100958117D01*
X125812910Y-101174241D01*
X126025110Y-101319231D01*
X126277000Y-101370240D01*
X127977000Y-101370240D01*
X128212317Y-101325962D01*
X128428441Y-101186890D01*
X128550808Y-101007800D01*
X128596274Y-101007800D01*
X128695054Y-101073803D01*
X129129400Y-101160200D01*
X129566172Y-101160200D01*
X129475397Y-101296054D01*
X129389000Y-101730400D01*
X129389000Y-102108362D01*
X129288683Y-102127238D01*
X129072559Y-102266310D01*
X128927569Y-102478510D01*
X128876560Y-102730400D01*
X128876560Y-104330400D01*
X128920838Y-104565717D01*
X129059910Y-104781841D01*
X129272110Y-104926831D01*
X129524000Y-104977840D01*
X131524000Y-104977840D01*
X131759317Y-104933562D01*
X131975441Y-104794490D01*
X132120431Y-104582290D01*
X132171440Y-104330400D01*
X132171440Y-103098600D01*
X132242487Y-103098600D01*
X132351720Y-103647751D01*
X132662789Y-104113298D01*
X133128336Y-104424367D01*
X133677487Y-104533600D01*
X133733713Y-104533600D01*
X134282864Y-104424367D01*
X134748411Y-104113298D01*
X135059480Y-103647751D01*
X135112184Y-103382787D01*
X142430352Y-103382787D01*
X142648357Y-103910400D01*
X143051677Y-104314424D01*
X143578909Y-104533350D01*
X144149787Y-104533848D01*
X144677400Y-104315843D01*
X144960136Y-104033600D01*
X146266802Y-104033600D01*
X146346146Y-104152347D01*
X146827915Y-104474254D01*
X147396200Y-104587293D01*
X147964485Y-104474254D01*
X148446254Y-104152347D01*
X148475603Y-104108423D01*
X148547873Y-104282898D01*
X148726501Y-104461527D01*
X148959890Y-104558200D01*
X149650450Y-104558200D01*
X149809200Y-104399450D01*
X149809200Y-103200200D01*
X150063200Y-103200200D01*
X150063200Y-104399450D01*
X150221950Y-104558200D01*
X150912510Y-104558200D01*
X151145899Y-104461527D01*
X151324527Y-104282898D01*
X151421200Y-104049509D01*
X151421200Y-103809550D01*
X152845400Y-103809550D01*
X152845400Y-104650109D01*
X152942073Y-104883498D01*
X153120701Y-105062127D01*
X153354090Y-105158800D01*
X154044650Y-105158800D01*
X154203400Y-105000050D01*
X154203400Y-103650800D01*
X154457400Y-103650800D01*
X154457400Y-105000050D01*
X154616150Y-105158800D01*
X155306710Y-105158800D01*
X155540099Y-105062127D01*
X155718727Y-104883498D01*
X155815400Y-104650109D01*
X155815400Y-103809550D01*
X155656650Y-103650800D01*
X154457400Y-103650800D01*
X154203400Y-103650800D01*
X153004150Y-103650800D01*
X152845400Y-103809550D01*
X151421200Y-103809550D01*
X151421200Y-103358950D01*
X151262450Y-103200200D01*
X150063200Y-103200200D01*
X149809200Y-103200200D01*
X149789200Y-103200200D01*
X149789200Y-102946200D01*
X149809200Y-102946200D01*
X149809200Y-101746950D01*
X150063200Y-101746950D01*
X150063200Y-102946200D01*
X151262450Y-102946200D01*
X151421200Y-102787450D01*
X151421200Y-102397491D01*
X152845400Y-102397491D01*
X152845400Y-103238050D01*
X153004150Y-103396800D01*
X154203400Y-103396800D01*
X154203400Y-102047550D01*
X154457400Y-102047550D01*
X154457400Y-103396800D01*
X155656650Y-103396800D01*
X155815400Y-103238050D01*
X155815400Y-102397491D01*
X155718727Y-102164102D01*
X155540099Y-101985473D01*
X155306710Y-101888800D01*
X154616150Y-101888800D01*
X154457400Y-102047550D01*
X154203400Y-102047550D01*
X154044650Y-101888800D01*
X153354090Y-101888800D01*
X153120701Y-101985473D01*
X152942073Y-102164102D01*
X152845400Y-102397491D01*
X151421200Y-102397491D01*
X151421200Y-102096891D01*
X151324527Y-101863502D01*
X151145899Y-101684873D01*
X150912510Y-101588200D01*
X150221950Y-101588200D01*
X150063200Y-101746950D01*
X149809200Y-101746950D01*
X149650450Y-101588200D01*
X148959890Y-101588200D01*
X148726501Y-101684873D01*
X148547873Y-101863502D01*
X148475603Y-102037977D01*
X148446254Y-101994053D01*
X147964485Y-101672146D01*
X147396200Y-101559107D01*
X146827915Y-101672146D01*
X146346146Y-101994053D01*
X146232859Y-102163600D01*
X144959858Y-102163600D01*
X144679523Y-101882776D01*
X144152291Y-101663850D01*
X143581413Y-101663352D01*
X143053800Y-101881357D01*
X142649776Y-102284677D01*
X142430850Y-102811909D01*
X142430352Y-103382787D01*
X135112184Y-103382787D01*
X135168713Y-103098600D01*
X135059480Y-102549449D01*
X134748411Y-102083902D01*
X134282864Y-101772833D01*
X133733713Y-101663600D01*
X133677487Y-101663600D01*
X133128336Y-101772833D01*
X132662789Y-102083902D01*
X132351720Y-102549449D01*
X132242487Y-103098600D01*
X132171440Y-103098600D01*
X132171440Y-102730400D01*
X132127162Y-102495083D01*
X131988090Y-102278959D01*
X131775890Y-102133969D01*
X131734038Y-102125494D01*
X132699332Y-101160200D01*
X133985000Y-101160200D01*
X134419346Y-101073803D01*
X134787566Y-100827766D01*
X135981366Y-99633966D01*
X136010172Y-99590855D01*
X136227403Y-99265746D01*
X136313800Y-98831400D01*
X136313800Y-97891340D01*
X136440800Y-97891340D01*
X136626860Y-97856330D01*
X136626860Y-99648900D01*
X136671138Y-99884217D01*
X136810210Y-100100341D01*
X137022410Y-100245331D01*
X137274300Y-100296340D01*
X138798300Y-100296340D01*
X139033617Y-100252062D01*
X139049399Y-100241907D01*
X139054410Y-100245331D01*
X139306300Y-100296340D01*
X140830300Y-100296340D01*
X141065617Y-100252062D01*
X141081399Y-100241907D01*
X141086410Y-100245331D01*
X141338300Y-100296340D01*
X142862300Y-100296340D01*
X143097617Y-100252062D01*
X143113399Y-100241907D01*
X143118410Y-100245331D01*
X143370300Y-100296340D01*
X144894300Y-100296340D01*
X145129617Y-100252062D01*
X145145399Y-100241907D01*
X145150410Y-100245331D01*
X145402300Y-100296340D01*
X146926300Y-100296340D01*
X147161617Y-100252062D01*
X147177399Y-100241907D01*
X147182410Y-100245331D01*
X147434300Y-100296340D01*
X148958300Y-100296340D01*
X149193617Y-100252062D01*
X149409741Y-100112990D01*
X149554731Y-99900790D01*
X149605740Y-99648900D01*
X149605740Y-97878900D01*
X150641050Y-97878900D01*
X150799800Y-97720150D01*
X150799800Y-96608900D01*
X149327905Y-96608900D01*
X149210190Y-96528469D01*
X148958300Y-96477460D01*
X147434300Y-96477460D01*
X147198983Y-96521738D01*
X147183201Y-96531893D01*
X147178190Y-96528469D01*
X146926300Y-96477460D01*
X145402300Y-96477460D01*
X145166983Y-96521738D01*
X145151201Y-96531893D01*
X145146190Y-96528469D01*
X144894300Y-96477460D01*
X143370300Y-96477460D01*
X143134983Y-96521738D01*
X143119201Y-96531893D01*
X143114190Y-96528469D01*
X142862300Y-96477460D01*
X141627072Y-96477460D01*
X144600665Y-93503867D01*
X145927678Y-94830880D01*
X145927638Y-94876367D01*
X146069683Y-95220143D01*
X146332473Y-95483392D01*
X146676001Y-95626038D01*
X147047967Y-95626362D01*
X147391743Y-95484317D01*
X147654992Y-95221527D01*
X147797638Y-94877999D01*
X147797962Y-94506033D01*
X147655917Y-94162257D01*
X147393127Y-93899008D01*
X147049599Y-93756362D01*
X147002723Y-93756321D01*
X145616569Y-92370167D01*
X145625403Y-92356946D01*
X145711800Y-91922600D01*
X145711800Y-78098490D01*
X146481055Y-78867745D01*
X146784391Y-79070427D01*
X147142200Y-79141600D01*
X150093754Y-79141600D01*
X150042762Y-79264401D01*
X150042438Y-79636367D01*
X150166800Y-79937347D01*
X150166800Y-80848460D01*
X149664800Y-80848460D01*
X149429483Y-80892738D01*
X149213359Y-81031810D01*
X149068369Y-81244010D01*
X149017360Y-81495900D01*
X149017360Y-83019900D01*
X149061638Y-83255217D01*
X149071793Y-83270999D01*
X149068369Y-83276010D01*
X149017360Y-83527900D01*
X149017360Y-85051900D01*
X149061638Y-85287217D01*
X149071793Y-85302999D01*
X149068369Y-85308010D01*
X149017360Y-85559900D01*
X149017360Y-85803200D01*
X148339663Y-85803200D01*
X148307527Y-85771008D01*
X147963999Y-85628362D01*
X147592033Y-85628038D01*
X147248257Y-85770083D01*
X146985008Y-86032873D01*
X146842362Y-86376401D01*
X146842038Y-86748367D01*
X146984083Y-87092143D01*
X147246873Y-87355392D01*
X147590401Y-87498038D01*
X147962367Y-87498362D01*
X148306143Y-87356317D01*
X148339318Y-87323200D01*
X149064201Y-87323200D01*
X149071793Y-87334999D01*
X149068369Y-87340010D01*
X149017360Y-87591900D01*
X149017360Y-89115900D01*
X149061638Y-89351217D01*
X149071793Y-89366999D01*
X149068369Y-89372010D01*
X149017360Y-89623900D01*
X149017360Y-91147900D01*
X149061638Y-91383217D01*
X149071793Y-91398999D01*
X149068369Y-91404010D01*
X149017360Y-91655900D01*
X149017360Y-93179900D01*
X149061638Y-93415217D01*
X149071793Y-93430999D01*
X149068369Y-93436010D01*
X149017360Y-93687900D01*
X149017360Y-95211900D01*
X149061638Y-95447217D01*
X149079154Y-95474438D01*
X149029800Y-95593590D01*
X149029800Y-96196150D01*
X149188550Y-96354900D01*
X150799800Y-96354900D01*
X150799800Y-96334900D01*
X151053800Y-96334900D01*
X151053800Y-96354900D01*
X151073800Y-96354900D01*
X151073800Y-96608900D01*
X151053800Y-96608900D01*
X151053800Y-97720150D01*
X151212550Y-97878900D01*
X152021000Y-97878900D01*
X152021000Y-99074400D01*
X152078852Y-99365239D01*
X152243599Y-99611801D01*
X152692999Y-100061201D01*
X152832960Y-100154720D01*
X152832960Y-100523800D01*
X152877238Y-100759117D01*
X153016310Y-100975241D01*
X153228510Y-101120231D01*
X153480400Y-101171240D01*
X155180400Y-101171240D01*
X155415717Y-101126962D01*
X155631841Y-100987890D01*
X155776831Y-100775690D01*
X155827840Y-100523800D01*
X155827840Y-98523800D01*
X155783562Y-98288483D01*
X155644490Y-98072359D01*
X155585995Y-98032391D01*
X155631841Y-98002890D01*
X155776831Y-97790690D01*
X155827840Y-97538800D01*
X155827840Y-97298800D01*
X155906360Y-97298800D01*
X155906360Y-97538800D01*
X155950638Y-97774117D01*
X156089710Y-97990241D01*
X156301910Y-98135231D01*
X156553800Y-98186240D01*
X158253800Y-98186240D01*
X158489117Y-98141962D01*
X158705241Y-98002890D01*
X158850231Y-97790690D01*
X158901240Y-97538800D01*
X158901240Y-95538800D01*
X158856962Y-95303483D01*
X158717890Y-95087359D01*
X158505690Y-94942369D01*
X158253800Y-94891360D01*
X156713115Y-94891360D01*
X156713362Y-94607633D01*
X156571317Y-94263857D01*
X156478642Y-94171020D01*
X156553800Y-94186240D01*
X158253800Y-94186240D01*
X158489117Y-94141962D01*
X158705241Y-94002890D01*
X158850231Y-93790690D01*
X158901240Y-93538800D01*
X158901240Y-91538800D01*
X158856962Y-91303483D01*
X158717890Y-91087359D01*
X158633187Y-91029484D01*
X158792101Y-90923301D01*
X161522601Y-88192801D01*
X161687348Y-87946239D01*
X161745200Y-87655400D01*
X161745200Y-75946000D01*
X161730654Y-75872873D01*
X161687348Y-75655160D01*
X161522601Y-75408599D01*
X161415000Y-75300998D01*
X161415000Y-73104154D01*
X161705054Y-72910347D01*
X162026961Y-72428578D01*
X162140000Y-71860293D01*
X162140000Y-71802107D01*
X162026961Y-71233822D01*
X161705054Y-70752053D01*
X161703821Y-70751229D01*
X161740317Y-70744362D01*
X161956441Y-70605290D01*
X162101431Y-70393090D01*
X162152440Y-70141200D01*
X162152440Y-68441200D01*
X162108162Y-68205883D01*
X161969090Y-67989759D01*
X161756890Y-67844769D01*
X161505000Y-67793760D01*
X161285920Y-67793760D01*
X161192401Y-67653799D01*
X160336601Y-66797999D01*
X160090039Y-66633252D01*
X159799200Y-66575400D01*
X152323800Y-66575400D01*
X152032961Y-66633252D01*
X151786399Y-66797999D01*
X150535199Y-68049199D01*
X150370452Y-68295761D01*
X150312600Y-68586600D01*
X150312600Y-70562360D01*
X150072600Y-70562360D01*
X149837283Y-70606638D01*
X149621159Y-70745710D01*
X149476169Y-70957910D01*
X149425160Y-71209800D01*
X149425160Y-72909800D01*
X149469438Y-73145117D01*
X149608510Y-73361241D01*
X149820710Y-73506231D01*
X149932358Y-73528840D01*
X149059920Y-74401278D01*
X149014433Y-74401238D01*
X148670657Y-74543283D01*
X148407408Y-74806073D01*
X148264762Y-75149601D01*
X148264438Y-75521567D01*
X148406483Y-75865343D01*
X148669273Y-76128592D01*
X149012801Y-76271238D01*
X149384767Y-76271562D01*
X149728543Y-76129517D01*
X149991792Y-75866727D01*
X150134438Y-75523199D01*
X150134479Y-75476323D01*
X151610001Y-74000801D01*
X151774748Y-73754239D01*
X151813934Y-73557240D01*
X152072600Y-73557240D01*
X152307917Y-73512962D01*
X152524041Y-73373890D01*
X152669031Y-73161690D01*
X152720040Y-72909800D01*
X152720040Y-71209800D01*
X152675762Y-70974483D01*
X152536690Y-70758359D01*
X152324490Y-70613369D01*
X152072600Y-70562360D01*
X151832600Y-70562360D01*
X151832600Y-68901402D01*
X152638602Y-68095400D01*
X154724852Y-68095400D01*
X154379817Y-68409842D01*
X154133514Y-68934308D01*
X154254181Y-69164200D01*
X155448000Y-69164200D01*
X155448000Y-69144200D01*
X155702000Y-69144200D01*
X155702000Y-69164200D01*
X155722000Y-69164200D01*
X155722000Y-69418200D01*
X155702000Y-69418200D01*
X155702000Y-69438200D01*
X155448000Y-69438200D01*
X155448000Y-69418200D01*
X154254181Y-69418200D01*
X154133514Y-69648092D01*
X154379817Y-70172558D01*
X154808076Y-70562845D01*
X154808101Y-70562855D01*
X154524946Y-70752053D01*
X154203039Y-71233822D01*
X154090000Y-71802107D01*
X154090000Y-71860293D01*
X154203039Y-72428578D01*
X154524946Y-72910347D01*
X154815000Y-73104154D01*
X154815000Y-73497598D01*
X153909197Y-74403401D01*
X152649199Y-74403401D01*
X152358360Y-74461253D01*
X152257987Y-74528320D01*
X152164033Y-74528238D01*
X151820257Y-74670283D01*
X151557008Y-74933073D01*
X151414362Y-75276601D01*
X151414038Y-75648567D01*
X151556083Y-75992343D01*
X151818873Y-76255592D01*
X152162401Y-76398238D01*
X152534367Y-76398562D01*
X152878143Y-76256517D01*
X153141392Y-75993727D01*
X153170594Y-75923401D01*
X154223999Y-75923401D01*
X154514838Y-75865549D01*
X154761400Y-75700802D01*
X154967400Y-75494802D01*
X154967400Y-76709160D01*
X153582000Y-76709160D01*
X153346683Y-76753438D01*
X153130559Y-76892510D01*
X152985569Y-77104710D01*
X152951773Y-77271600D01*
X147529490Y-77271600D01*
X145711800Y-75453910D01*
X145711800Y-73431816D01*
X145820710Y-73506231D01*
X146072600Y-73557240D01*
X148072600Y-73557240D01*
X148307917Y-73512962D01*
X148524041Y-73373890D01*
X148669031Y-73161690D01*
X148720040Y-72909800D01*
X148720040Y-71209800D01*
X148675762Y-70974483D01*
X148536690Y-70758359D01*
X148324490Y-70613369D01*
X148072600Y-70562360D01*
X146072600Y-70562360D01*
X145837283Y-70606638D01*
X145711800Y-70687384D01*
X145711800Y-69746732D01*
X149519566Y-65938966D01*
X149705291Y-65661009D01*
X149765603Y-65570746D01*
X149852000Y-65136400D01*
X149852000Y-64783840D01*
X150217000Y-64783840D01*
X150452317Y-64739562D01*
X150668441Y-64600490D01*
X150813431Y-64388290D01*
X150864440Y-64136400D01*
X150864440Y-62164619D01*
X155295413Y-62164619D01*
X155634955Y-62986372D01*
X156263121Y-63615636D01*
X157084281Y-63956611D01*
X157973419Y-63957387D01*
X158795172Y-63617845D01*
X159424436Y-62989679D01*
X159765411Y-62168519D01*
X159766187Y-61279381D01*
X159426645Y-60457628D01*
X158798479Y-59828364D01*
X157977319Y-59487389D01*
X157088181Y-59486613D01*
X156266428Y-59826155D01*
X155637164Y-60454321D01*
X155296189Y-61275481D01*
X155295413Y-62164619D01*
X150864440Y-62164619D01*
X150864440Y-61136400D01*
X150820162Y-60901083D01*
X150681090Y-60684959D01*
X150468890Y-60539969D01*
X150217000Y-60488960D01*
X147217000Y-60488960D01*
X146981683Y-60533238D01*
X146765559Y-60672310D01*
X146620569Y-60884510D01*
X146569560Y-61136400D01*
X146569560Y-64136400D01*
X146613838Y-64371717D01*
X146752910Y-64587841D01*
X146965110Y-64732831D01*
X147217000Y-64783840D01*
X147464428Y-64783840D01*
X143774234Y-68474034D01*
X143528197Y-68842254D01*
X143441800Y-69276600D01*
X143441800Y-70609706D01*
X143208000Y-70562360D01*
X141208000Y-70562360D01*
X140972683Y-70606638D01*
X140756559Y-70745710D01*
X140611569Y-70957910D01*
X140560560Y-71209800D01*
X140560560Y-72909800D01*
X140604838Y-73145117D01*
X140743910Y-73361241D01*
X140956110Y-73506231D01*
X141208000Y-73557240D01*
X143208000Y-73557240D01*
X143441800Y-73513247D01*
X143441800Y-91452468D01*
X139915668Y-94978600D01*
X137088240Y-94978600D01*
X137088240Y-93687900D01*
X137065830Y-93568800D01*
X137844984Y-93568800D01*
X138030967Y-93568962D01*
X138374743Y-93426917D01*
X138637992Y-93164127D01*
X138780638Y-92820599D01*
X138780962Y-92448633D01*
X138638917Y-92104857D01*
X138376127Y-91841608D01*
X138032599Y-91698962D01*
X137660633Y-91698638D01*
X137660241Y-91698800D01*
X137088240Y-91698800D01*
X137088240Y-91655900D01*
X137043962Y-91420583D01*
X137033807Y-91404801D01*
X137037231Y-91399790D01*
X137088240Y-91147900D01*
X137088240Y-89623900D01*
X137043962Y-89388583D01*
X137033807Y-89372801D01*
X137037231Y-89367790D01*
X137088240Y-89115900D01*
X137088240Y-87591900D01*
X137043962Y-87356583D01*
X137033807Y-87340801D01*
X137037231Y-87335790D01*
X137088240Y-87083900D01*
X137088240Y-86952820D01*
X137228201Y-86859301D01*
X138745401Y-85342101D01*
X138910148Y-85095539D01*
X138968000Y-84804700D01*
X138968000Y-84313748D01*
X139084683Y-84596143D01*
X139347473Y-84859392D01*
X139691001Y-85002038D01*
X140062967Y-85002362D01*
X140406743Y-84860317D01*
X140477693Y-84789490D01*
X140547473Y-84859392D01*
X140891001Y-85002038D01*
X141262967Y-85002362D01*
X141606743Y-84860317D01*
X141869992Y-84597527D01*
X142012638Y-84253999D01*
X142012962Y-83882033D01*
X141870917Y-83538257D01*
X141800090Y-83467307D01*
X141869992Y-83397527D01*
X142012638Y-83053999D01*
X142012962Y-82682033D01*
X141870917Y-82338257D01*
X141800090Y-82267307D01*
X141869992Y-82197527D01*
X142012638Y-81853999D01*
X142012962Y-81482033D01*
X141870917Y-81138257D01*
X141800090Y-81067307D01*
X141869992Y-80997527D01*
X142012638Y-80653999D01*
X142012962Y-80282033D01*
X141870917Y-79938257D01*
X141608127Y-79675008D01*
X141264599Y-79532362D01*
X140892633Y-79532038D01*
X140548857Y-79674083D01*
X140477907Y-79744910D01*
X140408127Y-79675008D01*
X140064599Y-79532362D01*
X139692633Y-79532038D01*
X139348857Y-79674083D01*
X139085608Y-79936873D01*
X138968000Y-80220103D01*
X138968000Y-73557240D01*
X139208000Y-73557240D01*
X139443317Y-73512962D01*
X139659441Y-73373890D01*
X139804431Y-73161690D01*
X139855440Y-72909800D01*
X139855440Y-71209800D01*
X139811162Y-70974483D01*
X139672090Y-70758359D01*
X139459890Y-70613369D01*
X139208000Y-70562360D01*
X137208000Y-70562360D01*
X136972683Y-70606638D01*
X136756559Y-70745710D01*
X136611569Y-70957910D01*
X136560560Y-71209800D01*
X136560560Y-72909800D01*
X136604838Y-73145117D01*
X136743910Y-73361241D01*
X136956110Y-73506231D01*
X137208000Y-73557240D01*
X137448000Y-73557240D01*
X137448000Y-74886580D01*
X137394317Y-74756657D01*
X137131527Y-74493408D01*
X136787999Y-74350762D01*
X136416033Y-74350438D01*
X136072257Y-74492483D01*
X135809008Y-74755273D01*
X135666362Y-75098801D01*
X135666321Y-75145677D01*
X134641399Y-76170599D01*
X134476652Y-76417161D01*
X134418800Y-76708000D01*
X134418800Y-80848460D01*
X133916800Y-80848460D01*
X133681483Y-80892738D01*
X133465359Y-81031810D01*
X133320369Y-81244010D01*
X133269360Y-81495900D01*
X133269360Y-81497900D01*
X130898900Y-81497900D01*
X130608061Y-81555752D01*
X130361499Y-81720499D01*
X129339817Y-82742181D01*
X129242880Y-82254849D01*
X128931811Y-81789302D01*
X128466264Y-81478233D01*
X127917113Y-81369000D01*
X127860887Y-81369000D01*
X127311736Y-81478233D01*
X126846189Y-81789302D01*
X126535120Y-82254849D01*
X126425887Y-82804000D01*
X126535120Y-83353151D01*
X126846189Y-83818698D01*
X127311736Y-84129767D01*
X127845966Y-84236032D01*
X126589599Y-85492399D01*
X126424852Y-85738961D01*
X126367000Y-86029800D01*
X126367000Y-88824960D01*
X126277000Y-88824960D01*
X126041683Y-88869238D01*
X125825559Y-89008310D01*
X125680569Y-89220510D01*
X125658699Y-89328507D01*
X125353924Y-89050755D01*
X124943890Y-88880924D01*
X124714000Y-89002245D01*
X124714000Y-90195400D01*
X124734000Y-90195400D01*
X124734000Y-90449400D01*
X124714000Y-90449400D01*
X124714000Y-91642555D01*
X124943890Y-91763876D01*
X125353924Y-91594045D01*
X125656937Y-91317899D01*
X125673838Y-91407717D01*
X125812910Y-91623841D01*
X126025110Y-91768831D01*
X126277000Y-91819840D01*
X126332758Y-91819840D01*
X125344999Y-92807599D01*
X125180252Y-93054161D01*
X125122400Y-93345000D01*
X125122400Y-93435146D01*
X124943892Y-93351314D01*
X124714000Y-93471981D01*
X124714000Y-94665800D01*
X124734000Y-94665800D01*
X124734000Y-94919800D01*
X124714000Y-94919800D01*
X124714000Y-94939800D01*
X124460000Y-94939800D01*
X124460000Y-94919800D01*
X123266845Y-94919800D01*
X123145524Y-95149690D01*
X123315355Y-95559724D01*
X123705642Y-95987983D01*
X123848553Y-96055098D01*
X123507853Y-96282746D01*
X123185946Y-96764515D01*
X123072907Y-97332800D01*
X115568800Y-97332800D01*
X115568800Y-94435910D01*
X123145524Y-94435910D01*
X123266845Y-94665800D01*
X124460000Y-94665800D01*
X124460000Y-93471981D01*
X124230108Y-93351314D01*
X123705642Y-93597617D01*
X123315355Y-94025876D01*
X123145524Y-94435910D01*
X115568800Y-94435910D01*
X115568800Y-90679292D01*
X123145514Y-90679292D01*
X123391817Y-91203758D01*
X123820076Y-91594045D01*
X124230110Y-91763876D01*
X124460000Y-91642555D01*
X124460000Y-90449400D01*
X123266181Y-90449400D01*
X123145514Y-90679292D01*
X115568800Y-90679292D01*
X115568800Y-89965508D01*
X123145514Y-89965508D01*
X123266181Y-90195400D01*
X124460000Y-90195400D01*
X124460000Y-89002245D01*
X124230110Y-88880924D01*
X123820076Y-89050755D01*
X123391817Y-89441042D01*
X123145514Y-89965508D01*
X115568800Y-89965508D01*
X115568800Y-85484600D01*
X116145560Y-85484600D01*
X116145560Y-87184600D01*
X116189838Y-87419917D01*
X116328910Y-87636041D01*
X116541110Y-87781031D01*
X116793000Y-87832040D01*
X118793000Y-87832040D01*
X119028317Y-87787762D01*
X119244441Y-87648690D01*
X119389431Y-87436490D01*
X119440440Y-87184600D01*
X119440440Y-86620350D01*
X120158000Y-86620350D01*
X120158000Y-87310910D01*
X120254673Y-87544299D01*
X120433302Y-87722927D01*
X120666691Y-87819600D01*
X121507250Y-87819600D01*
X121666000Y-87660850D01*
X121666000Y-86461600D01*
X121920000Y-86461600D01*
X121920000Y-87660850D01*
X122078750Y-87819600D01*
X122919309Y-87819600D01*
X123152698Y-87722927D01*
X123331327Y-87544299D01*
X123428000Y-87310910D01*
X123428000Y-86620350D01*
X123269250Y-86461600D01*
X121920000Y-86461600D01*
X121666000Y-86461600D01*
X120316750Y-86461600D01*
X120158000Y-86620350D01*
X119440440Y-86620350D01*
X119440440Y-85484600D01*
X119416674Y-85358290D01*
X120158000Y-85358290D01*
X120158000Y-86048850D01*
X120316750Y-86207600D01*
X121666000Y-86207600D01*
X121666000Y-85008350D01*
X121920000Y-85008350D01*
X121920000Y-86207600D01*
X123269250Y-86207600D01*
X123428000Y-86048850D01*
X123428000Y-85358290D01*
X123331327Y-85124901D01*
X123152698Y-84946273D01*
X122919309Y-84849600D01*
X122078750Y-84849600D01*
X121920000Y-85008350D01*
X121666000Y-85008350D01*
X121507250Y-84849600D01*
X120666691Y-84849600D01*
X120433302Y-84946273D01*
X120254673Y-85124901D01*
X120158000Y-85358290D01*
X119416674Y-85358290D01*
X119396162Y-85249283D01*
X119257090Y-85033159D01*
X119044890Y-84888169D01*
X118793000Y-84837160D01*
X118489000Y-84837160D01*
X118489000Y-84042646D01*
X118540800Y-84021243D01*
X118944824Y-83617923D01*
X119163750Y-83090691D01*
X119164248Y-82519813D01*
X118946243Y-81992200D01*
X118542923Y-81588176D01*
X118489000Y-81565785D01*
X118489000Y-81124440D01*
X118769800Y-81124440D01*
X119005117Y-81080162D01*
X119171277Y-80973241D01*
X119317910Y-81073431D01*
X119569800Y-81124440D01*
X121069800Y-81124440D01*
X121305117Y-81080162D01*
X121469292Y-80974518D01*
X121510101Y-81015327D01*
X121743490Y-81112000D01*
X122334050Y-81112000D01*
X122492800Y-80953250D01*
X122492800Y-79604000D01*
X122746800Y-79604000D01*
X122746800Y-80953250D01*
X122905550Y-81112000D01*
X123496110Y-81112000D01*
X123729499Y-81015327D01*
X123908127Y-80836698D01*
X124004800Y-80603309D01*
X124004800Y-79762750D01*
X123846050Y-79604000D01*
X122746800Y-79604000D01*
X122492800Y-79604000D01*
X122472800Y-79604000D01*
X122472800Y-79350000D01*
X122492800Y-79350000D01*
X122492800Y-78000750D01*
X122746800Y-78000750D01*
X122746800Y-79350000D01*
X123846050Y-79350000D01*
X124004800Y-79191250D01*
X124004800Y-78350691D01*
X123908127Y-78117302D01*
X123729499Y-77938673D01*
X123496110Y-77842000D01*
X122905550Y-77842000D01*
X122746800Y-78000750D01*
X122492800Y-78000750D01*
X122334050Y-77842000D01*
X121743490Y-77842000D01*
X121510101Y-77938673D01*
X121468140Y-77980634D01*
X121321690Y-77880569D01*
X121254800Y-77867023D01*
X121254800Y-76588367D01*
X126014038Y-76588367D01*
X126156083Y-76932143D01*
X126226910Y-77003093D01*
X126157008Y-77072873D01*
X126014362Y-77416401D01*
X126014038Y-77788367D01*
X126156083Y-78132143D01*
X126418873Y-78395392D01*
X126762401Y-78538038D01*
X127134367Y-78538362D01*
X127478143Y-78396317D01*
X127549093Y-78325490D01*
X127618873Y-78395392D01*
X127962401Y-78538038D01*
X128334367Y-78538362D01*
X128678143Y-78396317D01*
X128749093Y-78325490D01*
X128818873Y-78395392D01*
X129162401Y-78538038D01*
X129534367Y-78538362D01*
X129878143Y-78396317D01*
X129949093Y-78325490D01*
X130018873Y-78395392D01*
X130362401Y-78538038D01*
X130734367Y-78538362D01*
X131078143Y-78396317D01*
X131341392Y-78133527D01*
X131484038Y-77789999D01*
X131484362Y-77418033D01*
X131342317Y-77074257D01*
X131271490Y-77003307D01*
X131341392Y-76933527D01*
X131484038Y-76589999D01*
X131484362Y-76218033D01*
X131342317Y-75874257D01*
X131079527Y-75611008D01*
X130735999Y-75468362D01*
X130364033Y-75468038D01*
X130020257Y-75610083D01*
X129949307Y-75680910D01*
X129879527Y-75611008D01*
X129535999Y-75468362D01*
X129164033Y-75468038D01*
X128820257Y-75610083D01*
X128749307Y-75680910D01*
X128679527Y-75611008D01*
X128335999Y-75468362D01*
X127964033Y-75468038D01*
X127620257Y-75610083D01*
X127549307Y-75680910D01*
X127479527Y-75611008D01*
X127135999Y-75468362D01*
X126764033Y-75468038D01*
X126420257Y-75610083D01*
X126157008Y-75872873D01*
X126014362Y-76216401D01*
X126014038Y-76588367D01*
X121254800Y-76588367D01*
X121254800Y-74824440D01*
X122219800Y-74824440D01*
X122455117Y-74780162D01*
X122671241Y-74641090D01*
X122816231Y-74428890D01*
X122867240Y-74177000D01*
X122867240Y-72177000D01*
X122822962Y-71941683D01*
X122683890Y-71725559D01*
X122471690Y-71580569D01*
X122219800Y-71529560D01*
X120277492Y-71529560D01*
X120036332Y-71288400D01*
X129871360Y-71288400D01*
X129871360Y-73288400D01*
X129915638Y-73523717D01*
X130054710Y-73739841D01*
X130266910Y-73884831D01*
X130518800Y-73935840D01*
X132218800Y-73935840D01*
X132454117Y-73891562D01*
X132670241Y-73752490D01*
X132815231Y-73540290D01*
X132866240Y-73288400D01*
X132866240Y-73223400D01*
X133832600Y-73223400D01*
X134190409Y-73152227D01*
X134493745Y-72949545D01*
X134606459Y-72836831D01*
X134717907Y-72859000D01*
X134776093Y-72859000D01*
X135344378Y-72745961D01*
X135826147Y-72424054D01*
X136148054Y-71942285D01*
X136261093Y-71374000D01*
X136148054Y-70805715D01*
X135826147Y-70323946D01*
X135782223Y-70294597D01*
X135956698Y-70222327D01*
X136135327Y-70043699D01*
X136232000Y-69810310D01*
X136232000Y-69119750D01*
X136073250Y-68961000D01*
X134874000Y-68961000D01*
X134874000Y-68981000D01*
X134620000Y-68981000D01*
X134620000Y-68961000D01*
X133420750Y-68961000D01*
X133262000Y-69119750D01*
X133262000Y-69810310D01*
X133358673Y-70043699D01*
X133537302Y-70222327D01*
X133711777Y-70294597D01*
X133667853Y-70323946D01*
X133345946Y-70805715D01*
X133237005Y-71353400D01*
X132866240Y-71353400D01*
X132866240Y-71288400D01*
X132821962Y-71053083D01*
X132682890Y-70836959D01*
X132470690Y-70691969D01*
X132218800Y-70640960D01*
X130518800Y-70640960D01*
X130283483Y-70685238D01*
X130067359Y-70824310D01*
X129922369Y-71036510D01*
X129871360Y-71288400D01*
X120036332Y-71288400D01*
X119205605Y-70457673D01*
X119405827Y-70158019D01*
X119477609Y-69797145D01*
X121142277Y-68132477D01*
X121409991Y-67731814D01*
X121504000Y-67259200D01*
X121504000Y-64369467D01*
X122077909Y-63796559D01*
X122403628Y-63012141D01*
X122404370Y-62162785D01*
X122080020Y-61377800D01*
X121788330Y-61085600D01*
X123201560Y-61085600D01*
X123201560Y-64085600D01*
X123245838Y-64320917D01*
X123384910Y-64537041D01*
X123597110Y-64682031D01*
X123849000Y-64733040D01*
X124114000Y-64733040D01*
X124114000Y-66802000D01*
X124208009Y-67274614D01*
X124475723Y-67675277D01*
X126570160Y-69769714D01*
X126570160Y-70470600D01*
X126614438Y-70705917D01*
X126753510Y-70922041D01*
X126965710Y-71067031D01*
X127217600Y-71118040D01*
X129017600Y-71118040D01*
X129252917Y-71073762D01*
X129469041Y-70934690D01*
X129614031Y-70722490D01*
X129665040Y-70470600D01*
X129665040Y-68670600D01*
X129620762Y-68435283D01*
X129481690Y-68219159D01*
X129269490Y-68074169D01*
X129017600Y-68023160D01*
X128316714Y-68023160D01*
X126584000Y-66290446D01*
X126584000Y-64733040D01*
X126849000Y-64733040D01*
X127084317Y-64688762D01*
X127300441Y-64549690D01*
X127445431Y-64337490D01*
X127496440Y-64085600D01*
X127496440Y-63970600D01*
X130268160Y-63970600D01*
X130742041Y-64445309D01*
X131018000Y-64559897D01*
X131018000Y-66640960D01*
X130518800Y-66640960D01*
X130283483Y-66685238D01*
X130067359Y-66824310D01*
X129922369Y-67036510D01*
X129871360Y-67288400D01*
X129871360Y-69288400D01*
X129915638Y-69523717D01*
X130054710Y-69739841D01*
X130266910Y-69884831D01*
X130518800Y-69935840D01*
X132218800Y-69935840D01*
X132454117Y-69891562D01*
X132670241Y-69752490D01*
X132815231Y-69540290D01*
X132866240Y-69288400D01*
X132866240Y-67857690D01*
X133262000Y-67857690D01*
X133262000Y-68548250D01*
X133420750Y-68707000D01*
X134620000Y-68707000D01*
X134620000Y-67507750D01*
X134874000Y-67507750D01*
X134874000Y-68707000D01*
X136073250Y-68707000D01*
X136232000Y-68548250D01*
X136232000Y-67857690D01*
X136135327Y-67624301D01*
X135956698Y-67445673D01*
X135723309Y-67349000D01*
X135032750Y-67349000D01*
X134874000Y-67507750D01*
X134620000Y-67507750D01*
X134461250Y-67349000D01*
X133770691Y-67349000D01*
X133537302Y-67445673D01*
X133358673Y-67624301D01*
X133262000Y-67857690D01*
X132866240Y-67857690D01*
X132866240Y-67813598D01*
X132888001Y-67704200D01*
X132888000Y-67704195D01*
X132888000Y-64560139D01*
X133160800Y-64447420D01*
X133761909Y-63847359D01*
X134087628Y-63062941D01*
X134087750Y-62922150D01*
X134898000Y-62922150D01*
X134898000Y-64262710D01*
X134994673Y-64496099D01*
X135173302Y-64674727D01*
X135406691Y-64771400D01*
X136747250Y-64771400D01*
X136906000Y-64612650D01*
X136906000Y-62763400D01*
X137160000Y-62763400D01*
X137160000Y-64612650D01*
X137318750Y-64771400D01*
X138659309Y-64771400D01*
X138892698Y-64674727D01*
X139071327Y-64496099D01*
X139168000Y-64262710D01*
X139168000Y-64150370D01*
X142302635Y-64150370D01*
X142462418Y-64469139D01*
X143253187Y-64779123D01*
X144102387Y-64762897D01*
X144811582Y-64469139D01*
X144971365Y-64150370D01*
X143637000Y-62816005D01*
X142302635Y-64150370D01*
X139168000Y-64150370D01*
X139168000Y-62922150D01*
X139009250Y-62763400D01*
X137160000Y-62763400D01*
X136906000Y-62763400D01*
X135056750Y-62763400D01*
X134898000Y-62922150D01*
X134087750Y-62922150D01*
X134088370Y-62213585D01*
X133764020Y-61428600D01*
X133346240Y-61010090D01*
X134898000Y-61010090D01*
X134898000Y-62350650D01*
X135056750Y-62509400D01*
X136906000Y-62509400D01*
X136906000Y-60660150D01*
X137160000Y-60660150D01*
X137160000Y-62509400D01*
X139009250Y-62509400D01*
X139168000Y-62350650D01*
X139168000Y-62252587D01*
X141494277Y-62252587D01*
X141510503Y-63101787D01*
X141804261Y-63810982D01*
X142123030Y-63970765D01*
X143457395Y-62636400D01*
X143816605Y-62636400D01*
X145150970Y-63970765D01*
X145469739Y-63810982D01*
X145779723Y-63020213D01*
X145763497Y-62171013D01*
X145469739Y-61461818D01*
X145150970Y-61302035D01*
X143816605Y-62636400D01*
X143457395Y-62636400D01*
X142123030Y-61302035D01*
X141804261Y-61461818D01*
X141494277Y-62252587D01*
X139168000Y-62252587D01*
X139168000Y-61122430D01*
X142302635Y-61122430D01*
X143637000Y-62456795D01*
X144971365Y-61122430D01*
X144811582Y-60803661D01*
X144020813Y-60493677D01*
X143171613Y-60509903D01*
X142462418Y-60803661D01*
X142302635Y-61122430D01*
X139168000Y-61122430D01*
X139168000Y-61010090D01*
X139071327Y-60776701D01*
X138892698Y-60598073D01*
X138659309Y-60501400D01*
X137318750Y-60501400D01*
X137160000Y-60660150D01*
X136906000Y-60660150D01*
X136747250Y-60501400D01*
X135406691Y-60501400D01*
X135173302Y-60598073D01*
X134994673Y-60776701D01*
X134898000Y-61010090D01*
X133346240Y-61010090D01*
X133163959Y-60827491D01*
X132379541Y-60501772D01*
X131530185Y-60501030D01*
X130745200Y-60825380D01*
X130369325Y-61200600D01*
X127496440Y-61200600D01*
X127496440Y-61085600D01*
X127452162Y-60850283D01*
X127313090Y-60634159D01*
X127100890Y-60489169D01*
X126849000Y-60438160D01*
X123849000Y-60438160D01*
X123613683Y-60482438D01*
X123397559Y-60621510D01*
X123252569Y-60833710D01*
X123201560Y-61085600D01*
X121788330Y-61085600D01*
X121479959Y-60776691D01*
X120695541Y-60450972D01*
X119846185Y-60450230D01*
X119061200Y-60774580D01*
X118460091Y-61374641D01*
X118134372Y-62159059D01*
X118133630Y-63008415D01*
X118457980Y-63793400D01*
X119034000Y-64370426D01*
X119034000Y-66747646D01*
X117700983Y-68080663D01*
X117340109Y-68152445D01*
X116842119Y-68485191D01*
X116509373Y-68983181D01*
X116392528Y-69570600D01*
X116509373Y-70158019D01*
X116822600Y-70626797D01*
X116822600Y-70814800D01*
X116908997Y-71249146D01*
X117143467Y-71600055D01*
X117155034Y-71617366D01*
X117772360Y-72234692D01*
X117772360Y-74177000D01*
X117816638Y-74412317D01*
X117955710Y-74628441D01*
X118167910Y-74773431D01*
X118419800Y-74824440D01*
X119384800Y-74824440D01*
X119384800Y-77864370D01*
X119334483Y-77873838D01*
X119168323Y-77980759D01*
X119021690Y-77880569D01*
X118769800Y-77829560D01*
X117269800Y-77829560D01*
X117034483Y-77873838D01*
X116818359Y-78012910D01*
X116673369Y-78225110D01*
X116622360Y-78477000D01*
X116622360Y-80477000D01*
X116666638Y-80712317D01*
X116805710Y-80928441D01*
X116969000Y-81040012D01*
X116969000Y-81565354D01*
X116917200Y-81586757D01*
X116513176Y-81990077D01*
X116294250Y-82517309D01*
X116293752Y-83088187D01*
X116511757Y-83615800D01*
X116915077Y-84019824D01*
X116969000Y-84042215D01*
X116969000Y-84837160D01*
X116793000Y-84837160D01*
X116557683Y-84881438D01*
X116341559Y-85020510D01*
X116196569Y-85232710D01*
X116145560Y-85484600D01*
X115568800Y-85484600D01*
X115568800Y-57199600D01*
X162713600Y-57199600D01*
X162713600Y-105741400D01*
G36*
X159604946Y-72910347D02*
X159895000Y-73104154D01*
X159895000Y-75615800D01*
X159952852Y-75906639D01*
X160117599Y-76153201D01*
X160225200Y-76260802D01*
X160225200Y-76912703D01*
X159868890Y-76765124D01*
X159639000Y-76886445D01*
X159639000Y-78079600D01*
X159659000Y-78079600D01*
X159659000Y-78333600D01*
X159639000Y-78333600D01*
X159639000Y-79526755D01*
X159868890Y-79648076D01*
X160225200Y-79500497D01*
X160225200Y-87340598D01*
X157939898Y-89625900D01*
X152836240Y-89625900D01*
X152836240Y-89623900D01*
X152791962Y-89388583D01*
X152781807Y-89372801D01*
X152785231Y-89367790D01*
X152836240Y-89115900D01*
X152836240Y-89113900D01*
X153809700Y-89113900D01*
X154100539Y-89056048D01*
X154347101Y-88891301D01*
X157509401Y-85729001D01*
X157674148Y-85482439D01*
X157732000Y-85191600D01*
X157732000Y-79479554D01*
X158022054Y-79285747D01*
X158249702Y-78945047D01*
X158316817Y-79087958D01*
X158745076Y-79478245D01*
X159155110Y-79648076D01*
X159385000Y-79526755D01*
X159385000Y-78333600D01*
X159365000Y-78333600D01*
X159365000Y-78079600D01*
X159385000Y-78079600D01*
X159385000Y-76886445D01*
X159155110Y-76765124D01*
X158745076Y-76934955D01*
X158316817Y-77325242D01*
X158249702Y-77468153D01*
X158022054Y-77127453D01*
X157540285Y-76805546D01*
X156972000Y-76692507D01*
X156487400Y-76788900D01*
X156487400Y-75735683D01*
X158652401Y-73570682D01*
X158817148Y-73324121D01*
X158858741Y-73115018D01*
X159165054Y-72910347D01*
X159385000Y-72581174D01*
X159604946Y-72910347D01*
X159604946Y-72910347D01*
G37*
X159604946Y-72910347D02*
X159895000Y-73104154D01*
X159895000Y-75615800D01*
X159952852Y-75906639D01*
X160117599Y-76153201D01*
X160225200Y-76260802D01*
X160225200Y-76912703D01*
X159868890Y-76765124D01*
X159639000Y-76886445D01*
X159639000Y-78079600D01*
X159659000Y-78079600D01*
X159659000Y-78333600D01*
X159639000Y-78333600D01*
X159639000Y-79526755D01*
X159868890Y-79648076D01*
X160225200Y-79500497D01*
X160225200Y-87340598D01*
X157939898Y-89625900D01*
X152836240Y-89625900D01*
X152836240Y-89623900D01*
X152791962Y-89388583D01*
X152781807Y-89372801D01*
X152785231Y-89367790D01*
X152836240Y-89115900D01*
X152836240Y-89113900D01*
X153809700Y-89113900D01*
X154100539Y-89056048D01*
X154347101Y-88891301D01*
X157509401Y-85729001D01*
X157674148Y-85482439D01*
X157732000Y-85191600D01*
X157732000Y-79479554D01*
X158022054Y-79285747D01*
X158249702Y-78945047D01*
X158316817Y-79087958D01*
X158745076Y-79478245D01*
X159155110Y-79648076D01*
X159385000Y-79526755D01*
X159385000Y-78333600D01*
X159365000Y-78333600D01*
X159365000Y-78079600D01*
X159385000Y-78079600D01*
X159385000Y-76886445D01*
X159155110Y-76765124D01*
X158745076Y-76934955D01*
X158316817Y-77325242D01*
X158249702Y-77468153D01*
X158022054Y-77127453D01*
X157540285Y-76805546D01*
X156972000Y-76692507D01*
X156487400Y-76788900D01*
X156487400Y-75735683D01*
X158652401Y-73570682D01*
X158817148Y-73324121D01*
X158858741Y-73115018D01*
X159165054Y-72910347D01*
X159385000Y-72581174D01*
X159604946Y-72910347D01*
M02*
