%TF.GenerationSoftware,KiCad,Pcbnew,4.0.6*%
%TF.CreationDate,2017-06-22T12:26:56+02:00*%
%TF.ProjectId,esp8266_irrigation_system,657370383236365F6972726967617469,rev?*%
%TF.FileFunction,Soldermask,Top*%
%FSLAX46Y46*%
G04 Gerber Fmt 4.6, Leading zero omitted, Abs format (unit mm)*
G04 Created by KiCad (PCBNEW 4.0.6) date Thu Jun 22 12:26:56 2017*
%MOMM*%
%LPD*%
G01*
G04 APERTURE LIST*
%ADD10C,0.100000*%
%ADD11C,2.000000*%
%ADD12O,2.000000X2.000000*%
%ADD13R,2.200000X2.200000*%
%ADD14O,2.200000X2.200000*%
%ADD15R,3.400000X3.400000*%
%ADD16C,3.400000*%
%ADD17R,2.100000X2.100000*%
%ADD18O,2.100000X2.100000*%
%ADD19R,2.100000X2.400000*%
%ADD20R,2.400000X2.100000*%
%ADD21R,2.924000X1.924000*%
%ADD22R,1.924000X2.924000*%
%ADD23R,2.400000X2.000000*%
%ADD24R,4.200000X2.400000*%
%ADD25R,1.900000X2.400000*%
%ADD26C,3.600000*%
G04 APERTURE END LIST*
D10*
D11*
X143865600Y-103098600D03*
D12*
X133705600Y-103098600D03*
D13*
X128117600Y-69570600D03*
D14*
X117957600Y-69570600D03*
D15*
X125349000Y-62585600D03*
D16*
X120269000Y-62585600D03*
D15*
X137033000Y-62636400D03*
D16*
X131953000Y-62636400D03*
D17*
X160655000Y-69291200D03*
D18*
X160655000Y-71831200D03*
X158115000Y-69291200D03*
X158115000Y-71831200D03*
X155575000Y-69291200D03*
X155575000Y-71831200D03*
D17*
X154432000Y-78206600D03*
D18*
X156972000Y-78206600D03*
X159512000Y-78206600D03*
D19*
X131368800Y-72288400D03*
X131368800Y-68288400D03*
D20*
X151072600Y-72059800D03*
X147072600Y-72059800D03*
X138208000Y-72059800D03*
X142208000Y-72059800D03*
D19*
X154330400Y-103523800D03*
X154330400Y-99523800D03*
X157403800Y-96538800D03*
X157403800Y-92538800D03*
D17*
X127127000Y-90322400D03*
D18*
X124587000Y-90322400D03*
D21*
X150926800Y-82257900D03*
X150926800Y-84289900D03*
X150926800Y-86321900D03*
X150926800Y-88353900D03*
X150926800Y-90385900D03*
X150926800Y-92417900D03*
X150926800Y-94449900D03*
X150926800Y-96481900D03*
X135178800Y-96481900D03*
X135178800Y-94449900D03*
X135178800Y-92417900D03*
X135178800Y-90385900D03*
X135178800Y-88353900D03*
X135178800Y-86321900D03*
X135178800Y-84289900D03*
X135178800Y-82257900D03*
D22*
X138036300Y-98386900D03*
X140068300Y-98386900D03*
X142100300Y-98386900D03*
X144132300Y-98386900D03*
X146164300Y-98386900D03*
X148196300Y-98386900D03*
D17*
X149936200Y-103073200D03*
D18*
X147396200Y-103073200D03*
D17*
X134747000Y-68834000D03*
D18*
X134747000Y-71374000D03*
D23*
X130524000Y-103530400D03*
X126524000Y-103530400D03*
D15*
X148717000Y-62636400D03*
D16*
X143637000Y-62636400D03*
D17*
X127127000Y-99872800D03*
D18*
X124587000Y-99872800D03*
X127127000Y-97332800D03*
X124587000Y-97332800D03*
X127127000Y-94792800D03*
X124587000Y-94792800D03*
D24*
X120319800Y-73177000D03*
D25*
X120319800Y-79477000D03*
X122619800Y-79477000D03*
X118019800Y-79477000D03*
D11*
X117729000Y-82804000D03*
D12*
X127889000Y-82804000D03*
D20*
X117793000Y-86334600D03*
X121793000Y-86334600D03*
D19*
X154330400Y-96538800D03*
X154330400Y-92538800D03*
D26*
X157530800Y-61722000D03*
X118872000Y-102412800D03*
M02*
